<?xml version="1.0" standalone="no"?>
<!DOCTYPE svg PUBLIC "-//W3C//DTD SVG 20010904//EN"
 "http://www.w3.org/TR/2001/REC-SVG-20010904/DTD/svg10.dtd">
<svg version="1.0" xmlns="http://www.w3.org/2000/svg"
 width="260.000000pt" height="260.000000pt" viewBox="0 0 260.000000 260.000000"
 preserveAspectRatio="xMidYMid meet">
<metadata>
Created by potrace 1.11, written by Peter Selinger 2001-2013
</metadata>
<g transform="translate(0.000000,260.000000) scale(0.100000,-0.100000)"
fill="#000000" stroke="none">
<path d="M1230 2583 c-574 -40 -1053 -442 -1178 -989 -32 -139 -43 -303 -28
-424 13 -103 18 -135 21 -141 2 -3 7 -20 10 -38 16 -93 98 -280 168 -387 321
-487 912 -700 1460 -527 448 141 786 517 875 974 19 95 23 131 23 239 1 219
-36 380 -137 585 -167 342 -488 591 -874 679 -87 20 -257 34 -340 29z m352
-166 c337 -89 614 -320 762 -631 39 -82 82 -220 94 -300 9 -67 9 -330 -1 -381
-73 -382 -313 -691 -660 -854 -76 -35 -213 -77 -285 -87 -26 -3 -56 -8 -67
-10 -30 -6 -236 -5 -265 1 -13 2 -42 7 -63 10 -64 10 -197 51 -270 84 -150 67
-304 186 -413 317 -343 411 -354 1005 -28 1434 135 179 351 331 559 396 149
46 200 53 375 50 140 -3 180 -7 262 -29z"/>
<path d="M646 2012 c-72 -141 -60 -315 32 -458 80 -123 207 -235 344 -304 37
-19 66 -35 64 -37 -1 -2 -37 6 -80 17 -102 26 -220 88 -295 156 l-61 56 -1
-29 c-6 -154 114 -331 301 -444 72 -43 73 -46 9 -24 -67 24 -111 45 -148 73
l-34 25 6 -52 c8 -71 58 -159 126 -223 61 -57 76 -68 161 -109 60 -29 156 -56
166 -47 3 3 -5 23 -19 45 -52 82 -71 151 -71 258 -1 94 1 105 32 167 61 124
174 194 302 186 132 -8 235 -95 254 -213 l7 -40 -20 42 c-39 85 -120 140 -220
152 -97 12 -175 -24 -225 -102 -109 -171 -37 -408 151 -494 67 -31 182 -38
262 -17 222 59 369 306 327 551 -35 201 -184 361 -393 421 -37 11 -108 28
-158 37 -129 25 -205 50 -332 110 -139 66 -252 139 -376 244 l-97 81 -14 -28z"/>
</g>
</svg>
