<?xml version="1.0" encoding="utf-8"?>
<!-- Generator: Adobe Illustrator 19.1.0, SVG Export Plug-In . SVG Version: 6.00 Build 0)  -->
<!DOCTYPE svg PUBLIC "-//W3C//DTD SVG 1.1//EN" "http://www.w3.org/Graphics/SVG/1.1/DTD/svg11.dtd">
<svg version="1.1" id="Layer_1" xmlns="http://www.w3.org/2000/svg" xmlns:xlink="http://www.w3.org/1999/xlink" x="0px" y="0px"
	 viewBox="0 0 81.7 29.7" style="enable-background:new 0 0 81.7 29.7;" xml:space="preserve">
<style type="text/css">
	.st0{fill:url(#SVGID_1_);}
	.st1{fill:url(#SVGID_2_);}
	.st2{fill:url(#SVGID_3_);}
	.st3{fill:none;stroke:url(#SVGID_4_);stroke-width:1.2845;stroke-miterlimit:10;}
	.st4{fill:#00E2CF;}
	.st5{fill:url(#SVGID_5_);}
	.st6{fill:url(#SVGID_6_);}
	.st7{fill:url(#SVGID_7_);}
	.st8{fill:url(#SVGID_8_);}
	.st9{fill:url(#SVGID_9_);}
	.st10{fill:url(#SVGID_10_);}
	.st11{fill:url(#SVGID_11_);}
	.st12{fill:url(#SVGID_12_);}
	.st13{fill:url(#SVGID_13_);}
	.st14{fill:url(#SVGID_14_);}
	.st15{fill:url(#SVGID_15_);}
	.st16{fill:url(#SVGID_16_);}
	.st17{fill:url(#SVGID_17_);}
	.st18{fill:url(#SVGID_18_);}
	.st19{fill:url(#SVGID_19_);}
	.st20{fill:url(#SVGID_20_);}
	.st21{fill:url(#SVGID_21_);}
	.st22{fill:#5D5D5D;}
	.st23{fill:url(#SVGID_22_);}
	.st24{fill:url(#SVGID_23_);}
	.st25{fill:url(#SVGID_24_);}
	.st26{fill:none;stroke:url(#SVGID_25_);stroke-width:1.2845;stroke-miterlimit:10;}
	.st27{fill:url(#SVGID_26_);}
	.st28{fill:url(#SVGID_27_);}
	.st29{fill:url(#SVGID_28_);}
	.st30{fill:url(#SVGID_29_);}
	.st31{fill:url(#SVGID_30_);}
	.st32{fill:url(#SVGID_31_);}
	.st33{fill:url(#SVGID_32_);}
	.st34{fill:url(#SVGID_33_);}
	.st35{fill:url(#SVGID_34_);}
	.st36{fill:url(#SVGID_35_);}
	.st37{fill:url(#SVGID_36_);}
	.st38{fill:url(#SVGID_37_);}
	.st39{fill:url(#SVGID_38_);}
	.st40{fill:url(#SVGID_39_);}
	.st41{fill:url(#SVGID_40_);}
	.st42{fill:url(#SVGID_41_);}
	.st43{fill:url(#SVGID_42_);}
	.st44{fill:url(#SVGID_43_);}
	.st45{fill:url(#SVGID_44_);}
	.st46{fill:url(#SVGID_45_);}
	.st47{fill:url(#SVGID_46_);}
	.st48{fill:url(#SVGID_47_);}
	.st49{fill:url(#SVGID_48_);}
	.st50{fill:url(#SVGID_49_);}
	.st51{fill:url(#SVGID_50_);}
	.st52{fill:url(#SVGID_51_);}
	.st53{fill:none;stroke:url(#SVGID_52_);stroke-width:1.3476;stroke-miterlimit:10;}
	.st54{fill:url(#SVGID_53_);}
	.st55{fill:url(#SVGID_54_);}
	.st56{fill:url(#SVGID_55_);}
	.st57{fill:url(#SVGID_56_);}
	.st58{fill:url(#SVGID_57_);}
	.st59{fill:url(#SVGID_58_);}
	.st60{fill:url(#SVGID_59_);}
	.st61{fill:url(#SVGID_60_);}
	.st62{fill:url(#SVGID_61_);}
	.st63{fill:url(#SVGID_62_);}
	.st64{fill:url(#SVGID_63_);}
	.st65{fill:url(#SVGID_64_);}
	.st66{fill:url(#SVGID_65_);}
	.st67{fill:url(#SVGID_66_);}
	.st68{fill:url(#SVGID_67_);}
	.st69{fill:url(#SVGID_68_);}
	.st70{fill:url(#SVGID_69_);}
	.st71{fill:url(#SVGID_70_);}
	.st72{fill:url(#SVGID_71_);}
	.st73{fill:url(#SVGID_72_);}
	.st74{fill:none;stroke:url(#SVGID_73_);stroke-width:1.3476;stroke-miterlimit:10;}
	.st75{fill:url(#SVGID_74_);}
	.st76{fill:url(#SVGID_75_);}
	.st77{fill:url(#SVGID_76_);}
	.st78{fill:url(#SVGID_77_);}
	.st79{fill:url(#SVGID_78_);}
	.st80{fill:url(#SVGID_79_);}
	.st81{fill:url(#SVGID_80_);}
	.st82{fill:url(#SVGID_81_);}
	.st83{fill:url(#SVGID_82_);}
	.st84{fill:url(#SVGID_83_);}
	.st85{fill:url(#SVGID_84_);}
	.st86{fill:url(#SVGID_85_);}
	.st87{fill:url(#SVGID_86_);}
	.st88{fill:url(#SVGID_87_);}
	.st89{fill:url(#SVGID_88_);}
	.st90{fill:url(#SVGID_89_);}
	.st91{fill:url(#SVGID_90_);}
	.st92{fill:url(#SVGID_91_);}
	.st93{fill:url(#SVGID_92_);}
	.st94{fill:url(#SVGID_93_);}
	.st95{fill:none;stroke:url(#SVGID_94_);stroke-width:1.2845;stroke-miterlimit:10;}
	.st96{fill:url(#SVGID_95_);}
	.st97{fill:url(#SVGID_96_);}
	.st98{fill:url(#SVGID_97_);}
	.st99{fill:url(#SVGID_98_);}
	.st100{fill:url(#SVGID_99_);}
	.st101{fill:url(#SVGID_100_);}
	.st102{fill:url(#SVGID_101_);}
	.st103{fill:url(#SVGID_102_);}
	.st104{fill:url(#SVGID_103_);}
	.st105{fill:url(#SVGID_104_);}
	.st106{fill:url(#SVGID_105_);}
	.st107{fill:url(#SVGID_106_);}
	.st108{fill:url(#SVGID_107_);}
	.st109{fill:url(#SVGID_108_);}
	.st110{fill:url(#SVGID_109_);}
	.st111{fill:url(#SVGID_110_);}
	.st112{fill:url(#SVGID_111_);}
	.st113{fill:url(#SVGID_112_);}
	.st114{fill:url(#SVGID_113_);}
	.st115{fill:url(#SVGID_114_);}
	.st116{fill:url(#SVGID_115_);}
	.st117{fill:none;stroke:url(#SVGID_116_);stroke-width:1.2845;stroke-miterlimit:10;}
	.st118{fill:url(#SVGID_117_);}
	.st119{fill:url(#SVGID_118_);}
	.st120{fill:url(#SVGID_119_);}
	.st121{fill:url(#SVGID_120_);}
	.st122{fill:url(#SVGID_121_);}
	.st123{fill:url(#SVGID_122_);}
	.st124{fill:url(#SVGID_123_);}
	.st125{fill:url(#SVGID_124_);}
	.st126{fill:url(#SVGID_125_);}
	.st127{fill:url(#SVGID_126_);}
	.st128{fill:url(#SVGID_127_);}
	.st129{fill:url(#SVGID_128_);}
	.st130{fill:url(#SVGID_129_);}
	.st131{fill:url(#SVGID_130_);}
	.st132{fill:url(#SVGID_131_);}
	.st133{fill:url(#SVGID_132_);}
	.st134{fill:url(#SVGID_133_);}
	.st135{fill:url(#SVGID_134_);}
	.st136{fill:url(#SVGID_135_);}
	.st137{fill:url(#SVGID_136_);}
	.st138{fill:url(#SVGID_137_);}
	.st139{fill:url(#SVGID_138_);}
	.st140{fill:url(#SVGID_139_);}
	.st141{fill:url(#SVGID_140_);}
	.st142{fill:url(#SVGID_141_);}
	.st143{fill:url(#SVGID_142_);}
	.st144{fill:url(#SVGID_143_);}
	.st145{fill:url(#SVGID_144_);}
	.st146{fill:url(#SVGID_145_);}
	.st147{fill:url(#SVGID_146_);}
	.st148{fill:url(#SVGID_147_);}
	.st149{fill:url(#SVGID_148_);}
	.st150{fill:url(#SVGID_149_);}
	.st151{fill:url(#SVGID_150_);}
	.st152{fill:url(#SVGID_151_);}
	.st153{fill:url(#SVGID_152_);}
	.st154{fill:url(#SVGID_153_);}
	.st155{fill:url(#SVGID_154_);}
	.st156{fill:url(#SVGID_155_);}
	.st157{fill:url(#SVGID_156_);}
	.st158{fill:url(#SVGID_157_);}
	.st159{fill:url(#SVGID_158_);}
	.st160{fill:url(#SVGID_159_);}
	.st161{fill:url(#SVGID_160_);}
	.st162{fill:url(#SVGID_161_);}
	.st163{fill:url(#SVGID_162_);}
	.st164{fill:url(#SVGID_163_);}
	.st165{fill:url(#SVGID_164_);}
	.st166{fill:url(#SVGID_165_);}
	.st167{fill:url(#SVGID_166_);}
	.st168{fill:url(#SVGID_167_);}
	.st169{fill:url(#SVGID_168_);}
	.st170{fill:url(#SVGID_169_);}
	.st171{fill:none;stroke:url(#SVGID_170_);stroke-width:1.855;stroke-miterlimit:10;}
	.st172{fill:url(#SVGID_171_);}
</style>
<g>
	<g>
		<linearGradient id="SVGID_1_" gradientUnits="userSpaceOnUse" x1="14.4632" y1="7.3585" x2="14.4632" y2="22.0348">
			<stop  offset="0" style="stop-color:#FFFFFF"/>
			<stop  offset="0.3505" style="stop-color:#EDEDED"/>
			<stop  offset="1" style="stop-color:#C2C2C2"/>
		</linearGradient>
		<path class="st0" d="M17.4,14.1c1.2-0.5,1.9-1.5,1.9-2.9c0-1.1-0.4-2-1.1-2.7c-0.8-0.7-1.7-1.1-2.8-1.1h-4.9
			c-1.1,0-1.9,0.9-1.9,1.9v10.8c0,1.1,0.9,1.9,1.9,1.9h5.4c1.3,0,2.3-0.4,3.2-1.2c0.9-0.8,1.3-1.9,1.3-3.1
			C20.4,15.8,19.3,14.5,17.4,14.1z M12.5,10.6h1.9c0.7,0,1.2,0.5,1.2,1.3c0,0.8-0.5,1.3-1.2,1.3h-1.9V10.6z M15,18.7h-2.5v-2.8H15
			c0.9,0,1.5,0.6,1.5,1.4C16.5,18.1,15.9,18.7,15,18.7z"/>
		<linearGradient id="SVGID_2_" gradientUnits="userSpaceOnUse" x1="28.1984" y1="7.3585" x2="28.1984" y2="22.0348">
			<stop  offset="0" style="stop-color:#FFFFFF"/>
			<stop  offset="0.3505" style="stop-color:#EDEDED"/>
			<stop  offset="1" style="stop-color:#C2C2C2"/>
		</linearGradient>
		<path class="st1" d="M31.9,18.5h-5.2v-2.2h4.7c0.9,0,1.6-0.7,1.6-1.6c0-0.9-0.7-1.6-1.6-1.6h-4.7v-2h5c1,0,1.8-0.8,1.8-1.8
			c0-1-0.8-1.8-1.8-1.8h-7.1c-1.1,0-2,0.9-2,2v10.8c0,1.1,0.9,1.9,1.9,1.9h7.3c1,0,1.8-0.8,1.8-1.8S32.9,18.5,31.9,18.5z"/>
		<linearGradient id="SVGID_3_" gradientUnits="userSpaceOnUse" x1="42.9418" y1="7.3585" x2="42.9418" y2="22.0348">
			<stop  offset="0" style="stop-color:#FFFFFF"/>
			<stop  offset="0.3505" style="stop-color:#EDEDED"/>
			<stop  offset="1" style="stop-color:#C2C2C2"/>
		</linearGradient>
		<path class="st2" d="M49.6,19.2L45.5,9.1C45,8,44,7.4,42.9,7.4c-1.1,0-2.1,0.7-2.5,1.7l-4.1,10.2c-0.1,0.3-0.2,0.5-0.2,0.8
			c0,1.1,0.9,2,2,2c0.8,0,1.5-0.5,1.8-1.3l0.3-0.6h2.8h2.8l0.3,0.6c0.3,0.7,1,1.3,1.8,1.3c1.1,0,2-0.9,2-2
			C49.8,19.8,49.7,19.5,49.6,19.2z M42.9,17h-1.8l1.8-4.5l1.8,4.5H42.9z"/>
		<linearGradient id="SVGID_4_" gradientUnits="userSpaceOnUse" x1="55.7931" y1="7.3585" x2="55.7931" y2="22.0348">
			<stop  offset="0" style="stop-color:#FFFFFF"/>
			<stop  offset="0.3505" style="stop-color:#EDEDED"/>
			<stop  offset="1" style="stop-color:#C2C2C2"/>
		</linearGradient>
		<path style="fill:url(#SVGID_4_);" d="M59.9,7.4h-8.2c-1,0-1.8,0.8-1.8,1.8s0.8,1.8,1.8,1.8h2.1V20c0,1.1,0.9,2,2,2
			c1.1,0,2-0.9,2-2V11h2.1c1,0,1.8-0.8,1.8-1.8S60.9,7.4,59.9,7.4z"/>
		<linearGradient id="SVGID_5_" gradientUnits="userSpaceOnUse" x1="68.7748" y1="7.1476" x2="68.7748" y2="22.2457">
			<stop  offset="0" style="stop-color:#FFFFFF"/>
			<stop  offset="0.3505" style="stop-color:#EDEDED"/>
			<stop  offset="1" style="stop-color:#C2C2C2"/>
		</linearGradient>
		<path class="st5" d="M71,13.4c-0.9-0.3-2.1-0.7-2.6-0.8c-0.3-0.1-0.5-0.1-0.7-0.3c-0.4-0.2-0.6-0.4-0.6-0.8c0-0.5,0.6-0.9,1.6-0.9
			c0.6,0,1.2,0.1,1.7,0.4c0.7,0.4,1.6,0.2,2.2-0.3c0.8-0.7,0.7-2-0.2-2.5c-1-0.6-2.3-1-3.9-1c-1.5,0-2.7,0.4-3.7,1.2
			c-1,0.8-1.5,1.9-1.5,3.2c0,2,1.1,3.4,3.4,4.2c0.7,0.3,1.7,0.6,2.3,0.7c0.3,0.1,0.6,0.2,0.9,0.3c0.6,0.2,0.8,0.5,0.8,0.9
			c0,0.7-0.7,1.1-2,1.1c-1,0-1.9-0.3-2.6-0.8c-0.8-0.5-1.7-0.5-2.5,0.1c-0.8,0.6-0.9,1.9,0,2.6c0.3,0.3,0.7,0.5,1,0.7
			c1.1,0.6,2.4,0.9,4.1,0.9c3.9,0,5.9-1.8,5.9-4.7C74.6,15.6,73.5,14.3,71,13.4z"/>
	</g>
	<linearGradient id="SVGID_6_" gradientUnits="userSpaceOnUse" x1="0" y1="14.8733" x2="81.7493" y2="14.8733">
		<stop  offset="0" style="stop-color:#00E2CF"/>
		<stop  offset="0.1745" style="stop-color:#06DCD0"/>
		<stop  offset="0.412" style="stop-color:#16CAD3"/>
		<stop  offset="0.6855" style="stop-color:#30AED8"/>
		<stop  offset="0.9841" style="stop-color:#5586E0"/>
		<stop  offset="1" style="stop-color:#5784E0"/>
	</linearGradient>
	<path class="st6" d="M81.7,7v15.4c0,3.9-3.1,7-7,7H55.5c-0.9,0-1.6-0.7-1.6-1.6c0-0.9,0.7-1.6,1.6-1.6h19.3c2.1,0,3.8-1.7,3.8-3.8
		V7c0-2.1-1.7-3.8-3.8-3.8H57.3H7C4.9,3.2,3.2,4.9,3.2,7v15.4c0,2.1,1.7,3.8,3.8,3.8h19.3c0.9,0,1.6,0.7,1.6,1.6
		c0,0.9-0.7,1.6-1.6,1.6H7c-3.8,0-7-3.2-7-7V7c0-3.8,3.2-7,7-7h50.3h17.5C78.6,0,81.7,3.2,81.7,7z M30.9,29.7L30.9,29.7
		c0.2,0,0.4-0.1,0.5-0.2l0.7-1.1l0.7,1.1c0.1,0.2,0.3,0.2,0.5,0.2h0c0.4,0,0.7-0.5,0.5-0.8l-0.9-1.4l0.8-1.3c0.2-0.4,0-0.8-0.5-0.8
		l0,0c-0.2,0-0.4,0.1-0.5,0.3L32,26.6l-0.6-0.9c-0.1-0.2-0.3-0.3-0.5-0.3l0,0c-0.4,0-0.7,0.5-0.5,0.8l0.8,1.3l-0.9,1.4
		C30.2,29.3,30.5,29.7,30.9,29.7z M37.7,29.7L37.7,29.7c0.3,0,0.6-0.3,0.6-0.6v-2.7h0.6c0.3,0,0.5-0.2,0.5-0.5v0
		c0-0.3-0.2-0.5-0.5-0.5h-2.4c-0.3,0-0.5,0.2-0.5,0.5v0c0,0.3,0.2,0.5,0.5,0.5h0.6v2.7C37.1,29.5,37.4,29.7,37.7,29.7z M42.2,29.7
		L42.2,29.7c0.3,0,0.6-0.3,0.6-0.6v-0.8h0.4h0l0.7,1.1c0.1,0.2,0.3,0.3,0.5,0.3l0,0c0.4,0,0.7-0.5,0.5-0.9l-0.5-0.7
		c0.4-0.2,0.7-0.7,0.7-1.2c0-0.4-0.1-0.8-0.5-1.1c-0.3-0.3-0.7-0.4-1.1-0.4h-1.4c-0.3,0-0.6,0.3-0.6,0.6v3.2
		C41.6,29.5,41.9,29.7,42.2,29.7z M42.8,26.5h0.8c0.2,0,0.4,0.2,0.4,0.5c0,0.3-0.2,0.5-0.5,0.5h-0.7V26.5z M51.4,29.2
		c0,0.3-0.3,0.6-0.6,0.6c-0.2,0-0.5-0.2-0.5-0.4l-0.1-0.2h-0.8h-0.8l-0.1,0.2c-0.1,0.2-0.3,0.4-0.5,0.4c-0.3,0-0.6-0.3-0.6-0.6
		c0-0.1,0-0.2,0.1-0.2l1.2-3c0.1-0.3,0.4-0.5,0.7-0.5c0.3,0,0.6,0.2,0.7,0.5l1.2,3C51.4,29,51.4,29.1,51.4,29.2z M49.9,28.3
		l-0.5-1.3l-0.5,1.3h0.5H49.9z"/>
</g>
</svg>
