<?xml version="1.0" encoding="utf-8"?>
<!-- Generator: Adobe Illustrator 19.0.0, SVG Export Plug-In . SVG Version: 6.00 Build 0)  -->
<!DOCTYPE svg PUBLIC "-//W3C//DTD SVG 1.1//EN" "http://www.w3.org/Graphics/SVG/1.1/DTD/svg11.dtd">
<svg version="1.1" xmlns="http://www.w3.org/2000/svg" xmlns:xlink="http://www.w3.org/1999/xlink" x="0px" y="0px"
	 viewBox="0 0 1140.2 204.1" enable-background="new 0 0 1140.2 204.1" xml:space="preserve">
<g id="Layer_0_xA0_Image_1_">
</g>
<g id="MEDIA">
	<path fill="#FFFFFF" d="M928.7,203.7c0.1-0.1,0.2-0.1,0.3-0.1C928.9,203.6,928.8,203.6,928.7,203.7z"/>
	<path fill="#00D4C2" d="M326.1,141.2c-0.7-7.5-2.2-14.7-5.4-21.6c-3.6-7.8-9.1-13.9-16.1-18.8c-2.9-2-2.7-2-0.2-4.3
		c5.8-5,10-11.3,13.2-18.2c2.7-5.8,3.5-12,4.1-18.3c0.2-3.5,0.2-7.1,0-10.6c-0.5-3.2-0.7-6.4-1.4-9.6c-2.6-11.5-8-21.4-17.8-28.4
		c-7.6-5.4-16-8.8-25.2-10c-0.8-0.3-1.6,0.1-2.4-0.3c-32.1,0-64.2,0-96.6,0c18.9,29.7,37.6,59,56.5,88.7c-1.1,0-1.9,0-2.7,0
		c-15.5,0-31,0-46.6-0.1c-2.1,0-2.7,0.4-2.7,2.6c0.1,36.2,0.1,72.4,0,108.7c0,2.2,0.5,2.8,2.8,2.8c29.8-0.1,59.6-0.1,89.4-0.1
		c0.1-0.1,0.2-0.1,0.3-0.1c0.6-0.2,1.3-0.2,2-0.2c8.2-1.4,16.1-3.7,23.3-8c9-5.5,16-12.8,20.5-22.4c2.3-5,3.7-10.3,4.7-15.7
		c0.4-0.7-0.1-1.6,0.3-2.3c0-0.9,0.1-1.7,0.1-2.6C326.4,148.5,326.4,144.9,326.1,141.2z M222.6,25.5c-0.1-0.2-0.1-0.4-0.3-0.9
		c17.3,0,34.4-0.8,51.4,0.2c13.2,0.8,21.6,7.6,23.9,22.1c1.2,7.1,1,14.3-1.6,21.2c-1.9,5.1-5,9.3-9.4,12.6c-6.8,5-14.4,7.6-22.8,8.1
		c-0.9,0.1-1.5-0.1-2-0.9C248.7,67.1,235.6,46.3,222.6,25.5z M301.1,159.1c-3.3,11.3-11.4,17.2-22.4,19.7c-4.5,1.1-9.2,1.4-13.8,1.4
		c-18.6-0.1-37.3-0.1-55.9,0c-1.8,0-2.3-0.4-2.3-2.3c0.1-20.8,0.1-41.5,0-62.3c0-2.1,0.6-2.4,2.5-2.4c10.6,0.1,21.3,0,31.9,0
		c10.1,0,20.3-0.6,30.4,0.1c19.6,1.4,29.9,11.3,31,29.6C302.9,148.4,302.7,153.8,301.1,159.1z"/>
	<path fill="#69E5DB" d="M2.8,202.9c-1.8,0-2.4-0.4-2.4-2.3c0-66,0-131.9,0-197.9c0-0.5,0-1,0.1-1.5C0.3,1.1,0.2,1,0,1
		c0,67.4,0,134.8,0,202.3c25.5,0,51.1,0,76.6,0c0.8,0,1.6,0.1,2.4-0.4c-2,0-4,0-6,0C49.6,202.8,26.2,202.8,2.8,202.9z"/>
	<path fill="#00D4C2" d="M163.9,68.9c-4.7-16.4-12.2-31.2-25.1-42.8c-18.5-16.8-40.8-24-65.2-25C61.1,0.6,48.4,1,35.8,1
		C24,1,12.3,1.1,0.5,1.1c0.9,1.2,0.7,2.5,0.7,3.8c0,16,0,31.9,0,47.9c0,48.3,0,96.7,0,145c0,4.2,0,4.2,4.2,4.2c23.2,0,46.4,0,69.6,0
		c1.4,0,2.8-0.4,4,0.8c7.3-0.5,14.5-2.1,21.5-4.1c30.7-8.8,52.1-28,62.4-58.3C170.9,116.9,170.7,92.9,163.9,68.9z M139.5,135.5
		c-7.7,20.9-23,33.8-44.1,40.3c-9.1,2.8-18.4,4-28,3.9c-13.7-0.2-27.5-0.1-41.2,0c-2,0-2.5-0.5-2.5-2.5c0.1-25.1,0-50.1,0-75.2
		c0-25,0-50,0-75c0-2.1,0.6-2.6,2.6-2.5c16.2,0.1,32.4-0.6,48.6,0.2c33.9,1.6,61.2,21.1,68,56.2C146.4,99.3,146,117.7,139.5,135.5z"
		/>
	<path fill="#00D4C2" d="M75,202.1c-23.2,0-46.4,0-69.6,0c-4.2,0-4.2,0-4.2-4.2c0-48.3,0-96.7,0-145c0-16,0-31.9,0-47.9
		c0-1.3,0.3-2.7-0.7-3.8c0,0.5-0.1,1-0.1,1.5c0,66,0,131.9,0,197.9c0,1.9,0.6,2.3,2.4,2.3c23.4-0.1,46.8,0,70.3,0c2,0,4,0,6,0
		C77.8,201.7,76.4,202.1,75,202.1z"/>
	<path fill="#FFFFFF" d="M485.3,135.1L538,0h45.7v204.1h-28.5V34.6h-1.5c-11.6,28.2-44.3,113.3-55.9,141.5h-28.2L414,34.6h-1.7
		v169.5h-27.7V0h46.6l52.7,135.1H485.3z"/>
	<path fill="#FFFFFF" d="M610.1,204.1V0h111.8v25.3h-82.7v62.6h72.2v25.3h-72.2v65.5h86.5v25.3H610.1z"/>
	<path fill="#FFFFFF" d="M746,0h56.2c62.9,0,91.4,31.7,91.4,99.3c0,62.3-25.3,104.8-91.4,104.8H746V0z M775.2,178.8h25.9
		c44,0,62.3-23.6,62.3-76.3c0-57.7-23.3-77.2-63.5-77.2h-24.8V178.8z"/>
	<path fill="#FFFFFF" d="M916.7,0h29.4v204.1h-29.4V0z"/>
	<path fill="#FFFFFF" d="M1091.9,148.2h-77.8l-17.5,55.9h-30L1031.3,0h43.7l65.2,204.1h-31.2L1091.9,148.2z M1084,122.9l-17.5-56.8
		c-3.5-12.5-11.4-37.9-13.1-45.7h-1.2c-1.5,7.6-9.3,33.5-12.5,44.8l-17.8,57.7H1084z"/>
</g>
</svg>
