<?xml version="1.0" encoding="utf-8"?>
<!-- Generator: Adobe Illustrator 19.0.0, SVG Export Plug-In . SVG Version: 6.00 Build 0)  -->
<!DOCTYPE svg PUBLIC "-//W3C//DTD SVG 1.1//EN" "http://www.w3.org/Graphics/SVG/1.1/DTD/svg11.dtd">
<svg version="1.1" id="Layer_1" xmlns="http://www.w3.org/2000/svg" xmlns:xlink="http://www.w3.org/1999/xlink" x="0px" y="0px"
	 viewBox="0 0 359.6 44" enable-background="new 0 0 359.6 44" xml:space="preserve">
<g id="XMLID_2_">
	<rect id="XMLID_31_" x="240.4" y="14.1" fill="#FFFFFF" width="16.3" height="16.3"/>
	<rect id="XMLID_30_" x="290.5" y="13.9" fill="#FFFFFF" width="16.8" height="6.1"/>
	<rect id="XMLID_28_" x="131.1" y="14.1" fill="#FFFFFF" width="16.3" height="16.3"/>
	<rect id="XMLID_27_" x="91.9" y="14.1" fill="#FFFFFF" width="16.8" height="6.1"/>
	<path id="XMLID_5_" fill="#FFFFFF" d="M0,0v44h359.6V0H0z M34.8,14.3H24v20h-4v-20H9.3v-4h25.5V14.3z M73.5,34.4H49.2V10.1h24.3
		V34.4z M112.7,24.2H108v10.1h-4V24.2H91.9v10.1h-4V10.1h24.8V24.2z M151.4,34.4h-24.3V10.1h24.3V34.4z M190.1,34.3h-4V18l-16.3-3.4
		v19.7h-4V9.6l24.3,5.1V34.3z M226,14.3h-10.8v20h-4v-20h-10.8v-4H226V14.3z M260.8,34.4h-24.3V10.1h24.3V34.4z M311.4,24h-4.7v10.1
		h-4V24h-12.2v10.1h-4V9.9h24.8V24z M345.4,14h-20.2v16.3h20.2v4h-24.2V10h24.2V14z"/>
	<rect id="XMLID_3_" x="53.2" y="14.1" fill="#FFFFFF" width="16.3" height="16.3"/>
</g>
</svg>
