<?xml version="1.0" encoding="UTF-8" ?>
<!DOCTYPE svg PUBLIC "-//W3C//DTD SVG 1.1//EN" "http://www.w3.org/Graphics/SVG/1.1/DTD/svg11.dtd">
<svg width="1000pt" height="1000pt" viewBox="0 0 1000 1000" version="1.1" xmlns="http://www.w3.org/2000/svg">
<path fill="#fdffff" d=" M 0.00 0.00 L 471.91 0.00 C 467.33 0.98 462.66 1.34 458.00 1.61 C 396.67 6.62 336.33 23.22 281.01 50.16 C 215.66 81.95 157.58 128.33 111.74 184.69 C 101.87 196.34 93.34 209.03 84.29 221.31 C 79.77 228.77 75.01 236.08 70.51 243.55 C 31.71 308.23 7.95 381.87 1.69 457.03 C 1.52 461.03 1.02 465.02 0.00 468.90 L 0.00 0.00 Z" />
<path fill="#01e2cf" d=" M 471.91 0.00 L 526.96 0.00 C 530.93 0.81 534.97 1.30 539.02 1.48 C 619.68 7.49 698.69 33.77 766.98 77.10 C 808.52 103.27 846.05 135.71 878.19 172.81 C 883.79 179.10 888.82 185.86 894.44 192.13 C 905.18 206.97 916.21 221.64 925.63 237.38 C 967.88 305.52 993.31 384.04 998.76 464.05 C 998.96 466.70 999.46 469.30 1000.00 471.90 L 1000.00 526.97 C 998.46 533.84 998.61 540.92 997.77 547.88 C 990.28 628.82 962.28 707.67 917.44 775.45 C 877.07 836.48 823.27 888.62 760.78 926.73 C 696.49 966.24 623.05 990.75 547.92 997.75 C 541.01 998.62 533.97 998.40 527.16 1000.00 L 473.03 1000.00 C 466.14 998.60 459.08 998.63 452.11 997.84 C 376.96 990.84 303.54 966.29 239.21 926.84 C 232.09 922.97 225.91 917.52 218.44 914.31 C 212.38 908.27 204.69 904.26 198.13 898.83 C 153.04 864.60 113.81 822.68 82.42 775.61 C 73.09 760.80 63.93 745.87 55.92 730.29 C 24.51 669.86 5.68 602.93 1.10 534.97 C 0.87 532.65 0.46 530.37 0.00 528.09 L 0.00 468.90 C 1.02 465.02 1.52 461.03 1.69 457.03 C 7.95 381.87 31.71 308.23 70.51 243.55 C 75.01 236.08 79.77 228.77 84.29 221.31 C 93.34 209.03 101.87 196.34 111.74 184.69 C 157.58 128.33 215.66 81.95 281.01 50.16 C 336.33 23.22 396.67 6.62 458.00 1.61 C 462.66 1.34 467.33 0.98 471.91 0.00 Z" />
<path fill="#fdffff" d=" M 526.96 0.00 L 1000.00 0.00 L 1000.00 471.90 C 999.46 469.30 998.96 466.70 998.76 464.05 C 993.31 384.04 967.88 305.52 925.63 237.38 C 916.21 221.64 905.18 206.97 894.44 192.13 C 888.82 185.86 883.79 179.10 878.19 172.81 C 846.05 135.71 808.52 103.27 766.98 77.10 C 698.69 33.77 619.68 7.49 539.02 1.48 C 534.97 1.30 530.93 0.81 526.96 0.00 Z" />
<path fill="#fdffff" d=" M 520.42 306.52 C 609.12 270.75 697.83 234.99 786.51 199.17 C 800.22 295.67 813.76 392.20 827.37 488.72 C 791.40 468.38 755.83 447.33 719.89 426.94 C 678.49 498.57 637.16 570.23 595.78 641.87 C 584.84 661.00 573.58 679.95 562.85 699.19 C 559.15 697.71 555.84 695.52 552.41 693.55 C 497.21 661.77 442.13 629.77 386.86 598.09 C 347.92 665.67 308.79 733.13 269.94 800.76 C 237.43 782.39 205.28 763.36 172.81 744.92 C 174.43 741.00 176.72 737.44 178.86 733.80 C 234.37 637.47 290.09 541.25 345.57 444.89 C 349.59 446.55 353.19 449.00 356.98 451.11 C 409.38 481.36 461.76 511.63 514.17 541.87 C 516.59 543.20 518.85 544.99 521.56 545.71 C 555.44 487.50 588.79 428.96 622.76 370.80 C 587.25 350.08 551.43 329.84 516.02 308.94 C 517.45 308.07 518.88 307.19 520.42 306.52 Z" />
<path fill="#fdffff" d=" M 997.77 547.88 C 998.61 540.92 998.46 533.84 1000.00 526.97 L 1000.00 1000.00 L 527.16 1000.00 C 533.97 998.40 541.01 998.62 547.92 997.75 C 623.05 990.75 696.49 966.24 760.78 926.73 C 823.27 888.62 877.07 836.48 917.44 775.45 C 962.28 707.67 990.28 628.82 997.77 547.88 Z" />
<path fill="#fdffff" d=" M 0.00 528.09 C 0.46 530.37 0.87 532.65 1.10 534.97 C 5.68 602.93 24.51 669.86 55.92 730.29 C 63.93 745.87 73.09 760.80 82.42 775.61 C 113.81 822.68 153.04 864.60 198.13 898.83 C 204.69 904.26 212.38 908.27 218.44 914.31 C 225.91 917.52 232.09 922.97 239.21 926.84 C 303.54 966.29 376.96 990.84 452.11 997.84 C 459.08 998.63 466.14 998.60 473.03 1000.00 L 0.00 1000.00 L 0.00 528.09 Z" />
</svg>
