<svg id="Layer_1" data-name="Layer 1" xmlns="http://www.w3.org/2000/svg" xmlns:xlink="http://www.w3.org/1999/xlink" viewBox="0 0 52.5 15.6"><defs><style>.cls-1{fill:url(#linear-gradient);}</style><linearGradient id="linear-gradient" x1="26.25" y1="0.55" x2="26.25" y2="15.05" gradientUnits="userSpaceOnUse"><stop offset="0" stop-color="#fff"/><stop offset="0.35" stop-color="#ededed"/><stop offset="1" stop-color="#c2c2c2"/></linearGradient></defs><title>AttackLogotype</title><path class="cls-1" d="M37.46,9.81h2.47a22.32,22.32,0,0,1-.15,2.58,3,3,0,0,1-2.53,2.56L36.9,15H35.75A1.82,1.82,0,0,0,35.48,15a3.26,3.26,0,0,1-2.88-3.35q0-3.81,0-7.62A3.32,3.32,0,0,1,35.87.56a3.49,3.49,0,0,1,4,3.78c0,0.35,0,.7,0,1.08H37.46c0-.35,0-0.71,0-1.07a3.83,3.83,0,0,0-.2-1,1,1,0,0,0-1.16-.64,1,1,0,0,0-1,.92,5.15,5.15,0,0,0-.06.81q0,3.38,0,6.76c0,0.18,0,.35,0,0.53a1.21,1.21,0,0,0,1.73,1.12,1.1,1.1,0,0,0,.67-1.16C37.47,11.05,37.46,10.45,37.46,9.81Zm11.41-9H46.42L44,5.75l-0.12,0v-5h-2.4v14h2.42V14.26c0-1.17.06-2.34,0-3.5a4.17,4.17,0,0,1,.89-2.46l2,6.51H49.2L46.26,6ZM29,0.77l2.58,14H29.22l-0.45-3.08H26.16L25.73,14.8H23.37L26,0.77h3ZM28.42,9.56L27.51,3.84h-0.1l-0.9,5.7h1.9ZM5.62,0.77l2.59,14H5.85L5.41,11.73H2.8L2.36,14.82H0l2.58-14h3ZM5.05,9.55L4.15,3.85H4.06l-0.9,5.7h1.9ZM8,2.89h2.31V14.81h2.44v-12H15V0.78H8V2.89Zm8.27,0h2.35V14.8H21v-12h2.33V0.77H16.25V2.88Zm34,9.67V14.8H52.5V12.55H50.23Z"/></svg>