<?xml version="1.0" encoding="utf-8"?>
<!-- Generator: Adobe Illustrator 19.1.0, SVG Export Plug-In . SVG Version: 6.00 Build 0)  -->
<!DOCTYPE svg PUBLIC "-//W3C//DTD SVG 1.1//EN" "http://www.w3.org/Graphics/SVG/1.1/DTD/svg11.dtd">
<svg version="1.1" id="Layer_1" xmlns="http://www.w3.org/2000/svg" xmlns:xlink="http://www.w3.org/1999/xlink" x="0px" y="0px"
	 viewBox="0 0 106.6 16.6" style="enable-background:new 0 0 106.6 16.6;" xml:space="preserve">
<style type="text/css">
	.st0{fill:url(#SVGID_1_);}
	.st1{fill:url(#SVGID_2_);}
	.st2{fill:url(#SVGID_3_);}
	.st3{fill:none;stroke:url(#SVGID_4_);stroke-width:1.2845;stroke-miterlimit:10;}
	.st4{fill:#00E2CF;}
	.st5{fill:url(#SVGID_5_);}
	.st6{fill:url(#SVGID_6_);}
	.st7{fill:url(#SVGID_7_);}
	.st8{fill:url(#SVGID_8_);}
	.st9{fill:url(#SVGID_9_);}
	.st10{fill:url(#SVGID_10_);}
	.st11{fill:url(#SVGID_11_);}
	.st12{fill:url(#SVGID_12_);}
	.st13{fill:url(#SVGID_13_);}
	.st14{fill:url(#SVGID_14_);}
	.st15{fill:url(#SVGID_15_);}
	.st16{fill:url(#SVGID_16_);}
	.st17{fill:url(#SVGID_17_);}
	.st18{fill:url(#SVGID_18_);}
	.st19{fill:url(#SVGID_19_);}
	.st20{fill:url(#SVGID_20_);}
	.st21{fill:url(#SVGID_21_);}
	.st22{fill:url(#SVGID_22_);}
	.st23{fill:url(#SVGID_23_);}
	.st24{fill:url(#SVGID_24_);}
	.st25{fill:url(#SVGID_25_);}
	.st26{fill:url(#SVGID_26_);}
	.st27{fill:url(#SVGID_27_);}
	.st28{fill:url(#SVGID_28_);}
	.st29{fill:none;stroke:url(#SVGID_29_);stroke-width:1.2845;stroke-miterlimit:10;}
	.st30{fill:url(#SVGID_30_);}
	.st31{fill:url(#SVGID_31_);}
	.st32{fill:url(#SVGID_32_);}
	.st33{fill:url(#SVGID_33_);}
	.st34{fill:url(#SVGID_34_);}
	.st35{fill:url(#SVGID_35_);}
	.st36{fill:url(#SVGID_36_);}
	.st37{fill:url(#SVGID_37_);}
	.st38{fill:url(#SVGID_38_);}
	.st39{fill:url(#SVGID_39_);}
	.st40{fill:url(#SVGID_40_);}
	.st41{fill:url(#SVGID_41_);}
	.st42{fill:url(#SVGID_42_);}
	.st43{fill:url(#SVGID_43_);}
	.st44{fill:url(#SVGID_44_);}
	.st45{fill:url(#SVGID_45_);}
	.st46{fill:url(#SVGID_46_);}
	.st47{fill:url(#SVGID_47_);}
	.st48{fill:url(#SVGID_48_);}
	.st49{fill:url(#SVGID_49_);}
	.st50{fill:#FFFFFF;}
	.st51{fill:url(#SVGID_50_);}
	.st52{fill:url(#SVGID_51_);}
	.st53{fill:url(#SVGID_52_);}
	.st54{fill:url(#SVGID_53_);}
	.st55{fill:url(#SVGID_54_);}
	.st56{fill:url(#SVGID_55_);}
	.st57{fill:url(#SVGID_56_);}
	.st58{fill:url(#SVGID_57_);}
	.st59{fill:url(#SVGID_58_);}
	.st60{fill:url(#SVGID_59_);}
	.st61{fill:url(#SVGID_60_);}
	.st62{fill:none;stroke:url(#SVGID_61_);stroke-width:1.2845;stroke-miterlimit:10;}
	.st63{fill:url(#SVGID_62_);}
	.st64{fill:url(#SVGID_63_);}
	.st65{fill:url(#SVGID_64_);}
	.st66{fill:url(#SVGID_65_);}
	.st67{fill:url(#SVGID_66_);}
	.st68{fill:url(#SVGID_67_);}
	.st69{fill:url(#SVGID_68_);}
	.st70{fill:url(#SVGID_69_);}
	.st71{fill:url(#SVGID_70_);}
	.st72{fill:url(#SVGID_71_);}
	.st73{fill:url(#SVGID_72_);}
	.st74{fill:url(#SVGID_73_);}
	.st75{fill:url(#SVGID_74_);}
	.st76{fill:url(#SVGID_75_);}
	.st77{fill:url(#SVGID_76_);}
	.st78{fill:url(#SVGID_77_);}
	.st79{fill:url(#SVGID_78_);}
	.st80{fill:url(#SVGID_79_);}
	.st81{fill:url(#SVGID_80_);}
	.st82{fill:url(#SVGID_81_);}
	.st83{fill:url(#SVGID_82_);}
	.st84{fill:url(#SVGID_83_);}
	.st85{fill:url(#SVGID_84_);}
	.st86{fill:url(#SVGID_85_);}
	.st87{fill:url(#SVGID_86_);}
	.st88{fill:url(#SVGID_87_);}
	.st89{fill:url(#SVGID_88_);}
	.st90{fill:url(#SVGID_89_);}
	.st91{fill:url(#SVGID_90_);}
	.st92{fill:url(#SVGID_91_);}
	.st93{fill:url(#SVGID_92_);}
	.st94{fill:url(#SVGID_93_);}
	.st95{fill:url(#SVGID_94_);}
	.st96{fill:url(#SVGID_95_);}
	.st97{fill:url(#SVGID_96_);}
	.st98{fill:url(#SVGID_97_);}
	.st99{fill:url(#SVGID_98_);}
	.st100{fill:url(#SVGID_99_);}
	.st101{fill:url(#SVGID_100_);}
	.st102{fill:url(#SVGID_101_);}
	.st103{fill:url(#SVGID_102_);}
	.st104{fill:url(#SVGID_103_);}
	.st105{fill:url(#SVGID_104_);}
	.st106{fill:url(#SVGID_105_);}
	.st107{fill:url(#SVGID_106_);}
	.st108{fill:none;stroke:url(#SVGID_107_);stroke-width:1.2845;stroke-miterlimit:10;}
	.st109{fill:url(#SVGID_108_);}
	.st110{fill:url(#SVGID_109_);}
	.st111{fill:url(#SVGID_110_);}
	.st112{fill:url(#SVGID_111_);}
	.st113{fill:url(#SVGID_112_);}
	.st114{fill:url(#SVGID_113_);}
	.st115{fill:url(#SVGID_114_);}
	.st116{fill:url(#SVGID_115_);}
	.st117{fill:url(#SVGID_116_);}
	.st118{fill:url(#SVGID_117_);}
	.st119{fill:url(#SVGID_118_);}
	.st120{fill:url(#SVGID_119_);}
	.st121{fill:url(#SVGID_120_);}
	.st122{fill:url(#SVGID_121_);}
	.st123{fill:url(#SVGID_122_);}
	.st124{fill:url(#SVGID_123_);}
	.st125{fill:url(#SVGID_124_);}
	.st126{fill:url(#SVGID_125_);}
	.st127{fill:url(#SVGID_126_);}
	.st128{fill:url(#SVGID_127_);}
	.st129{fill:url(#SVGID_128_);}
	.st130{fill:url(#SVGID_129_);}
	.st131{fill:url(#SVGID_130_);}
	.st132{fill:url(#SVGID_131_);}
	.st133{fill:url(#SVGID_132_);}
	.st134{fill:url(#SVGID_133_);}
	.st135{fill:url(#SVGID_134_);}
	.st136{fill:url(#SVGID_135_);}
	.st137{fill:url(#SVGID_136_);}
	.st138{fill:url(#SVGID_137_);}
	.st139{fill:url(#SVGID_138_);}
	.st140{fill:url(#SVGID_139_);}
	.st141{fill:url(#SVGID_140_);}
	.st142{fill:url(#SVGID_141_);}
	.st143{fill:none;stroke:url(#SVGID_142_);stroke-width:1.2845;stroke-miterlimit:10;}
	.st144{fill:url(#SVGID_143_);}
	.st145{fill:url(#SVGID_144_);}
	.st146{fill:url(#SVGID_145_);}
	.st147{fill:url(#SVGID_146_);}
	.st148{fill:url(#SVGID_147_);}
	.st149{fill:url(#SVGID_148_);}
	.st150{fill:url(#SVGID_149_);}
	.st151{fill:url(#SVGID_150_);}
	.st152{fill:url(#SVGID_151_);}
	.st153{fill:url(#SVGID_152_);}
	.st154{fill:url(#SVGID_153_);}
	.st155{fill:url(#SVGID_154_);}
	.st156{fill:url(#SVGID_155_);}
	.st157{fill:url(#SVGID_156_);}
	.st158{fill:url(#SVGID_157_);}
	.st159{fill:url(#SVGID_158_);}
	.st160{fill:url(#SVGID_159_);}
	.st161{fill:url(#SVGID_160_);}
	.st162{fill:url(#SVGID_161_);}
	.st163{fill:url(#SVGID_162_);}
	.st164{fill:url(#SVGID_163_);}
	.st165{fill:url(#SVGID_164_);}
	.st166{fill:none;stroke:url(#SVGID_165_);stroke-width:1.2845;stroke-miterlimit:10;}
	.st167{fill:url(#SVGID_166_);}
	.st168{fill:url(#SVGID_167_);}
	.st169{fill:url(#SVGID_168_);}
	.st170{fill:url(#SVGID_169_);}
	.st171{fill:url(#SVGID_170_);}
	.st172{fill:url(#SVGID_171_);}
	.st173{fill:url(#SVGID_172_);}
	.st174{fill:url(#SVGID_173_);}
	.st175{fill:url(#SVGID_174_);}
	.st176{fill:url(#SVGID_175_);}
	.st177{fill:url(#SVGID_176_);}
	.st178{fill:url(#SVGID_177_);}
	.st179{fill:url(#SVGID_178_);}
	.st180{fill:url(#SVGID_179_);}
	.st181{fill:url(#SVGID_180_);}
	.st182{fill:url(#SVGID_181_);}
	.st183{fill:none;}
	.st184{fill:#939393;}
	.st185{fill:#231F20;}
	.st186{fill:#6CBD4D;}
	.st187{fill:#E81A1A;}
	.st188{fill:#00B3DD;}
	.st189{fill:url(#SVGID_182_);}
	.st190{fill:url(#SVGID_183_);}
	.st191{fill:url(#SVGID_184_);}
	.st192{fill:url(#SVGID_185_);}
	.st193{fill:url(#SVGID_186_);}
	.st194{fill:url(#SVGID_187_);}
	.st195{fill:url(#SVGID_188_);}
	.st196{fill:url(#SVGID_189_);}
	.st197{fill:url(#SVGID_190_);}
	.st198{fill:url(#SVGID_191_);}
	.st199{fill:url(#SVGID_192_);}
	.st200{fill:url(#SVGID_193_);}
	.st201{fill:url(#SVGID_194_);}
	.st202{fill:url(#SVGID_195_);}
	.st203{fill:url(#SVGID_196_);}
	.st204{fill:url(#SVGID_197_);}
	.st205{fill:url(#SVGID_198_);}
	.st206{fill:url(#SVGID_199_);}
	.st207{fill:url(#SVGID_200_);}
	.st208{fill:url(#SVGID_201_);}
	.st209{fill:url(#SVGID_202_);}
	.st210{fill:url(#SVGID_203_);}
	.st211{fill:url(#SVGID_204_);}
	.st212{fill:url(#SVGID_205_);}
	.st213{fill:url(#SVGID_206_);}
	.st214{fill:url(#SVGID_207_);}
	.st215{fill:url(#SVGID_208_);}
	.st216{fill:url(#SVGID_209_);}
	.st217{fill:url(#SVGID_210_);}
	.st218{fill:url(#SVGID_211_);}
	.st219{fill:url(#SVGID_212_);}
	.st220{fill:url(#SVGID_213_);}
	.st221{fill:url(#SVGID_214_);}
	.st222{fill:url(#SVGID_215_);}
	.st223{fill:url(#SVGID_216_);}
	.st224{fill:url(#SVGID_217_);}
	.st225{fill:url(#SVGID_218_);}
	.st226{fill:url(#SVGID_219_);}
	.st227{fill:url(#SVGID_220_);}
	.st228{fill:url(#SVGID_221_);}
	.st229{fill:url(#SVGID_222_);}
	.st230{fill:url(#SVGID_223_);}
	.st231{fill:none;stroke:url(#SVGID_224_);stroke-width:1.2845;stroke-miterlimit:10;}
	.st232{fill:url(#SVGID_225_);}
	.st233{fill:url(#SVGID_226_);}
	.st234{fill:url(#SVGID_227_);}
	.st235{fill:url(#SVGID_228_);}
	.st236{fill:url(#SVGID_229_);}
	.st237{fill:url(#SVGID_230_);}
	.st238{fill:url(#SVGID_231_);}
	.st239{fill:url(#SVGID_232_);}
	.st240{fill:url(#SVGID_233_);}
	.st241{fill:url(#SVGID_234_);}
	.st242{fill:url(#SVGID_235_);}
	.st243{fill:url(#SVGID_236_);}
	.st244{fill:url(#SVGID_237_);}
	.st245{fill:url(#SVGID_238_);}
	.st246{fill:url(#SVGID_239_);}
	.st247{fill:url(#SVGID_240_);}
	.st248{fill:url(#SVGID_241_);}
	.st249{fill:url(#SVGID_242_);}
	.st250{fill:url(#SVGID_243_);}
	.st251{fill:url(#SVGID_244_);}
	.st252{fill:url(#SVGID_245_);}
	.st253{fill:url(#SVGID_246_);}
	.st254{fill:url(#SVGID_247_);}
	.st255{fill:url(#SVGID_248_);}
	.st256{fill:url(#SVGID_249_);}
	.st257{fill:url(#SVGID_250_);}
	.st258{fill:url(#SVGID_251_);}
	.st259{fill:url(#SVGID_252_);}
	.st260{fill:url(#SVGID_253_);}
	.st261{fill:url(#SVGID_254_);}
	.st262{fill:url(#SVGID_255_);}
	.st263{fill:url(#SVGID_256_);}
	.st264{fill:url(#SVGID_257_);}
	.st265{fill:url(#SVGID_258_);}
	.st266{fill:url(#SVGID_259_);}
	.st267{fill:url(#SVGID_260_);}
	.st268{fill:url(#SVGID_261_);}
	.st269{fill:url(#SVGID_262_);}
	.st270{fill:url(#SVGID_263_);}
	.st271{fill:url(#SVGID_264_);}
	.st272{fill:url(#SVGID_265_);}
	.st273{fill:url(#SVGID_266_);}
	.st274{fill:url(#SVGID_267_);}
	.st275{fill:url(#SVGID_268_);}
	.st276{fill:url(#SVGID_269_);}
	.st277{fill:url(#SVGID_270_);}
	.st278{fill:url(#SVGID_271_);}
	.st279{fill:url(#SVGID_272_);}
	.st280{fill:url(#SVGID_273_);}
	.st281{fill:url(#SVGID_274_);}
	.st282{fill:url(#SVGID_275_);}
	.st283{fill:url(#SVGID_276_);}
	.st284{fill:url(#SVGID_277_);}
	.st285{fill:url(#SVGID_278_);}
	.st286{fill:url(#SVGID_279_);}
	.st287{fill:url(#SVGID_280_);}
	.st288{fill:url(#SVGID_281_);}
	.st289{fill:url(#SVGID_282_);}
	.st290{fill:url(#SVGID_283_);}
	.st291{fill:url(#SVGID_284_);}
	.st292{fill:url(#SVGID_285_);}
	.st293{fill:url(#SVGID_286_);}
	.st294{fill:url(#SVGID_287_);}
	.st295{fill:url(#SVGID_288_);}
	.st296{fill:url(#SVGID_289_);}
	.st297{fill:url(#SVGID_290_);}
	.st298{fill:url(#SVGID_291_);}
	.st299{fill:url(#SVGID_292_);}
	.st300{fill:url(#SVGID_293_);}
	.st301{fill:url(#SVGID_294_);}
	.st302{fill:url(#SVGID_295_);}
	.st303{fill:url(#SVGID_296_);}
	.st304{fill:url(#SVGID_297_);}
	.st305{fill:url(#SVGID_298_);}
	.st306{fill:url(#SVGID_299_);}
	.st307{fill:url(#SVGID_300_);}
	.st308{fill:url(#SVGID_301_);}
	.st309{fill:url(#SVGID_302_);}
	.st310{fill:url(#SVGID_303_);}
	.st311{fill:url(#SVGID_304_);}
	.st312{fill:url(#SVGID_305_);}
	.st313{fill:url(#SVGID_306_);}
	.st314{fill:url(#SVGID_307_);}
	.st315{fill:url(#SVGID_308_);}
	.st316{fill:none;stroke:url(#SVGID_309_);stroke-width:1.2845;stroke-miterlimit:10;}
	.st317{fill:url(#SVGID_310_);}
	.st318{fill:url(#SVGID_311_);}
	.st319{fill:url(#SVGID_312_);}
	.st320{fill:url(#SVGID_313_);}
	.st321{fill:url(#SVGID_314_);}
	.st322{fill:url(#SVGID_315_);}
	.st323{fill:url(#SVGID_316_);}
	.st324{fill:url(#SVGID_317_);}
	.st325{fill:url(#SVGID_318_);}
	.st326{fill:url(#SVGID_319_);}
	.st327{fill:url(#SVGID_320_);}
	.st328{fill:url(#SVGID_321_);}
	.st329{fill:url(#SVGID_322_);}
	.st330{fill:url(#SVGID_323_);}
	.st331{fill:url(#SVGID_324_);}
	.st332{fill:url(#SVGID_325_);}
	.st333{fill:url(#SVGID_326_);}
	.st334{fill:url(#SVGID_327_);}
	.st335{fill:url(#SVGID_328_);}
	.st336{fill:url(#SVGID_329_);}
	.st337{fill:url(#SVGID_330_);}
	.st338{fill:url(#SVGID_331_);}
	.st339{fill:url(#SVGID_332_);}
	.st340{fill:url(#SVGID_333_);}
	.st341{fill:url(#SVGID_334_);}
	.st342{fill:url(#SVGID_335_);}
	.st343{fill:url(#SVGID_336_);}
	.st344{fill:url(#SVGID_337_);}
	.st345{fill:url(#SVGID_338_);}
	.st346{fill:url(#SVGID_339_);}
	.st347{fill:url(#SVGID_340_);}
	.st348{fill:url(#SVGID_341_);}
	.st349{fill:url(#SVGID_342_);}
</style>
<linearGradient id="SVGID_1_" gradientUnits="userSpaceOnUse" x1="53.2994" y1="5.124370e-06" x2="53.2994" y2="16.5644">
	<stop  offset="0" style="stop-color:#FFFFFF"/>
	<stop  offset="0.3505" style="stop-color:#EDEDED"/>
	<stop  offset="1" style="stop-color:#C2C2C2"/>
</linearGradient>
<path class="st0" d="M2.6,6.7c-1-3.3,1.5-6.3,5.1-6.1c1.7,0.1,3.2,0.7,4.5,0.8c-0.3,0.3-0.6,0.7-0.8,1.1c-1.3-0.2-2.6-0.7-3.7-0.7
	C5.1,1.9,3.2,3.6,4,6.3C4.3,7.3,2.9,7.7,2.6,6.7z M3,16.6c3.5,0,5.4-3.2,6.9-6.6c-0.5-0.1-1-0.2-1.5-0.3c-1.3,3-2.8,5.6-5.4,5.6
	c-3.3,0-1.8-7.7,7.2-5.6l0.6,0.1v0c0-0.4,0.1-0.8,0.2-1.2l-0.5-0.1C-0.6,5.9-2.6,16.6,3,16.6z M10.6,8.2c1.9-4.2,2.3-6.4,5-6.9
	c0.2,0,0.3,0.2,0,0.3c-0.8,0.1-1.6,0.5-2.2,1.3c2.4,0,3.4-1.1,3.4-1.9c0-0.6-0.5-1-1.4-1c-3.6,0-4.8,4.5-6.4,7.8
	C9.6,8,10.1,8.1,10.6,8.2z M16,11.1c-0.4-0.1-0.9-0.3-1.3-0.6c-0.4,0.6-1.4,0.4-1.8,0.2c0,0,0,0,0,0c-1-0.4-0.6-2.2,0.5-2.4
	c0.2,0,0.3,0.2,0.1,0.3c-0.3,0.1-0.8,0.5-0.8,1.1c1-0.2,1.7-0.9,1.7-1.6c0-0.5-0.4-0.9-1-0.9c-2.3,0.1-3.2,3.6-1,4.6c0,0,0,0,0,0
	C13.4,12.4,15,12.4,16,11.1z M26.1,10.9c-0.5,0.7-1.3,1.7-1.9,2.3c0,0,0,0,0,0c-0.8,0.8-1.7,1.1-2.6,1.1c-2.4,0-0.2-4.1,1.6-4.4
	c0.3,0,0.4,0.1,0.3,0.3c-0.2,0.4-0.9,1.3-2,1.4c-0.2,0.3-0.4,0.7-0.5,1.1c2.1-0.1,3.6-1.5,3.8-2.8c0.1-0.8-0.3-1.3-1.1-1.3
	c-0.7,0-1.6,0.4-2.3,1.1c-1,0.9-2.4,2.5-3.3,3.4c-0.5,0.5-1,1-1.2,1c-0.2,0-0.3,0-0.3-0.2c0-0.7,1.9-1.4,1.8-2.9
	c-0.2-1.6-2.4-1-2.8-1.9c-0.1-0.2,0.2-0.3,0.3-0.1c0.1,0.1,0.2,0.3,0.7,0.4c0-0.1,0-0.2,0-0.3c0-0.8-0.4-1.2-1.1-1.2
	c-0.5,0-1.1,0.4-1.1,1.1c0,1.9,2.5,1.6,2.6,2.1c0.1,0.6-1.9,1.4-1.9,2.9c0,1,0.6,1.4,1.4,1.4c0.8,0,1.4-0.5,2.3-1.4c0,0,0,0,0,0
	l0.2-0.2c0-0.4,0-0.8,0.1-1.1c0.1-0.2,0.4-0.2,0.3,0.1c-0.1,0.2-0.1,0.5-0.1,0.8c0,1.2,0.8,1.9,2.2,1.9c1.1,0,2.4-0.4,3.4-1.5
	c0.5-0.5,1.1-1.3,1.6-2C26.5,11.7,26.3,11.3,26.1,10.9z M30.5,13.4c0.2-0.6,0.4-1.2,1.1-3.3c-0.9,1.3-1.8,2.4-2.6,3.2
	c-0.4,0.4-0.8,0.7-1.2,0.8c-0.2,0.1-0.3-0.2-0.1-0.3c0.2-0.1,0.6-0.3,0.7-0.5c0.1-0.8-0.3-1.6-0.6-2.2c-0.4-0.8-0.7-1.6-0.4-2.1
	c0.1-0.2,0.4-0.1,0.3,0.2c-0.2,0.3-0.1,0.8,0.3,1.6c0.4-0.6,0.7-1.1,0.7-1.6c0-0.9-0.4-1.3-1.1-1.3c-1,0-1.5,0.9-1.5,1.7
	c0,1.3,1.1,2.4,1.1,3.6c0,0.9-0.3,0.9-0.7,0.9c-0.4,0-1,0.2-1,0.8c0,0.4,0.3,0.7,1,0.7c1.3,0,2.4-0.5,3.3-1.5c0,0,0,0,0,0
	C30.1,13.8,30.3,13.6,30.5,13.4z M38.3,3c0.5-1,1.5-1.7,2.3-1.7c1.7,0,1.9,2,1.3,4.4c0.5-0.4,1-0.8,1.5-1.1C43.8,2,43.1,0,40.6,0
	c-1.3,0-2.7,0.9-3.4,2.4C36.7,3.4,37.9,3.8,38.3,3z M60.9,13.1c-1,1.3-2.5,1.6-2.5,0.5c0-1.1,0.5-2.4,1-3.3c0.1-0.2,0.4-0.1,0.3,0.1
	c-0.6,0.9-0.9,1.8-1,2.8c0.9-1.2,1.7-2.7,1.7-3.7c0-0.3-0.2-0.7-0.6-0.7c-1,0-2.6,2.9-2.6,4.9c0,1.3,0.7,1.7,1.4,1.7
	c1.2,0,2.4-0.6,3.3-1.6C61.5,13.7,61.1,13.4,60.9,13.1z M56,14.2c-0.1,0-0.2-0.1-0.2-0.3c0-0.7,0.9-2.2,1.8-4.1
	c0.2-0.4,0.1-1-0.5-1.1c-0.3-0.1-0.7,0-0.9,0.5c-0.6,1.2-2,2.8-3.2,4c0,0,0,0,0,0c-0.8,0.8-1.7,1.1-2.6,1.1c-2.4,0-0.2-4.1,1.6-4.4
	c0.3,0,0.4,0.1,0.3,0.3c-0.2,0.4-0.9,1.3-2,1.4c-0.2,0.3-0.4,0.7-0.5,1.1c2.1-0.1,3.6-1.5,3.8-2.8c0.1-0.8-0.3-1.3-1.1-1.3
	c-0.7,0-1.6,0.4-2.3,1.1c-1,0.9-2.4,2.5-3.3,3.4c0,0,0,0,0,0c-0.8,0.8-1.5,1.2-2,1.2c-0.4,0-0.7-0.2-0.7-0.7c0-2.1,4.5-5.6,4.5-8.2
	c0-1.1-0.4-2-1.9-2c-4.1,0-8.5,6-10,9.5c-0.1,0-0.3,0.1-0.4,0.2c-0.6,0.6-1.1,1-1.3,1c-0.2,0-0.3-0.1-0.3-0.3c0-0.9,2.1-2.9,2.1-4.4
	c0-0.5-0.4-0.8-0.8-0.8c-1.1,0-2.4,1.4-3.3,2.7c-0.1,0.2-0.4,0-0.2-0.2c0.2-0.3,0.5-0.7,0.7-0.9c0.6-1.7,1.3-3.6,2.4-5.3
	C35.8,4.8,36,5,35.9,5.2c-0.5,0.9-1.4,2.5-2.1,4.3C35,8,36.4,6.7,36.9,5.3c0.7-2-1.4-2.5-2.7-0.4c-1.4,2.2-2.6,6.4-3.8,9.6
	c-0.1,0.3-0.1,0.7,0.3,0.8c0.3,0.1,0.8,0,1-0.5c0.7-1.5,2.3-3.4,3-4.1c0.4-0.4,0.6-0.1,0.3,0.3c-0.5,0.7-1.5,2-1.5,3
	c0,0.9,0.5,1.4,1.3,1.4c0.6,0,1.1-0.2,1.5-0.5c0,0,0,0,0,0c0,0.6,0.3,0.9,0.8,0.9c1.8,0,4.3-4.5,5.8-8.6c-2,1.9-4.1,5-4.8,7.3
	c-0.1,0.2-0.4,0.1-0.3-0.1c0.9-3.4,5.6-9.6,8.9-9.6c0.5,0,0.7,0.3,0.7,0.8c0,2.1-4.6,5.5-4.6,8.2c0,1.3,0.9,1.8,1.8,1.8
	c1,0,1.9-0.5,3.1-1.7c0,0,0,0,0,0l0.2-0.2c0-0.4,0-0.8,0.1-1.1c0.1-0.2,0.4-0.2,0.3,0.1c-0.1,0.2-0.1,0.5-0.1,0.8
	c0,1.2,0.8,1.9,2.2,1.9c1.1,0,2.4-0.4,3.4-1.5l0.2-0.2c0.2-0.7,0.4-1.3,0.6-1.6c0.1-0.2,0.4-0.1,0.3,0.1c-0.3,0.6-0.6,1.2-0.6,1.8
	c0,0.9,0.7,1.3,1.3,1.3c0.4,0,0.9-0.2,1.4-0.6c-0.1-0.3-0.2-0.7-0.2-1.1C56.6,14,56.3,14.2,56,14.2z M68.1,6.3
	c-0.8-2.7,1.1-4.3,3.7-4.3c1.1,0,2.5,0.5,3.7,0.7c0.3-0.4,0.5-0.8,0.8-1.1c-1.3-0.2-2.7-0.8-4.5-0.8c-3.6-0.2-6.2,2.8-5.1,6.1
	C67,7.7,68.4,7.3,68.1,6.3z M72.6,9.6c0.5,0.2,0.9,0.4,1.3,0.6c1.9-4.1,3-8.9,5.9-8.9c0.2,0,0.2,0.3,0,0.3c-0.8,0-1.5,0.5-2.1,1.3
	c2.4,0,3.4-1.1,3.4-1.9c0-0.6-0.5-1-1.4-1c-2.9,0-4.3,3.1-5.7,6.4C73.5,7.5,73.1,8.6,72.6,9.6z M77.3,11.1c-0.4-0.1-0.9-0.3-1.3-0.6
	c-0.4,0.6-1.4,0.4-1.8,0.2c0,0,0,0,0,0c-1.5-0.7-3.7-1.8-6.3-1.8c-2.5,0-4.1,1.6-4.3,3.4c-0.1-0.1-0.3-0.1-0.5-0.1
	c-0.1,0-0.3,0-0.4,0c-0.9,0-0.4-1.9,0.3-2.3c0.2-0.1,0.3,0.1,0.1,0.3c-0.5,0.3-1,1.7-0.4,1.7c0.2,0,0.3-0.1,0.4-0.1
	c1.1-2.1,0.6-3.1-0.2-3.1c-1.9,0-3.6,5.6,0.3,4.7c0.1,0,0.2-0.1,0.3-0.1c0.3,1.4,1.5,2.6,3.7,2.6c2.5,0,4.5-1.8,5.8-4
	c-0.4-0.2-0.8-0.4-1.3-0.5c-1.1,1.8-2.6,3.3-4.4,3.3c-1.7,0-2.5-0.9-2.5-1.9c0-1.3,1.2-2.5,3-2.5c2.1,0,4.4,0.9,5.8,1.6c0,0,0,0,0,0
	C74.7,12.4,76.3,12.4,77.3,11.1z M79.3,13.2C79.3,13.2,79.3,13.2,79.3,13.2c-0.5,0.5-1,1-1.2,1c-0.2,0-0.3,0-0.3-0.2
	c0-0.7,1.9-1.4,1.8-2.9c-0.2-1.6-2.4-1-2.8-1.9C76.7,9,77,8.8,77,9.1c0.1,0.1,0.2,0.3,0.7,0.4c0-0.1,0-0.2,0-0.3
	c0-0.8-0.4-1.2-1.1-1.2c-0.5,0-1.1,0.4-1.1,1.1c0,1.9,2.5,1.6,2.6,2.1c0.1,0.6-1.9,1.4-1.9,2.9c0,1,0.6,1.4,1.4,1.4
	c0.8,0,1.4-0.5,2.3-1.4l0.2-0.2c0-0.7,0.2-1.3,0.4-1.9C80.2,12.4,79.8,12.7,79.3,13.2z M94.7,13.4c0.2-0.6,0.4-1.2,1.1-3.3
	c-0.9,1.3-1.8,2.4-2.6,3.2c0,0,0,0,0,0c-0.8,0.8-1.7,1.1-2.6,1.1c-2.4,0,0-4.4,1.8-4.4c0.2,0,0.2,0.2-0.1,0.6
	c-0.6,0.7,0.3,1.4,0.9,0.7c0.4-0.4,0.5-0.8,0.6-1.3c0.1-0.8-0.3-1.3-1.1-1.3c-0.7,0-1.6,0.4-2.3,1.1c-1,0.9-2.4,2.5-3.3,3.4
	c0,0,0,0,0,0c-0.8,0.8-1,0.9-1.2,0.9c-0.1,0-0.2-0.1-0.2-0.2c0-0.6,1-1.7,2-3.6c0.2-0.4,0.1-1-0.4-1.1c-0.3-0.1-0.7,0-1,0.5
	c-0.7,1.1-2.3,4.4-3.9,4.4c-0.7,0-0.5-1-0.4-1.4c0.5-1.6,1.5-2.5,2.3-2.9c0.2-0.1,0.4,0.2,0.1,0.3c-0.7,0.4-1.5,1.2-2,2.2
	c1.4-1.2,3-1.6,3.1-2.8c0.1-0.6-0.3-0.8-0.7-0.8c-1.9,0-4.3,2.7-4.3,4.9c0,1.2,0.7,1.8,1.5,1.8c0.7,0,1.3-0.3,1.9-0.8
	c0-0.2-0.1-0.4,0-0.6c0-0.2,0.3-0.2,0.3,0c-0.1,0.9,0.4,1.4,1.2,1.4c0.9,0,1.5-0.4,2.4-1.4c0,0,0,0,0,0l0.2-0.2c0-0.4,0-0.8,0.1-1.1
	c0.1-0.2,0.4-0.2,0.3,0.1c-0.1,0.2-0.1,0.5-0.1,0.8c0,1.2,0.8,1.9,2.2,1.9c1.1,0,2.4-0.4,3.4-1.5c0,0,0,0,0,0
	C94.3,13.8,94.5,13.6,94.7,13.4z M106.4,13.2c-0.2-0.2-0.6-0.2-0.8,0c-0.4,0.4-0.8,0.7-1.2,0.8c-0.2,0.1-0.3-0.2-0.1-0.3
	c0.2-0.1,0.6-0.3,0.7-0.5c0.1-0.8-0.3-1.6-0.6-2.2c-0.4-0.8-0.7-1.6-0.4-2.1c0.1-0.2,0.4-0.1,0.3,0.2c-0.2,0.3-0.1,0.8,0.3,1.6
	c0.4-0.6,0.7-1.1,0.7-1.6c0-0.9-0.4-1.3-1.1-1.3c-1,0-1.5,0.9-1.5,1.7c0,1.3,1.1,2.4,1.1,3.6c0,0.9-0.3,0.9-0.7,0.9
	c-0.4,0-1,0.2-1,0.8c0,0.4,0.3,0.7,1,0.7c1.3,0,2.4-0.5,3.3-1.5C106.6,13.9,106.7,13.5,106.4,13.2z M102.7,10.9
	c-0.5,0.7-1.3,1.7-1.9,2.3c0,0,0,0,0,0c-0.7,0.7-1.1,1-1.6,1c-0.3,0-0.6-0.2-0.6-0.6c0-1.4,2.7-1.9,2.8-3.7c0-0.6-0.3-1.2-1-1.2
	c-1.5,0-2.6,1.6-3.3,2.7c-0.1,0.2-0.4,0-0.3-0.1c0.2-0.3,0.5-0.8,0.8-1.2c0.6-1.6,1.2-3.4,2.3-5c0.2-0.3,0.4-0.1,0.3,0.1
	c-0.5,0.9-1.4,2.5-2.1,4.3c1.2-1.5,2.6-2.8,3.1-4.2c0.7-2-1.4-2.5-2.7-0.4c-1.4,2.2-2.6,6.4-3.8,9.6c-0.1,0.3-0.1,0.7,0.3,0.8
	c0.3,0.1,0.8,0,1-0.5c0.8-1.9,2.8-4.3,3.7-4.7c0.4-0.2,0.6,0.1,0.3,0.4c-0.4,0.4-2.6,1.5-2.6,3.3c0,0.8,0.5,1.6,1.7,1.6
	c1,0,1.6-0.5,2.6-1.4c0.5-0.5,1.1-1.3,1.6-2C103,11.7,102.8,11.3,102.7,10.9z"/>
</svg>
