<svg id="Layer_1" data-name="Layer 1" xmlns="http://www.w3.org/2000/svg" xmlns:xlink="http://www.w3.org/1999/xlink" viewBox="0 0 16.07 16.07"><defs><style>.cls-1{fill:url(#linear-gradient);}</style><linearGradient id="linear-gradient" x1="8.03" x2="8.03" y2="16.07" gradientUnits="userSpaceOnUse"><stop offset="0" stop-color="#00b3dd"/><stop offset="1" stop-color="#0068dd"/></linearGradient></defs><title>HeadlinersLogoHover</title><path class="cls-1" d="M8,0a8,8,0,1,0,8,8A8,8,0,0,0,8,0ZM3.43,11.32H4.32V6H3.43v-1H6.66V6h-1V8.1h1v1.1h-1v2.12h1v1H3.43v-1ZM9.61,14H6.45V13H7.34V3.44H5.61V4.24H4.45V2.35h7.16V4.24H10.45V3.44H8.71V13h0.9v1Zm3-8.1H11.75v5.36h0.89v1H9.39v-1h1V9.19h-1V8.1h1V6h-1v-1h3.24V6Z"/></svg>