<svg id="Layer_1" data-name="Layer 1" xmlns="http://www.w3.org/2000/svg" xmlns:xlink="http://www.w3.org/1999/xlink" viewBox="0 0 16.07 16.07"><defs><style>.cls-1{fill:url(#linear-gradient);}</style><linearGradient id="linear-gradient" x1="8.03" x2="8.03" y2="16.07" gradientUnits="userSpaceOnUse"><stop offset="0" stop-color="#6cbd4d"/><stop offset="1" stop-color="#53913b"/></linearGradient></defs><title>RRLogoHover</title><path class="cls-1" d="M16.07,8A8,8,0,1,1,8,0,8,8,0,0,1,16.07,8ZM5,8.58l0.8-.8A0.5,0.5,0,0,1,6,7.33a0.54,0.54,0,0,1,.17-0.12V5.12A0.86,0.86,0,0,1,7,4.18h2a0.87,0.87,0,0,1,.87.93v2.1a0.43,0.43,0,0,1,.16.11,0.51,0.51,0,0,1,.17.45l0.8,0.8c0-.47,0-2.85,0-3.77a1.82,1.82,0,0,0-.6-1.35c-0.18-.16-1-0.82-1.26-1a1,1,0,0,0-.54-0.2H7.42a0.94,0.94,0,0,0-.54.2c-0.24.18-1.09,0.84-1.26,1A1.8,1.8,0,0,0,5,4.81C5,5.73,5,8.08,5,8.58ZM8,6.67H9.5V5.79H6.57V6.67H8ZM8,9.39H6.57v0.88H9.5V9.39H8ZM5,9.9a1.15,1.15,0,0,1,.15-0.22l1-1,0.33-.33a0.23,0.23,0,0,1,.15-0.1l0.1,0a0.1,0.1,0,0,0,.08,0A0.19,0.19,0,0,0,6.88,8a4.89,4.89,0,0,0-.43-0.42,0.21,0.21,0,0,0-.14-0.05,0.14,0.14,0,0,0-.1,0,0.17,0.17,0,0,0-.05.22,0.12,0.12,0,0,1,0,.15L6.08,8,5,9.06l-0.21.21a0.82,0.82,0,0,1-.21.16l-0.78.45a4.82,4.82,0,0,0-.64.41c-0.3.25-.56,0.54-0.83,0.82a0.4,0.4,0,0,0,0,.6l0.34,0.35a0.44,0.44,0,0,0,.34.18A0.5,0.5,0,0,0,3.45,12l0.87-.94A4.91,4.91,0,0,0,5,10Zm6,0.73,0-.1-0.18-.35,0,0a1.43,1.43,0,0,0-.14-0.21L9.92,9.19c0,0.48,0,1.39,0,1.75a1,1,0,0,1-.84.92H7a1,1,0,0,1-.84-0.92V9.19l-0.73.73a1.4,1.4,0,0,0-.14.21l0,0c-0.07.12-.12,0.23-0.18,0.35a0.68,0.68,0,0,0,0,.1,3.43,3.43,0,0,0,.51,1.87,8,8,0,0,0,1.33,1.08,1.25,1.25,0,0,0,.5.19,5.47,5.47,0,0,0,.67,0,5.53,5.53,0,0,0,.67,0,1.25,1.25,0,0,0,.5-0.19,7.71,7.71,0,0,0,1.33-1.08A3.38,3.38,0,0,0,11,10.63Zm2.66,0.49c-0.27-.28-0.54-0.57-0.83-0.82a4.05,4.05,0,0,0-.64-0.41l-0.78-.45a0.81,0.81,0,0,1-.21-0.16l-0.2-.19h0L10,8,9.92,7.94a0.11,0.11,0,0,1,0-.15,0.17,0.17,0,0,0,0-.22,0.15,0.15,0,0,0-.1,0,0.21,0.21,0,0,0-.13.05C9.46,7.7,9.33,7.86,9.18,8a0.19,0.19,0,0,0,.09.34,0.11,0.11,0,0,0,.08,0l0.1,0a0.24,0.24,0,0,1,.15.1L9.92,8.7l1,1a1.32,1.32,0,0,1,.16.23L11.12,10a5.18,5.18,0,0,0,.63,1.07L12.61,12a0.52,0.52,0,0,0,.4.23,0.45,0.45,0,0,0,.35-0.18l0.34-.35A0.39,0.39,0,0,0,13.71,11.12Z"/></svg>