<?xml version="1.0" standalone="no"?>
<!DOCTYPE svg PUBLIC "-//W3C//DTD SVG 20010904//EN"
 "http://www.w3.org/TR/2001/REC-SVG-20010904/DTD/svg10.dtd">
<svg version="1.0" xmlns="http://www.w3.org/2000/svg"
 width="260.000000pt" height="260.000000pt" viewBox="0 0 260.000000 260.000000"
 preserveAspectRatio="xMidYMid meet">
<metadata>
Created by potrace 1.11, written by Peter Selinger 2001-2013
</metadata>
<g transform="translate(0.000000,260.000000) scale(0.100000,-0.100000)"
fill="#000000" stroke="none">
<path d="M1160 2575 c-8 -2 -49 -9 -90 -15 -452 -73 -851 -426 -994 -879 -74
-236 -74 -526 0 -762 145 -459 536 -801 1011 -884 110 -19 316 -19 426 0 475
83 866 425 1011 884 74 236 74 526 0 762 -124 392 -437 710 -824 837 -122 40
-203 53 -365 57 -88 2 -167 2 -175 0z m-290 -709 c135 -100 365 -212 492 -241
34 -7 116 -26 181 -40 156 -35 243 -79 327 -164 198 -201 201 -512 6 -707 -71
-71 -147 -110 -238 -123 -124 -17 -226 16 -312 101 -73 74 -99 144 -94 253 6
118 50 198 133 243 44 24 178 23 225 -2 67 -35 120 -97 141 -166 7 -24 7 -24
8 5 2 54 -19 103 -64 153 -120 133 -316 127 -445 -15 -65 -71 -90 -139 -90
-244 0 -89 30 -198 75 -269 l25 -39 -33 6 c-137 26 -292 123 -360 226 -33 50
-72 156 -65 177 2 5 23 -3 48 -19 49 -30 151 -71 178 -71 9 0 -13 17 -48 37
-36 21 -104 76 -151 123 -104 103 -148 185 -157 289 l-5 66 62 -57 c96 -89
235 -157 352 -173 43 -6 43 -6 -36 37 -222 120 -355 264 -409 447 -28 96 -16
224 30 314 l15 27 74 -65 c41 -36 102 -85 135 -109z"/>
</g>
</svg>
