<svg id="Layer_1" data-name="Layer 1" xmlns="http://www.w3.org/2000/svg" xmlns:xlink="http://www.w3.org/1999/xlink" viewBox="0 0 15.6 15.6"><defs><style>.cls-1{fill:url(#linear-gradient);}</style><linearGradient id="linear-gradient" x1="7.8" x2="7.8" y2="15.6" gradientUnits="userSpaceOnUse"><stop offset="0" stop-color="#fff"/><stop offset="0.35" stop-color="#ededed"/><stop offset="1" stop-color="#c2c2c2"/></linearGradient></defs><title>AttackIcon</title><path class="cls-1" d="M2.51,10.84l-0.08.1,0.34-.76L3.83,7.87l0-.07L4.18,8.08,3.6,9ZM5.73,5.49l2.16,3H8.44L5.81,3.54,4.07,7.34,4.43,7.65ZM2.37,11.05h0Zm0.5-4.12L1.47,11.8h0l2-4.34Zm10.61,3.55-6.3.21L4.55,8.4,1.87,12.86A7.79,7.79,0,0,0,14.49,11.8ZM2.42,6.73l0.19-.66L3.68,7l0-.09,1.36-3L5.76,2.45h0L6.53,3.86l2.4,4.48L9,8.44h5.24l0,0.08,0.9,1.79A7.8,7.8,0,1,0,1,11.63ZM11,10.08v0L9.22,9.91l-0.52-1H7.64L5.77,6.37,4.8,8l2.55,2.23Zm3.05-.16,0.78,1.14,0.06-.13L14.09,9.24l-0.16-.31H9.25L9.53,9.45,14,9.82Z"/></svg>