<svg id="Layer_1" data-name="Layer 1" xmlns="http://www.w3.org/2000/svg" xmlns:xlink="http://www.w3.org/1999/xlink" viewBox="0 0 13.91 13.96"><defs><style>.cls-1{fill:#00e2cf;}.cls-2{fill:url(#linear-gradient);}.cls-3{fill:url(#linear-gradient-2);}</style><linearGradient id="linear-gradient" x1="7.8" y1="17.18" x2="7.8" y2="3.22" gradientTransform="matrix(1, 0, 0, -1, 0, 18)" gradientUnits="userSpaceOnUse"><stop offset="0" stop-color="#fff"/><stop offset="0.35" stop-color="#ededed"/><stop offset="1" stop-color="#c2c2c2"/></linearGradient><linearGradient id="linear-gradient-2" x1="7.87" y1="14.23" x2="7.87" y2="6.29" xlink:href="#linear-gradient"/></defs><title>DailyBeat_Icon_Grey</title><path class="cls-1" d="M11.19,10.41v-.27A.24.24,0,0,0,11.19,10.41Z" transform="translate(-0.85 -0.82)"/><path class="cls-2" d="M7.8,14.78a7,7,0,1,1,7-7A7,7,0,0,1,7.8,14.78Zm0-13.26a6.28,6.28,0,1,0,6.36,6.25A6.26,6.26,0,0,0,7.8,1.52Z" transform="translate(-0.85 -0.82)"/><path class="cls-3" d="M11.73,9.28V9.07A2.86,2.86,0,0,0,9.9,6.43,5.86,5.86,0,0,0,8.28,6a10.7,10.7,0,0,1-1.4-.49,7.27,7.27,0,0,1-1.4-.81c-.05-.05-.7-.54-1.13-1-1.19,2,.92,4,2.53,4.53A4,4,0,0,1,4.3,7c-.16.92.7,2.21,2.16,2.8A2.82,2.82,0,0,1,5,9.17c0,1.24,1.4,2.21,2.53,2.32a2.61,2.61,0,0,1-.38-2.64,2,2,0,0,1,1.29-1,1.47,1.47,0,0,1,1.78,1.56A1.37,1.37,0,0,0,9,8.2a1.43,1.43,0,0,0-1,.22,1.86,1.86,0,0,0-.49.65A1.9,1.9,0,0,0,9.31,11.6a2.23,2.23,0,0,0,.86-.16h0A2.34,2.34,0,0,0,11.73,9.28Z" transform="translate(-0.85 -0.82)"/></svg>