<svg id="Layer_1" data-name="Layer 1" xmlns="http://www.w3.org/2000/svg" xmlns:xlink="http://www.w3.org/1999/xlink" viewBox="0 0 98.98 15.38"><defs><style>.cls-1{fill:url(#linear-gradient);}</style><linearGradient id="linear-gradient" x1="49.49" x2="49.49" y2="15.38" gradientUnits="userSpaceOnUse"><stop offset="0" stop-color="#2b2b2b"/><stop offset="0.53" stop-color="#121212"/><stop offset="1"/></linearGradient></defs><title>DB_FNT_Logo</title><path class="cls-1" d="M2.43,6.26c-1-3,1.4-5.83,4.77-5.66a36.05,36.05,0,0,1,4.13.78,7.88,7.88,0,0,0-.78,1.06,23,23,0,0,0-3.48-.63c-2.36,0-4.13,1.51-3.39,4a0.67,0.67,0,1,1-1.25.45m0.35,9.12c3.29,0,5-2.94,6.41-6.15A12.82,12.82,0,0,0,7.81,9c-1.23,2.81-2.64,5.2-5,5.2C-0.25,14.19,1.18,7,9.54,9l0.52,0.13v0A2.92,2.92,0,0,1,10.29,8L9.82,7.91c-10.33-2.46-12.21,7.47-7,7.47m7.1-7.77c1.8-3.87,2.16-5.94,4.65-6.39,0.21,0,.24.22,0,0.26a3.12,3.12,0,0,0-2,1.25c2.25,0,3.2-1,3.2-1.75A1,1,0,0,0,14.48.07c-3.37,0-4.45,4.19-6,7.28,0.43,0.06.87,0.15,1.36,0.26m5,2.68a3.27,3.27,0,0,1-1.17-.52A1.41,1.41,0,0,1,12,9.95h0a1.24,1.24,0,0,1,.45-2.22c0.19,0,.24.19,0.06,0.24a1.09,1.09,0,0,0-.72,1A1.76,1.76,0,0,0,13.34,7.5a0.79,0.79,0,0,0-.91-0.8c-2.12.09-3,3.34-.9,4.31h0a2.67,2.67,0,0,0,3.31-.73m9.4-.17a23,23,0,0,1-1.81,2.16h0A3.29,3.29,0,0,1,20,13.35c-2.2,0-.15-3.76,1.45-4,0.24,0,.35.09,0.28,0.3a2.47,2.47,0,0,1-1.84,1.32,3.72,3.72,0,0,0-.48,1c1.94-.06,3.39-1.36,3.5-2.64a1,1,0,0,0-1-1.17,3.52,3.52,0,0,0-2.12,1c-1,.84-2.2,2.29-3.07,3.16a3.24,3.24,0,0,1-1.14.89c-0.19,0-.26,0-0.26-0.22,0-.69,1.79-1.32,1.64-2.7s-2.27-.89-2.61-1.73a0.15,0.15,0,1,1,.28-0.11,0.79,0.79,0,0,0,.69.33,1.1,1.1,0,0,0,0-.24,1,1,0,0,0-1-1.12,1,1,0,0,0-1,1c0,1.75,2.29,1.53,2.4,2C15.87,10.93,14,11.69,14,13.07a1.17,1.17,0,0,0,1.3,1.27,3.22,3.22,0,0,0,2.18-1.28h0l0.18-.18a4.17,4.17,0,0,1,.11-1c0.07-.22.34-0.17,0.28,0.07a3,3,0,0,0-.09.76c0,1.12.73,1.73,2.07,1.73a4.45,4.45,0,0,0,3.16-1.38,16.11,16.11,0,0,0,1.53-1.82c-0.13-.39-0.35-0.73-0.48-1.1m4.08,2.31c0.2-.56.41-1.16,1.06-3.11a30.23,30.23,0,0,1-2.4,3,3,3,0,0,1-1.08.76,0.14,0.14,0,1,1-.11-0.26,1.84,1.84,0,0,0,.67-0.45,3.62,3.62,0,0,0-.56-2.07,2.11,2.11,0,0,1-.35-1.92,0.14,0.14,0,1,1,.24.15,1.75,1.75,0,0,0,.3,1.51,2.78,2.78,0,0,0,.63-1.49A1,1,0,0,0,25.66,7.3a1.45,1.45,0,0,0-1.41,1.56c0,1.21,1,2.27,1,3.35,0,0.86-.3.88-0.65,0.84a0.78,0.78,0,0,0-.89.73c0,0.39.26,0.67,0.91,0.67a4.2,4.2,0,0,0,3.11-1.4h0a8.37,8.37,0,0,0,.57-0.61m7.22-9.68a2.66,2.66,0,0,1,2.18-1.62c1.56,0,1.75,1.84,1.25,4.1a14.51,14.51,0,0,1,1.4-1.06C40.63,1.82,40,0,37.69,0a3.67,3.67,0,0,0-3.2,2.22,0.6,0.6,0,1,0,1.06.54m21,9.39c-0.93,1.17-2.29,1.49-2.29.45a6.15,6.15,0,0,1,1-3c0.13-.21.35-0.08,0.24,0.11a5.82,5.82,0,0,0-.89,2.64,6.7,6.7,0,0,0,1.55-3.44,0.56,0.56,0,0,0-.6-0.61c-1,0-2.38,2.68-2.38,4.51a1.31,1.31,0,0,0,1.32,1.58,4.05,4.05,0,0,0,3.07-1.51,1.41,1.41,0,0,1-1-.69m-4.54,1a0.23,0.23,0,0,1-.22-0.26c0-.65.84-2,1.71-3.82a0.66,0.66,0,0,0-.43-1,0.75,0.75,0,0,0-.86.5,17.06,17.06,0,0,1-2.94,3.67h0a3.29,3.29,0,0,1-2.4,1.06c-2.2,0-.15-3.76,1.45-4,0.24,0,.35.09,0.28,0.3a2.48,2.48,0,0,1-1.84,1.32,3.66,3.66,0,0,0-.48,1c1.94-.06,3.39-1.36,3.5-2.64a1,1,0,0,0-1-1.17,3.52,3.52,0,0,0-2.12,1c-1,.84-2.2,2.29-3.07,3.16h0a3.29,3.29,0,0,1-1.86,1.15,0.56,0.56,0,0,1-.62-0.61c0-1.92,4.17-5.2,4.17-7.65a1.56,1.56,0,0,0-1.73-1.84c-3.79,0-7.89,5.6-9.31,8.81a0.54,0.54,0,0,0-.33.15,2.86,2.86,0,0,1-1.25.89,0.28,0.28,0,0,1-.32-0.28c0-.84,1.92-2.68,1.92-4.1a0.71,0.71,0,0,0-.78-0.71c-1,0-2.2,1.27-3.11,2.53a0.14,0.14,0,1,1-.22-0.17,5.08,5.08,0,0,1,.67-0.82,21.74,21.74,0,0,1,2.23-4.94c0.17-.24.39-0.07,0.26,0.13a30.43,30.43,0,0,0-1.94,4c1.08-1.36,2.46-2.59,2.92-3.93,0.61-1.82-1.32-2.31-2.55-.33s-2.38,5.94-3.5,8.94a0.57,0.57,0,0,0,.28.78,0.7,0.7,0,0,0,.89-0.5A16.07,16.07,0,0,1,32.2,9.94c0.39-.37.58-0.13,0.32,0.26C32.09,10.84,31.1,12,31.1,13a1.17,1.17,0,0,0,1.19,1.32,2.4,2.4,0,0,0,1.44-.46s0,0,0,0a0.73,0.73,0,0,0,.76.82c1.71,0,3.95-4.13,5.38-8a18,18,0,0,0-4.43,6.74,0.15,0.15,0,1,1-.28-0.07c0.88-3.17,5.23-8.88,8.25-8.88a0.61,0.61,0,0,1,.67.73c0,1.94-4.26,5.08-4.26,7.65a1.59,1.59,0,0,0,1.68,1.71,4.11,4.11,0,0,0,2.87-1.56h0l0.18-.18a4.17,4.17,0,0,1,.11-1c0.07-.22.34-0.17,0.28,0.07a3,3,0,0,0-.09.76c0,1.12.73,1.73,2.07,1.73a4.45,4.45,0,0,0,3.17-1.38l0.22-.22a5.51,5.51,0,0,1,.54-1.47c0.11-.2.33-0.07,0.24,0.11a3.89,3.89,0,0,0-.52,1.68,1.13,1.13,0,0,0,1.23,1.19,2.3,2.3,0,0,0,1.3-.52,2.71,2.71,0,0,1-.19-1.06,1.53,1.53,0,0,1-.86.43M63.2,5.81c-0.73-2.49,1-4,3.39-4a23,23,0,0,1,3.48.63,7.88,7.88,0,0,1,.78-1.06A36.05,36.05,0,0,0,66.71.6C63.34,0.43,61,3.22,61.95,6.26a0.67,0.67,0,1,0,1.25-.45M67.42,9c0.43,0.19.82,0.37,1.19,0.56,1.77-3.78,2.81-8.29,5.44-8.29,0.21,0,.22.28,0,0.28a2.54,2.54,0,0,0-2,1.23c2.25,0,3.2-1,3.2-1.75A1,1,0,0,0,74,.07c-2.68,0-4,2.85-5.29,5.9-0.43,1-.84,2-1.29,3m4.32,1.34a3.26,3.26,0,0,1-1.17-.52,1.41,1.41,0,0,1-1.66.17h0A13.35,13.35,0,0,0,63,8.25a3.77,3.77,0,0,0-4,3.2,0.61,0.61,0,0,0-.5-0.07,1.12,1.12,0,0,1-.34,0c-0.86,0-.41-1.73.3-2.12a0.14,0.14,0,1,1,.13.24c-0.45.3-.91,1.62-0.33,1.62A0.89,0.89,0,0,0,58.69,11c1-1.92.54-2.9-.2-2.9-1.81,0-3.31,5.21.3,4.36a0.67,0.67,0,0,0,.27-0.14c0.24,1.32,1.38,2.43,3.45,2.43,2.37,0,4.13-1.71,5.34-3.72q-0.56-.25-1.23-0.5c-1,1.66-2.4,3-4.06,3s-2.31-.84-2.31-1.79A2.49,2.49,0,0,1,63,9.52,13.4,13.4,0,0,1,68.42,11h0a2.67,2.67,0,0,0,3.32-.73m1.88,2h0a3.23,3.23,0,0,1-1.13.89c-0.19,0-.26,0-0.26-0.22,0-.69,1.79-1.32,1.64-2.7s-2.27-.89-2.61-1.73a0.15,0.15,0,1,1,.28-0.11,0.79,0.79,0,0,0,.69.33,1.1,1.1,0,0,0,0-.24,1,1,0,0,0-1-1.12,1,1,0,0,0-1,1c0,1.75,2.29,1.53,2.4,2,0.13,0.58-1.73,1.34-1.73,2.72a1.17,1.17,0,0,0,1.3,1.27,3.22,3.22,0,0,0,2.18-1.28l0.2-.21A3.78,3.78,0,0,1,75,11.06a14.24,14.24,0,0,0-1.38,1.23m14.32,0.15c0.21-.56.41-1.16,1.06-3.11a30.23,30.23,0,0,1-2.4,3h0a3.29,3.29,0,0,1-2.4,1.06c-2.27,0,0-4.06,1.64-4.06,0.17,0,.19.19-0.11,0.56-0.52.67,0.26,1.32,0.84,0.67a2,2,0,0,0,.54-1.21,0.94,0.94,0,0,0-1-1.17,3.52,3.52,0,0,0-2.12,1c-1,.84-2.2,2.29-3.07,3.16h0c-0.78.78-.95,0.87-1.13,0.87a0.18,0.18,0,0,1-.19-0.2c0-.52.89-1.6,1.83-3.35a0.66,0.66,0,0,0-.37-1,0.78,0.78,0,0,0-.89.45c-0.63,1-2.1,4.1-3.65,4.1-0.65,0-.45-0.91-0.33-1.28a4.62,4.62,0,0,1,2.12-2.74c0.21-.11.37,0.17,0.11,0.3a4.17,4.17,0,0,0-1.82,2.08c1.32-1.12,2.77-1.53,2.92-2.61a0.61,0.61,0,0,0-.65-0.76c-1.75,0-3.95,2.53-3.95,4.56a1.44,1.44,0,0,0,1.41,1.64,2.72,2.72,0,0,0,1.77-.71,1.5,1.5,0,0,1,0-.6c0-.22.3-0.2,0.28,0a1,1,0,0,0,1.08,1.28c0.82,0,1.36-.37,2.27-1.28h0l0.18-.18a4.17,4.17,0,0,1,.11-1c0.07-.22.34-0.17,0.28,0.07a3,3,0,0,0-.09.76c0,1.12.73,1.73,2.07,1.73a4.45,4.45,0,0,0,3.16-1.38h0a8.37,8.37,0,0,0,.57-0.61m10.89-.15a0.55,0.55,0,0,0-.76,0,3,3,0,0,1-1.08.76,0.14,0.14,0,1,1-.11-0.26,1.83,1.83,0,0,0,.67-0.45A3.62,3.62,0,0,0,97,10.28a2.1,2.1,0,0,1-.35-1.92,0.14,0.14,0,1,1,.24.15,1.76,1.76,0,0,0,.3,1.51,2.78,2.78,0,0,0,.63-1.49A1,1,0,0,0,96.74,7.3a1.45,1.45,0,0,0-1.41,1.56c0,1.21,1,2.27,1,3.35,0,0.86-.3.88-0.65,0.84a0.78,0.78,0,0,0-.89.73c0,0.39.26,0.67,0.91,0.67a4.21,4.21,0,0,0,3.11-1.4,0.55,0.55,0,0,0,0-.76m-3.5-2.16a23,23,0,0,1-1.81,2.16h0a2.41,2.41,0,0,1-1.49.95,0.53,0.53,0,0,1-.58-0.56c0-1.27,2.49-1.75,2.59-3.44A1,1,0,0,0,93.1,8.1c-1.42,0-2.42,1.47-3.09,2.51a0.14,0.14,0,1,1-.24-0.13,7.12,7.12,0,0,1,.76-1.14,20.68,20.68,0,0,1,2.14-4.64c0.17-.24.39-0.07,0.26,0.13a30.43,30.43,0,0,0-1.94,4c1.08-1.36,2.46-2.59,2.92-3.93,0.61-1.82-1.32-2.31-2.55-.33s-2.38,5.94-3.5,8.94a0.57,0.57,0,0,0,.28.78,0.7,0.7,0,0,0,.89-0.5c0.78-1.75,2.59-4,3.45-4.38,0.34-.15.56,0.06,0.26,0.35s-2.42,1.42-2.42,3.07a1.43,1.43,0,0,0,1.58,1.53,3.22,3.22,0,0,0,2.38-1.28,16.21,16.21,0,0,0,1.53-1.82c-0.13-.39-0.35-0.73-0.48-1.1"/></svg>