<svg id="Layer_1" data-name="Layer 1" xmlns="http://www.w3.org/2000/svg" xmlns:xlink="http://www.w3.org/1999/xlink" viewBox="0 0 21.32 20.51"><defs><style>.cls-1{fill:url(#linear-gradient);}.cls-2{fill:url(#linear-gradient-2);}</style><linearGradient id="linear-gradient" x1="14.21" y1="2.79" x2="14.21" y2="20.51" gradientUnits="userSpaceOnUse"><stop offset="0" stop-color="#00e2cf"/><stop offset="0.17" stop-color="#06dcd0"/><stop offset="0.41" stop-color="#16cad3"/><stop offset="0.69" stop-color="#30aed8"/><stop offset="0.98" stop-color="#5586e0"/><stop offset="1" stop-color="#5784e0"/></linearGradient><linearGradient id="linear-gradient-2" x1="6.32" x2="6.32" y2="17.98" gradientUnits="userSpaceOnUse"><stop offset="0" stop-color="#454545"/><stop offset="1" stop-color="#262626"/></linearGradient></defs><title>BeatmersiveIcon_Black</title><path class="cls-1" d="M18.78,5.38a9,9,0,0,1,0,12.53,8.54,8.54,0,0,1-11.69.54l3.62-3.74a3.5,3.5,0,0,0,1.94.59,3.65,3.65,0,0,0,0-7.3,3.55,3.55,0,0,0-3,1.6V3.31a8.56,8.56,0,0,1,9.09,2.07"/><polygon class="cls-2" points="3.72 0 3.72 11.65 0 11.65 6.53 17.98 12.64 11.65 8.96 11.65 8.96 0 3.72 0"/></svg>