<svg id="Layer_1" data-name="Layer 1" xmlns="http://www.w3.org/2000/svg" xmlns:xlink="http://www.w3.org/1999/xlink" viewBox="0 0 16.07 16.07"><defs><style>.cls-1{fill:url(#linear-gradient);}</style><linearGradient id="linear-gradient" x1="8.03" x2="8.03" y2="16.07" gradientUnits="userSpaceOnUse"><stop offset="0" stop-color="#e81a1a"/><stop offset="1" stop-color="#9c1a1a"/></linearGradient></defs><title>TRCLogoHover</title><path class="cls-1" d="M16.07,8A8,8,0,1,1,8,0,8,8,0,0,1,16.07,8Zm-2.46,0h0l-0.53-.25L13,7.77a0.15,0.15,0,0,1-.08-0.15,0.8,0.8,0,0,1,0-.16l0.45-1.65v0h0l-1.51.32a0.24,0.24,0,0,1-.29-0.18l-0.12-.43-0.07-.26,0,0L10.1,6.63a0.37,0.37,0,0,1-.17.11A0.18,0.18,0,0,1,9.68,6.6a0.56,0.56,0,0,1,0-.24l0.18-.94,0.33-1.75,0-.13h0L9.5,3.9l-0.09,0a0.41,0.41,0,0,1-.18,0A0.28,0.28,0,0,1,9,3.81L8.05,2,8,2,8,2,7.07,3.8,7,3.86A0.26,0.26,0,0,1,6.78,4a0.57,0.57,0,0,1-.2-0.07l-0.7-.36,0,0,0,0.13L6.09,4.8,6.3,5.94c0,0.17.06,0.33,0.09,0.5a0.35,0.35,0,0,1,0,.21,0.16,0.16,0,0,1-.16.1A0.32,0.32,0,0,1,6,6.63L4.83,5.35l-0.1-.12v0l-0.19.66a0.24,0.24,0,0,1-.29.18L2.73,5.78h0v0L3.08,7.15c0,0.13.07,0.27,0.1,0.4a0.19,0.19,0,0,1-.12.24l-0.56.26,0,0,0,0L3.94,9.27l1.19,1a0.35,0.35,0,0,1,.12.39L5,11.33v0H5l0.49-.06,0.73-.11,0.67-.1L7.58,11H7.72a0.27,0.27,0,0,1,.2.24c0,0.08,0,.16,0,0.24l0,0.61,0,0.92c0,0.21,0,.42,0,0.63s0,0.26,0,.39H8.24l0-1.59c0-.39,0-0.78,0-1.17A0.27,0.27,0,0,1,8.3,11a0.15,0.15,0,0,1,.09,0l0.17,0,0.71,0.09L10,11.24l0.86,0.12,0.16,0v0l-0.21-.7a0.35,0.35,0,0,1,.12-0.4l2.64-2.14Z"/></svg>