<svg id="Layer_1" data-name="Layer 1" xmlns="http://www.w3.org/2000/svg" xmlns:xlink="http://www.w3.org/1999/xlink" viewBox="0 0 702.02 255.45"><defs><style>.cls-1{fill:url(#linear-gradient);}.cls-2{fill:url(#linear-gradient-2);}.cls-3{fill:url(#linear-gradient-3);}.cls-4{fill:url(#linear-gradient-4);}.cls-5{fill:url(#linear-gradient-5);}.cls-6{fill:url(#linear-gradient-6);}</style><linearGradient id="linear-gradient" x1="124.2" y1="63.19" x2="124.2" y2="189.22" gradientUnits="userSpaceOnUse"><stop offset="0" stop-color="#2b2b2b"/><stop offset="0.53" stop-color="#121212"/><stop offset="1"/></linearGradient><linearGradient id="linear-gradient-2" x1="242.15" y1="63.19" x2="242.15" y2="189.22" xlink:href="#linear-gradient"/><linearGradient id="linear-gradient-3" x1="368.76" y1="63.19" x2="368.76" y2="189.22" xlink:href="#linear-gradient"/><linearGradient id="linear-gradient-4" x1="479.12" y1="63.19" x2="479.12" y2="189.22" xlink:href="#linear-gradient"/><linearGradient id="linear-gradient-5" x1="590.6" y1="61.38" x2="590.6" y2="191.04" xlink:href="#linear-gradient"/><linearGradient id="linear-gradient-6" x1="0" y1="127.72" x2="702.02" y2="127.72" xlink:href="#linear-gradient"/></defs><title>Hover</title><path class="cls-1" d="M107.74,137H128.9c7.78,0,13,5.07,13,11.75,0,7.06-5.44,12.3-12.84,12.3H107.74V137Zm0-45.94h16.64a10.67,10.67,0,0,1,10.67,11c0,6.7-4.35,11.4-10.67,11.4H107.74V91ZM90.12,63.19A16.73,16.73,0,0,0,73.4,79.92V172.5a16.73,16.73,0,0,0,16.73,16.73h46.55c11,0,20.08-3.43,27.31-10.48,7.41-7.06,11-16.1,11-26.78,0-16.09-8.85-27.84-25.31-31.28,10.11-4.15,16.09-13.2,16.09-25.32,0-9.21-3.25-17-9.76-23-6.52-6.14-14.47-9.21-24.05-9.21H90.12Z"/><path class="cls-2" d="M211.73,63.19A16.78,16.78,0,0,0,195,80V172.5a16.73,16.73,0,0,0,16.73,16.73h62.47a15.19,15.19,0,0,0,0-30.37H229.3V139.67h40.51a14.1,14.1,0,1,0,0-28.21H229.3V94.12h43.14a15.46,15.46,0,0,0,0-30.92H211.73Z"/><path class="cls-3" d="M368.76,107.13L384,146.19H353.57ZM347.09,77.77l-35.59,87.35a16.48,16.48,0,0,0-1.77,7.22,16.8,16.8,0,0,0,32.56,5.88l2.22-5.46H393l2.22,5.46a16.8,16.8,0,0,0,32.56-5.38v-1a16.55,16.55,0,0,0-1.76-6.75L390.43,77.77a23.39,23.39,0,0,0-43.33,0"/><path class="cls-4" d="M443.86,63.19a15.54,15.54,0,1,0,0,31.09h18.45V172a17.18,17.18,0,1,0,34.36,0V94.28h17.72a15.54,15.54,0,1,0,0-31.09H443.86Z"/><path class="cls-5" d="M556.54,71.33C547.7,78,543.35,87.24,543.35,99.18c0,17,9.76,29.1,29.1,36.33,6,2.18,15,4.89,19.9,6.34,2.53,0.72,5.06,1.63,7.42,2.52,4.88,2,7.06,4.35,7.06,7.78,0,6-5.62,9-16.84,9a39.86,39.86,0,0,1-22.38-6.8,18,18,0,0,0-21.11.5,14.19,14.19,0,0,0-.4,22.23,72.16,72.16,0,0,0,9,6.13C564.32,188.5,575.89,191,590,191c33.46,0,50.29-15.54,50.29-40,0-17.18-8.86-28.59-30.57-36.36A204.58,204.58,0,0,0,587.47,108a37.55,37.55,0,0,1-6.32-2.17c-3.79-1.62-5.07-3.62-5.07-7.24,0-4.51,4.87-7.77,13.75-7.77a31,31,0,0,1,14.71,3.34c6.17,3.26,13.8,1.7,19.1-2.84A13.53,13.53,0,0,0,622,69.58q-13.51-8.19-33.43-8.19c-12.48,0-23.14,3.25-32,9.94"/><path class="cls-6" d="M280.22,220.5l-5.13,8.1L270,220.5a4.7,4.7,0,1,0-7.92,5l7,10.94-7.69,11.82a4.63,4.63,0,0,0,3.62,7.14h0.52a4.66,4.66,0,0,0,3.63-2.12l5.93-9.23,5.94,9.23a4.66,4.66,0,0,0,3.62,2.12h0.52a4.63,4.63,0,0,0,3.62-7.14l-7.69-11.82,7-10.94a4.7,4.7,0,1,0-7.92-5m32.87-2.18a4.58,4.58,0,0,0,0,9.15h5.44v22.92a5.07,5.07,0,0,0,4.78,5.06h0.56a5.07,5.07,0,0,0,4.78-5.06V227.47h5.21a4.58,4.58,0,1,0,0-9.15H313.09Zm54.45,9.15h6.51c2,0,3.51,1.6,3.51,3.95a4,4,0,0,1-4.37,4.37h-5.65v-8.32Zm-5.19-9.15a4.92,4.92,0,0,0-4.93,4.93v27.14a5.07,5.07,0,0,0,4.77,5.06h0.56a5.07,5.07,0,0,0,4.78-5.06v-6.5h3.84l6.16,9.39a4.8,4.8,0,0,0,3.74,2.17h0.53a4.8,4.8,0,0,0,3.7-7.48l-4.22-6.27a11.44,11.44,0,0,0,6.34-10.61,12,12,0,0,0-3.89-9.05,13.08,13.08,0,0,0-9.43-3.73h-12ZM424,231.26l4.48,11.51h-9Zm-6.38-8.66-10.48,25.74a4.8,4.8,0,0,0-.53,2.12,5,5,0,0,0,4.71,5h0.55a5,5,0,0,0,4.35-3.24l0.66-1.61h14.28l0.65,1.61a4.94,4.94,0,0,0,4.35,3.24h0.55a5,5,0,0,0,4.69-5,4.8,4.8,0,0,0-.51-2.12L430.37,222.6a6.89,6.89,0,0,0-12.76,0M492,0H60.2A60.5,60.5,0,0,0,0,60.2v132a60.5,60.5,0,0,0,60.2,60.19H225.58a13.51,13.51,0,0,0,13.59-13.59,13.76,13.76,0,0,0-13.59-13.59H60.2a33,33,0,0,1-33-33V60.2a33,33,0,0,1,33-33H641.83a33,33,0,0,1,33,33v132a33,33,0,0,1-33,33H476.44a13.59,13.59,0,0,0,0,27.18H641.83A60,60,0,0,0,702,192.22V60.2A60.5,60.5,0,0,0,641.83,0H492Z"/></svg>