<?xml version="1.0" encoding="utf-8"?>
<!-- Generator: Adobe Illustrator 19.1.0, SVG Export Plug-In . SVG Version: 6.00 Build 0)  -->
<!DOCTYPE svg PUBLIC "-//W3C//DTD SVG 1.1//EN" "http://www.w3.org/Graphics/SVG/1.1/DTD/svg11.dtd">
<svg version="1.1" id="Layer_1" xmlns="http://www.w3.org/2000/svg" xmlns:xlink="http://www.w3.org/1999/xlink" x="0px" y="0px"
	 viewBox="0 0 152.1 30.7" style="enable-background:new 0 0 152.1 30.7;" xml:space="preserve">
<style type="text/css">
	.st0{fill:url(#SVGID_1_);}
	.st1{fill:url(#SVGID_2_);}
	.st2{fill:url(#SVGID_3_);}
	.st3{fill:none;stroke:url(#SVGID_4_);stroke-width:1.2845;stroke-miterlimit:10;}
	.st4{fill:#00E2CF;}
	.st5{fill:url(#SVGID_5_);}
	.st6{fill:url(#SVGID_6_);}
	.st7{fill:url(#SVGID_7_);}
	.st8{fill:url(#SVGID_8_);}
	.st9{fill:url(#SVGID_9_);}
	.st10{fill:url(#SVGID_10_);}
	.st11{fill:url(#SVGID_11_);}
	.st12{fill:url(#SVGID_12_);}
	.st13{fill:url(#SVGID_13_);}
	.st14{fill:url(#SVGID_14_);}
	.st15{fill:url(#SVGID_15_);}
	.st16{fill:url(#SVGID_16_);}
	.st17{fill:url(#SVGID_17_);}
	.st18{fill:url(#SVGID_18_);}
	.st19{fill:url(#SVGID_19_);}
	.st20{fill:url(#SVGID_20_);}
	.st21{fill:url(#SVGID_21_);}
	.st22{fill:#5D5D5D;}
	.st23{fill:url(#SVGID_22_);}
	.st24{fill:url(#SVGID_23_);}
	.st25{fill:url(#SVGID_24_);}
	.st26{fill:none;stroke:url(#SVGID_25_);stroke-width:1.2845;stroke-miterlimit:10;}
	.st27{fill:url(#SVGID_26_);}
	.st28{fill:url(#SVGID_27_);}
	.st29{fill:url(#SVGID_28_);}
	.st30{fill:url(#SVGID_29_);}
	.st31{fill:url(#SVGID_30_);}
	.st32{fill:url(#SVGID_31_);}
	.st33{fill:url(#SVGID_32_);}
	.st34{fill:url(#SVGID_33_);}
	.st35{fill:url(#SVGID_34_);}
	.st36{fill:url(#SVGID_35_);}
	.st37{fill:url(#SVGID_36_);}
	.st38{fill:url(#SVGID_37_);}
	.st39{fill:url(#SVGID_38_);}
	.st40{fill:url(#SVGID_39_);}
	.st41{fill:url(#SVGID_40_);}
	.st42{fill:url(#SVGID_41_);}
	.st43{fill:url(#SVGID_42_);}
	.st44{fill:url(#SVGID_43_);}
	.st45{fill:url(#SVGID_44_);}
	.st46{fill:url(#SVGID_45_);}
	.st47{fill:url(#SVGID_46_);}
	.st48{fill:url(#SVGID_47_);}
	.st49{fill:url(#SVGID_48_);}
	.st50{fill:url(#SVGID_49_);}
	.st51{fill:url(#SVGID_50_);}
	.st52{fill:url(#SVGID_51_);}
	.st53{fill:none;stroke:url(#SVGID_52_);stroke-width:1.3476;stroke-miterlimit:10;}
	.st54{fill:url(#SVGID_53_);}
	.st55{fill:url(#SVGID_54_);}
	.st56{fill:url(#SVGID_55_);}
	.st57{fill:url(#SVGID_56_);}
	.st58{fill:url(#SVGID_57_);}
	.st59{fill:url(#SVGID_58_);}
	.st60{fill:url(#SVGID_59_);}
	.st61{fill:url(#SVGID_60_);}
	.st62{fill:url(#SVGID_61_);}
	.st63{fill:url(#SVGID_62_);}
	.st64{fill:url(#SVGID_63_);}
	.st65{fill:url(#SVGID_64_);}
	.st66{fill:url(#SVGID_65_);}
	.st67{fill:url(#SVGID_66_);}
	.st68{fill:url(#SVGID_67_);}
	.st69{fill:url(#SVGID_68_);}
	.st70{fill:url(#SVGID_69_);}
	.st71{fill:url(#SVGID_70_);}
	.st72{fill:url(#SVGID_71_);}
	.st73{fill:url(#SVGID_72_);}
	.st74{fill:none;stroke:url(#SVGID_73_);stroke-width:1.3476;stroke-miterlimit:10;}
	.st75{fill:url(#SVGID_74_);}
	.st76{fill:url(#SVGID_75_);}
	.st77{fill:url(#SVGID_76_);}
	.st78{fill:url(#SVGID_77_);}
	.st79{fill:url(#SVGID_78_);}
	.st80{fill:url(#SVGID_79_);}
	.st81{fill:url(#SVGID_80_);}
	.st82{fill:url(#SVGID_81_);}
	.st83{fill:url(#SVGID_82_);}
	.st84{fill:url(#SVGID_83_);}
	.st85{fill:url(#SVGID_84_);}
	.st86{fill:url(#SVGID_85_);}
	.st87{fill:url(#SVGID_86_);}
	.st88{fill:url(#SVGID_87_);}
	.st89{fill:url(#SVGID_88_);}
	.st90{fill:url(#SVGID_89_);}
	.st91{fill:url(#SVGID_90_);}
	.st92{fill:url(#SVGID_91_);}
	.st93{fill:url(#SVGID_92_);}
	.st94{fill:url(#SVGID_93_);}
	.st95{fill:none;stroke:url(#SVGID_94_);stroke-width:1.2845;stroke-miterlimit:10;}
	.st96{fill:url(#SVGID_95_);}
	.st97{fill:url(#SVGID_96_);}
	.st98{fill:url(#SVGID_97_);}
	.st99{fill:url(#SVGID_98_);}
	.st100{fill:url(#SVGID_99_);}
	.st101{fill:url(#SVGID_100_);}
	.st102{fill:url(#SVGID_101_);}
	.st103{fill:url(#SVGID_102_);}
	.st104{fill:url(#SVGID_103_);}
	.st105{fill:url(#SVGID_104_);}
	.st106{fill:url(#SVGID_105_);}
	.st107{fill:url(#SVGID_106_);}
	.st108{fill:url(#SVGID_107_);}
	.st109{fill:url(#SVGID_108_);}
	.st110{fill:url(#SVGID_109_);}
	.st111{fill:url(#SVGID_110_);}
	.st112{fill:url(#SVGID_111_);}
	.st113{fill:url(#SVGID_112_);}
	.st114{fill:url(#SVGID_113_);}
	.st115{fill:url(#SVGID_114_);}
	.st116{fill:url(#SVGID_115_);}
	.st117{fill:none;stroke:url(#SVGID_116_);stroke-width:1.2845;stroke-miterlimit:10;}
	.st118{fill:url(#SVGID_117_);}
	.st119{fill:url(#SVGID_118_);}
	.st120{fill:url(#SVGID_119_);}
	.st121{fill:url(#SVGID_120_);}
	.st122{fill:url(#SVGID_121_);}
	.st123{fill:url(#SVGID_122_);}
	.st124{fill:url(#SVGID_123_);}
	.st125{fill:url(#SVGID_124_);}
	.st126{fill:url(#SVGID_125_);}
	.st127{fill:url(#SVGID_126_);}
	.st128{fill:url(#SVGID_127_);}
	.st129{fill:url(#SVGID_128_);}
	.st130{fill:url(#SVGID_129_);}
	.st131{fill:url(#SVGID_130_);}
	.st132{fill:url(#SVGID_131_);}
	.st133{fill:url(#SVGID_132_);}
	.st134{fill:url(#SVGID_133_);}
	.st135{fill:url(#SVGID_134_);}
	.st136{fill:url(#SVGID_135_);}
	.st137{fill:url(#SVGID_136_);}
	.st138{fill:url(#SVGID_137_);}
	.st139{fill:url(#SVGID_138_);}
	.st140{fill:url(#SVGID_139_);}
	.st141{fill:url(#SVGID_140_);}
	.st142{fill:url(#SVGID_141_);}
	.st143{fill:url(#SVGID_142_);}
	.st144{fill:url(#SVGID_143_);}
	.st145{fill:url(#SVGID_144_);}
	.st146{fill:url(#SVGID_145_);}
	.st147{fill:url(#SVGID_146_);}
	.st148{fill:url(#SVGID_147_);}
	.st149{fill:url(#SVGID_148_);}
	.st150{fill:url(#SVGID_149_);}
	.st151{fill:url(#SVGID_150_);}
	.st152{fill:url(#SVGID_151_);}
	.st153{fill:url(#SVGID_152_);}
	.st154{fill:url(#SVGID_153_);}
	.st155{fill:url(#SVGID_154_);}
	.st156{fill:url(#SVGID_155_);}
	.st157{fill:url(#SVGID_156_);}
	.st158{fill:url(#SVGID_157_);}
	.st159{fill:url(#SVGID_158_);}
	.st160{fill:url(#SVGID_159_);}
	.st161{fill:url(#SVGID_160_);}
	.st162{fill:url(#SVGID_161_);}
	.st163{fill:url(#SVGID_162_);}
	.st164{fill:url(#SVGID_163_);}
	.st165{fill:url(#SVGID_164_);}
	.st166{fill:url(#SVGID_165_);}
	.st167{fill:url(#SVGID_166_);}
	.st168{fill:url(#SVGID_167_);}
	.st169{fill:url(#SVGID_168_);}
	.st170{fill:none;stroke:url(#SVGID_169_);stroke-width:1.855;stroke-miterlimit:10;}
	.st171{fill:url(#SVGID_170_);}
</style>
<g>
	<linearGradient id="SVGID_1_" gradientUnits="userSpaceOnUse" x1="122.1786" y1="1.9728" x2="122.1786" y2="24.2968">
		<stop  offset="0" style="stop-color:#00E2CF"/>
		<stop  offset="0.1745" style="stop-color:#06DCD0"/>
		<stop  offset="0.412" style="stop-color:#16CAD3"/>
		<stop  offset="0.6855" style="stop-color:#30AED8"/>
		<stop  offset="0.9841" style="stop-color:#5586E0"/>
		<stop  offset="1" style="stop-color:#5784E0"/>
	</linearGradient>
	<path class="st0" d="M152.1,8v4.2h-3.5v11.6H144V12.3h-2.1V8h2.1V2c2.5,0,4.6,2,4.6,4.6V8H152.1z M141.4,14.8
		c-0.8,0.7-1.9,1.3-3.3,1.4c2.8-1,3.3-2.5,3.3-3.9v0c-0.3-3-2.8-4.7-6.8-4.7c-3,0-5.3,1.1-6.9,3.4l2.8,2.4c1.2-1.3,2.5-2,4.2-2
		c1.4,0,2.1,0.4,2.1,1.3c0,1-0.9,1.2-3.2,1.4c-4.9,0.5-7,2.1-7,5.4c0,2.9,2.4,4.8,5.9,4.8c2.5,0,4.3-0.6,5.3-1.9v1.5h3.6v-5V14.8z
		 M133.2,20.4c-1.4,0-2.1-0.5-2.1-1.4c0-1.1,0.9-1.5,2.6-1.8c0.4-0.1,1.3-0.2,1.6-0.3l0.6-0.1c0.5-0.1,0.7-0.2,0.9-0.4v1.2
		C136.8,19.5,135.5,20.4,133.2,20.4z M124,10c-1.5-1.5-3.5-2.3-5.9-2.3c-2.5,0-4.6,0.8-6.2,2.3c-1.6,1.5-2.4,3.5-2.4,6v0.1
		c0,2.5,0.8,4.5,2.4,6c1.6,1.5,3.7,2.2,6.3,2.2c2.7,0,5-1,6.8-2.9l-2.7-2.6c-1.1,1-2.4,1.5-3.9,1.5c-2.5,0-4.1-1.2-4.2-3.1h12l0-1.5
		C126.3,13.4,125.5,11.5,124,10z M118.1,11.5c1.9,0,3.4,1.2,3.4,2.6h-7.3C114.4,12.7,116.1,11.5,118.1,11.5z M104.5,12
		c1.8-0.6,2.8-2.3,2.8-4.4c0-1.6-0.6-3-1.8-4C104.3,2.5,102.8,2,101,2h-8.7v21.9h9.9c1.9,0,3.5-0.6,4.7-1.8c1.3-1.2,1.9-2.8,1.9-4.7
		C108.9,14.6,107.3,12.5,104.5,12z M97.1,19.7v-5.3h4.2c1.7,0,2.9,1.1,2.9,2.6c0,1.5-1.2,2.7-2.8,2.7H97.1z M100.2,10.7h-3.2V6.1
		h3.2c1.4,0,2.3,1,2.3,2.3C102.6,9.7,101.6,10.7,100.2,10.7z"/>
	<linearGradient id="SVGID_2_" gradientUnits="userSpaceOnUse" x1="60.5591" y1="1.3746" x2="60.5591" y2="30.71">
		<stop  offset="0" style="stop-color:#FFFFFF"/>
		<stop  offset="0.3505" style="stop-color:#EDEDED"/>
		<stop  offset="1" style="stop-color:#C2C2C2"/>
	</linearGradient>
	<path class="st1" d="M91.8,8l-7,18.4c-0.5,1.4-1.1,2.3-1.8,2.9c-1,0.9-2.5,1.4-4.2,1.4c-0.7,0-1.4-0.1-2.1-0.2v-4.1
		c0.5,0.2,1.1,0.3,1.9,0.3c0.6,0,1-0.1,1.4-0.3c0.3-0.2,0.5-0.5,0.7-1l0.3-0.7l-5-12.2c-0.9-2.1,0.7-4.4,3-4.4l4.3,11L87,8H91.8z
		 M73.6,3.3c-0.8-0.8-2-1.4-3.3-1.4v21.9H75V6.7C75,5.4,74.5,4.2,73.6,3.3z M64.7,12.7v11.2h4.7V8C66.7,8,64.7,10.1,64.7,12.7z
		 M64.3,4c0,1.5,1.2,2.6,2.7,2.6c1.5,0,2.7-1.2,2.7-2.6c0-1.5-1.2-2.7-2.7-2.7C65.5,1.4,64.3,2.5,64.3,4z M63.8,14.8
		c-0.8,0.7-1.9,1.3-3.3,1.4c2.6-0.9,3.2-2.3,3.3-3.6c-0.1-3.2-2.7-5-6.8-5c-3,0-5.3,1.1-6.9,3.4l2.8,2.4c1.2-1.3,2.5-2,4.2-2
		c1.4,0,2.1,0.4,2.1,1.3c0,1-0.9,1.2-3.2,1.4c-4.9,0.5-7,2.1-7,5.4c0,2.9,2.4,4.8,5.9,4.8c2.5,0,4.3-0.6,5.3-1.9v1.5h3.6v-5V14.8z
		 M55.6,20.4c-1.4,0-2.1-0.5-2.1-1.4c0-1.1,0.9-1.5,2.6-1.8c0.4-0.1,1.3-0.2,1.6-0.3l0.6-0.1c0.5-0.1,0.7-0.2,0.9-0.4v1.2
		C59.2,19.5,57.8,20.4,55.6,20.4z M46.3,5c-2-2-4.9-3.1-8.6-3.1h-8.3v22h8.4c3.8,0,6.6-1,8.6-3c2-2,3-4.7,3-8
		C49.3,9.6,48.3,7,46.3,5z M37.4,19.5h-3.2V6.3h3.2c2.6,0,4.4,0.6,5.5,1.8c1.1,1.2,1.6,2.8,1.6,4.9C44.5,17,42.6,19.5,37.4,19.5z"/>
	<g>
		<linearGradient id="SVGID_3_" gradientUnits="userSpaceOnUse" x1="12.9448" y1="0" x2="12.9448" y2="25.8901">
			<stop  offset="0" style="stop-color:#FFFFFF"/>
			<stop  offset="0.3505" style="stop-color:#EDEDED"/>
			<stop  offset="1" style="stop-color:#C2C2C2"/>
		</linearGradient>
		<path class="st2" d="M12.9,25.9C5.8,25.9,0,20.1,0,12.9C0,5.8,5.8,0,12.9,0s12.9,5.8,12.9,12.9C25.9,20.1,20.1,25.9,12.9,25.9z
			 M12.9,1.3C6.5,1.3,1.3,6.5,1.3,12.9s5.2,11.7,11.7,11.7s11.7-5.2,11.7-11.7S19.4,1.3,12.9,1.3z"/>
	</g>
	<path class="st4" d="M11.2,16.9c0-0.2,0-0.3,0-0.5C11.1,16.6,11.1,16.7,11.2,16.9z"/>
	<linearGradient id="SVGID_4_" gradientUnits="userSpaceOnUse" x1="13.0532" y1="5.4728" x2="13.0532" y2="20.1956">
		<stop  offset="0" style="stop-color:#00E2CF"/>
		<stop  offset="0.1745" style="stop-color:#06DCD0"/>
		<stop  offset="0.412" style="stop-color:#16CAD3"/>
		<stop  offset="0.6855" style="stop-color:#30AED8"/>
		<stop  offset="0.9841" style="stop-color:#5586E0"/>
		<stop  offset="1" style="stop-color:#5784E0"/>
	</linearGradient>
	<path style="fill:url(#SVGID_4_);" d="M20.2,15.7c0-0.1,0-0.2,0-0.4c0-2.2-1.4-4.1-3.4-4.9c-1-0.4-2-0.6-3-0.7
		c-0.9-0.2-1.8-0.6-2.6-0.9c-0.9-0.4-1.8-0.9-2.6-1.5C8.5,7.2,7.3,6.3,6.5,5.5c-2.2,3.8,1.7,7.4,4.7,8.4c-2.4-0.2-4.1-1.6-4.8-2.4
		c-0.3,1.7,1.3,4.1,4,5.2c-1.3-0.2-2.3-0.8-2.7-1.2c0,2.3,2.6,4.1,4.7,4.3c-1-1.4-1.5-3.3-0.7-4.9c0.5-0.9,1.4-1.6,2.4-1.8
		c1.7-0.3,3.6,1,3.3,2.9c0-1.2-1.1-2.1-2.2-2.3c-0.6-0.1-1.3,0-1.9,0.4c-0.4,0.3-0.7,0.8-0.9,1.2c-0.8,2.3,0.9,4.7,3.3,4.7
		c0.6,0,1.1-0.1,1.6-0.3c0,0,0,0,0,0C19,19.2,20.1,17.5,20.2,15.7z"/>
</g>
</svg>
