<?xml version="1.0" encoding="utf-8"?>
<!-- Generator: Adobe Illustrator 19.1.0, SVG Export Plug-In . SVG Version: 6.00 Build 0)  -->
<!DOCTYPE svg PUBLIC "-//W3C//DTD SVG 1.1//EN" "http://www.w3.org/Graphics/SVG/1.1/DTD/svg11.dtd">
<svg version="1.1" id="Layer_1" xmlns="http://www.w3.org/2000/svg" xmlns:xlink="http://www.w3.org/1999/xlink" x="0px" y="0px"
	 viewBox="0 0 54.7 18.3" style="enable-background:new 0 0 54.7 18.3;" xml:space="preserve">
<style type="text/css">
	.st0{fill:url(#SVGID_1_);}
	.st1{fill:url(#SVGID_2_);}
	.st2{fill:url(#SVGID_3_);}
	.st3{fill:none;stroke:url(#SVGID_4_);stroke-width:1.2845;stroke-miterlimit:10;}
	.st4{fill:#00E2CF;}
	.st5{fill:url(#SVGID_5_);}
	.st6{fill:url(#SVGID_6_);}
	.st7{fill:url(#SVGID_7_);}
	.st8{fill:url(#SVGID_8_);}
	.st9{fill:url(#SVGID_9_);}
	.st10{fill:url(#SVGID_10_);}
	.st11{fill:url(#SVGID_11_);}
	.st12{fill:url(#SVGID_12_);}
	.st13{fill:url(#SVGID_13_);}
	.st14{fill:url(#SVGID_14_);}
	.st15{fill:url(#SVGID_15_);}
	.st16{fill:url(#SVGID_16_);}
	.st17{fill:url(#SVGID_17_);}
	.st18{fill:url(#SVGID_18_);}
	.st19{fill:url(#SVGID_19_);}
	.st20{fill:url(#SVGID_20_);}
	.st21{fill:url(#SVGID_21_);}
	.st22{fill:url(#SVGID_22_);}
	.st23{fill:url(#SVGID_23_);}
	.st24{fill:url(#SVGID_24_);}
	.st25{fill:url(#SVGID_25_);}
	.st26{fill:url(#SVGID_26_);}
	.st27{fill:url(#SVGID_27_);}
	.st28{fill:url(#SVGID_28_);}
	.st29{fill:none;stroke:url(#SVGID_29_);stroke-width:1.2845;stroke-miterlimit:10;}
	.st30{fill:url(#SVGID_30_);}
	.st31{fill:url(#SVGID_31_);}
	.st32{fill:url(#SVGID_32_);}
	.st33{fill:url(#SVGID_33_);}
	.st34{fill:url(#SVGID_34_);}
	.st35{fill:url(#SVGID_35_);}
	.st36{fill:url(#SVGID_36_);}
	.st37{fill:url(#SVGID_37_);}
	.st38{fill:url(#SVGID_38_);}
	.st39{fill:url(#SVGID_39_);}
	.st40{fill:url(#SVGID_40_);}
	.st41{fill:url(#SVGID_41_);}
	.st42{fill:url(#SVGID_42_);}
	.st43{fill:url(#SVGID_43_);}
	.st44{fill:url(#SVGID_44_);}
	.st45{fill:url(#SVGID_45_);}
	.st46{fill:url(#SVGID_46_);}
	.st47{fill:url(#SVGID_47_);}
	.st48{fill:url(#SVGID_48_);}
	.st49{fill:url(#SVGID_49_);}
	.st50{fill:#FFFFFF;}
	.st51{fill:url(#SVGID_50_);}
	.st52{fill:url(#SVGID_51_);}
	.st53{fill:url(#SVGID_52_);}
	.st54{fill:url(#SVGID_53_);}
	.st55{fill:url(#SVGID_54_);}
	.st56{fill:url(#SVGID_55_);}
	.st57{fill:url(#SVGID_56_);}
	.st58{fill:url(#SVGID_57_);}
	.st59{fill:url(#SVGID_58_);}
	.st60{fill:url(#SVGID_59_);}
	.st61{fill:url(#SVGID_60_);}
	.st62{fill:none;stroke:url(#SVGID_61_);stroke-width:1.2845;stroke-miterlimit:10;}
	.st63{fill:url(#SVGID_62_);}
	.st64{fill:url(#SVGID_63_);}
	.st65{fill:url(#SVGID_64_);}
	.st66{fill:url(#SVGID_65_);}
	.st67{fill:url(#SVGID_66_);}
	.st68{fill:url(#SVGID_67_);}
	.st69{fill:url(#SVGID_68_);}
	.st70{fill:url(#SVGID_69_);}
	.st71{fill:url(#SVGID_70_);}
	.st72{fill:url(#SVGID_71_);}
	.st73{fill:url(#SVGID_72_);}
	.st74{fill:url(#SVGID_73_);}
	.st75{fill:url(#SVGID_74_);}
	.st76{fill:url(#SVGID_75_);}
	.st77{fill:url(#SVGID_76_);}
	.st78{fill:url(#SVGID_77_);}
	.st79{fill:url(#SVGID_78_);}
	.st80{fill:url(#SVGID_79_);}
	.st81{fill:url(#SVGID_80_);}
	.st82{fill:url(#SVGID_81_);}
	.st83{fill:url(#SVGID_82_);}
	.st84{fill:url(#SVGID_83_);}
	.st85{fill:url(#SVGID_84_);}
	.st86{fill:url(#SVGID_85_);}
	.st87{fill:url(#SVGID_86_);}
	.st88{fill:url(#SVGID_87_);}
	.st89{fill:url(#SVGID_88_);}
	.st90{fill:url(#SVGID_89_);}
	.st91{fill:url(#SVGID_90_);}
	.st92{fill:url(#SVGID_91_);}
	.st93{fill:url(#SVGID_92_);}
	.st94{fill:url(#SVGID_93_);}
	.st95{fill:url(#SVGID_94_);}
	.st96{fill:url(#SVGID_95_);}
	.st97{fill:url(#SVGID_96_);}
	.st98{fill:url(#SVGID_97_);}
	.st99{fill:url(#SVGID_98_);}
	.st100{fill:url(#SVGID_99_);}
	.st101{fill:url(#SVGID_100_);}
	.st102{fill:url(#SVGID_101_);}
	.st103{fill:url(#SVGID_102_);}
	.st104{fill:url(#SVGID_103_);}
	.st105{fill:url(#SVGID_104_);}
	.st106{fill:url(#SVGID_105_);}
	.st107{fill:url(#SVGID_106_);}
	.st108{fill:none;stroke:url(#SVGID_107_);stroke-width:1.2845;stroke-miterlimit:10;}
	.st109{fill:url(#SVGID_108_);}
	.st110{fill:url(#SVGID_109_);}
	.st111{fill:url(#SVGID_110_);}
	.st112{fill:url(#SVGID_111_);}
	.st113{fill:url(#SVGID_112_);}
	.st114{fill:url(#SVGID_113_);}
	.st115{fill:url(#SVGID_114_);}
	.st116{fill:url(#SVGID_115_);}
	.st117{fill:url(#SVGID_116_);}
	.st118{fill:url(#SVGID_117_);}
	.st119{fill:url(#SVGID_118_);}
	.st120{fill:url(#SVGID_119_);}
	.st121{fill:url(#SVGID_120_);}
	.st122{fill:url(#SVGID_121_);}
	.st123{fill:url(#SVGID_122_);}
	.st124{fill:url(#SVGID_123_);}
	.st125{fill:url(#SVGID_124_);}
	.st126{fill:url(#SVGID_125_);}
	.st127{fill:url(#SVGID_126_);}
	.st128{fill:url(#SVGID_127_);}
	.st129{fill:url(#SVGID_128_);}
	.st130{fill:url(#SVGID_129_);}
	.st131{fill:url(#SVGID_130_);}
	.st132{fill:url(#SVGID_131_);}
	.st133{fill:url(#SVGID_132_);}
	.st134{fill:url(#SVGID_133_);}
	.st135{fill:url(#SVGID_134_);}
	.st136{fill:url(#SVGID_135_);}
	.st137{fill:url(#SVGID_136_);}
	.st138{fill:url(#SVGID_137_);}
	.st139{fill:url(#SVGID_138_);}
	.st140{fill:url(#SVGID_139_);}
	.st141{fill:url(#SVGID_140_);}
	.st142{fill:url(#SVGID_141_);}
	.st143{fill:none;stroke:url(#SVGID_142_);stroke-width:1.2845;stroke-miterlimit:10;}
	.st144{fill:url(#SVGID_143_);}
	.st145{fill:url(#SVGID_144_);}
	.st146{fill:url(#SVGID_145_);}
	.st147{fill:url(#SVGID_146_);}
	.st148{fill:url(#SVGID_147_);}
	.st149{fill:url(#SVGID_148_);}
	.st150{fill:url(#SVGID_149_);}
	.st151{fill:url(#SVGID_150_);}
	.st152{fill:url(#SVGID_151_);}
	.st153{fill:url(#SVGID_152_);}
	.st154{fill:url(#SVGID_153_);}
	.st155{fill:url(#SVGID_154_);}
	.st156{fill:url(#SVGID_155_);}
	.st157{fill:url(#SVGID_156_);}
	.st158{fill:url(#SVGID_157_);}
	.st159{fill:url(#SVGID_158_);}
	.st160{fill:url(#SVGID_159_);}
	.st161{fill:url(#SVGID_160_);}
	.st162{fill:url(#SVGID_161_);}
	.st163{fill:url(#SVGID_162_);}
	.st164{fill:url(#SVGID_163_);}
	.st165{fill:url(#SVGID_164_);}
	.st166{fill:none;stroke:url(#SVGID_165_);stroke-width:1.2845;stroke-miterlimit:10;}
	.st167{fill:url(#SVGID_166_);}
	.st168{fill:url(#SVGID_167_);}
	.st169{fill:url(#SVGID_168_);}
	.st170{fill:url(#SVGID_169_);}
	.st171{fill:url(#SVGID_170_);}
	.st172{fill:url(#SVGID_171_);}
	.st173{fill:url(#SVGID_172_);}
	.st174{fill:url(#SVGID_173_);}
	.st175{fill:url(#SVGID_174_);}
	.st176{fill:url(#SVGID_175_);}
	.st177{fill:url(#SVGID_176_);}
	.st178{fill:url(#SVGID_177_);}
	.st179{fill:url(#SVGID_178_);}
	.st180{fill:url(#SVGID_179_);}
	.st181{fill:url(#SVGID_180_);}
	.st182{fill:url(#SVGID_181_);}
	.st183{fill:none;}
	.st184{fill:#939393;}
	.st185{fill:#231F20;}
	.st186{fill:#6CBD4D;}
	.st187{fill:#E81A1A;}
	.st188{fill:#00B3DD;}
	.st189{fill:url(#SVGID_182_);}
	.st190{fill:url(#SVGID_183_);}
	.st191{fill:url(#SVGID_184_);}
	.st192{fill:url(#SVGID_185_);}
	.st193{fill:url(#SVGID_186_);}
	.st194{fill:url(#SVGID_187_);}
	.st195{fill:url(#SVGID_188_);}
	.st196{fill:url(#SVGID_189_);}
	.st197{fill:url(#SVGID_190_);}
	.st198{fill:url(#SVGID_191_);}
	.st199{fill:url(#SVGID_192_);}
	.st200{fill:url(#SVGID_193_);}
	.st201{fill:url(#SVGID_194_);}
	.st202{fill:url(#SVGID_195_);}
	.st203{fill:url(#SVGID_196_);}
	.st204{fill:url(#SVGID_197_);}
	.st205{fill:url(#SVGID_198_);}
	.st206{fill:url(#SVGID_199_);}
	.st207{fill:url(#SVGID_200_);}
	.st208{fill:url(#SVGID_201_);}
	.st209{fill:url(#SVGID_202_);}
	.st210{fill:url(#SVGID_203_);}
	.st211{fill:url(#SVGID_204_);}
	.st212{fill:url(#SVGID_205_);}
	.st213{fill:url(#SVGID_206_);}
	.st214{fill:url(#SVGID_207_);}
	.st215{fill:url(#SVGID_208_);}
	.st216{fill:url(#SVGID_209_);}
	.st217{fill:url(#SVGID_210_);}
	.st218{fill:url(#SVGID_211_);}
	.st219{fill:url(#SVGID_212_);}
	.st220{fill:url(#SVGID_213_);}
	.st221{fill:url(#SVGID_214_);}
	.st222{fill:url(#SVGID_215_);}
	.st223{fill:url(#SVGID_216_);}
	.st224{fill:url(#SVGID_217_);}
	.st225{fill:url(#SVGID_218_);}
	.st226{fill:url(#SVGID_219_);}
	.st227{fill:url(#SVGID_220_);}
	.st228{fill:url(#SVGID_221_);}
	.st229{fill:url(#SVGID_222_);}
	.st230{fill:url(#SVGID_223_);}
	.st231{fill:none;stroke:url(#SVGID_224_);stroke-width:1.2845;stroke-miterlimit:10;}
	.st232{fill:url(#SVGID_225_);}
	.st233{fill:url(#SVGID_226_);}
	.st234{fill:url(#SVGID_227_);}
	.st235{fill:url(#SVGID_228_);}
	.st236{fill:url(#SVGID_229_);}
	.st237{fill:url(#SVGID_230_);}
	.st238{fill:url(#SVGID_231_);}
	.st239{fill:url(#SVGID_232_);}
	.st240{fill:url(#SVGID_233_);}
	.st241{fill:url(#SVGID_234_);}
	.st242{fill:url(#SVGID_235_);}
	.st243{fill:url(#SVGID_236_);}
	.st244{fill:url(#SVGID_237_);}
	.st245{fill:url(#SVGID_238_);}
	.st246{fill:url(#SVGID_239_);}
	.st247{fill:url(#SVGID_240_);}
	.st248{fill:url(#SVGID_241_);}
	.st249{fill:url(#SVGID_242_);}
	.st250{fill:url(#SVGID_243_);}
	.st251{fill:url(#SVGID_244_);}
	.st252{fill:url(#SVGID_245_);}
	.st253{fill:url(#SVGID_246_);}
	.st254{fill:url(#SVGID_247_);}
	.st255{fill:url(#SVGID_248_);}
	.st256{fill:url(#SVGID_249_);}
	.st257{fill:url(#SVGID_250_);}
	.st258{fill:url(#SVGID_251_);}
	.st259{fill:url(#SVGID_252_);}
	.st260{fill:url(#SVGID_253_);}
	.st261{fill:url(#SVGID_254_);}
	.st262{fill:url(#SVGID_255_);}
	.st263{fill:url(#SVGID_256_);}
	.st264{fill:url(#SVGID_257_);}
	.st265{fill:url(#SVGID_258_);}
	.st266{fill:url(#SVGID_259_);}
	.st267{fill:url(#SVGID_260_);}
	.st268{fill:url(#SVGID_261_);}
	.st269{fill:url(#SVGID_262_);}
	.st270{fill:url(#SVGID_263_);}
	.st271{fill:url(#SVGID_264_);}
	.st272{fill:url(#SVGID_265_);}
	.st273{fill:url(#SVGID_266_);}
	.st274{fill:url(#SVGID_267_);}
	.st275{fill:url(#SVGID_268_);}
	.st276{fill:url(#SVGID_269_);}
	.st277{fill:url(#SVGID_270_);}
	.st278{fill:url(#SVGID_271_);}
	.st279{fill:url(#SVGID_272_);}
	.st280{fill:url(#SVGID_273_);}
	.st281{fill:url(#SVGID_274_);}
	.st282{fill:url(#SVGID_275_);}
	.st283{fill:url(#SVGID_276_);}
	.st284{fill:url(#SVGID_277_);}
	.st285{fill:url(#SVGID_278_);}
	.st286{fill:url(#SVGID_279_);}
	.st287{fill:url(#SVGID_280_);}
	.st288{fill:url(#SVGID_281_);}
	.st289{fill:url(#SVGID_282_);}
	.st290{fill:url(#SVGID_283_);}
	.st291{fill:url(#SVGID_284_);}
	.st292{fill:url(#SVGID_285_);}
	.st293{fill:url(#SVGID_286_);}
	.st294{fill:url(#SVGID_287_);}
	.st295{fill:url(#SVGID_288_);}
	.st296{fill:url(#SVGID_289_);}
	.st297{fill:url(#SVGID_290_);}
	.st298{fill:url(#SVGID_291_);}
	.st299{fill:url(#SVGID_292_);}
	.st300{fill:url(#SVGID_293_);}
	.st301{fill:url(#SVGID_294_);}
	.st302{fill:url(#SVGID_295_);}
	.st303{fill:url(#SVGID_296_);}
	.st304{fill:url(#SVGID_297_);}
	.st305{fill:url(#SVGID_298_);}
	.st306{fill:url(#SVGID_299_);}
	.st307{fill:url(#SVGID_300_);}
	.st308{fill:url(#SVGID_301_);}
	.st309{fill:url(#SVGID_302_);}
	.st310{fill:url(#SVGID_303_);}
	.st311{fill:url(#SVGID_304_);}
	.st312{fill:url(#SVGID_305_);}
	.st313{fill:url(#SVGID_306_);}
	.st314{fill:url(#SVGID_307_);}
	.st315{fill:url(#SVGID_308_);}
	.st316{fill:none;stroke:url(#SVGID_309_);stroke-width:1.2845;stroke-miterlimit:10;}
	.st317{fill:url(#SVGID_310_);}
	.st318{fill:url(#SVGID_311_);}
	.st319{fill:url(#SVGID_312_);}
	.st320{fill:url(#SVGID_313_);}
	.st321{fill:url(#SVGID_314_);}
	.st322{fill:url(#SVGID_315_);}
	.st323{fill:url(#SVGID_316_);}
	.st324{fill:url(#SVGID_317_);}
	.st325{fill:url(#SVGID_318_);}
	.st326{fill:url(#SVGID_319_);}
	.st327{fill:url(#SVGID_320_);}
	.st328{fill:url(#SVGID_321_);}
	.st329{fill:url(#SVGID_322_);}
	.st330{fill:url(#SVGID_323_);}
	.st331{fill:url(#SVGID_324_);}
	.st332{fill:url(#SVGID_325_);}
	.st333{fill:url(#SVGID_326_);}
	.st334{fill:url(#SVGID_327_);}
	.st335{fill:url(#SVGID_328_);}
	.st336{fill:url(#SVGID_329_);}
	.st337{fill:url(#SVGID_330_);}
	.st338{fill:url(#SVGID_331_);}
	.st339{fill:url(#SVGID_332_);}
	.st340{fill:url(#SVGID_333_);}
	.st341{fill:url(#SVGID_334_);}
	.st342{fill:url(#SVGID_335_);}
	.st343{fill:url(#SVGID_336_);}
	.st344{fill:url(#SVGID_337_);}
	.st345{fill:url(#SVGID_338_);}
	.st346{fill:url(#SVGID_339_);}
	.st347{fill:url(#SVGID_340_);}
	.st348{fill:url(#SVGID_341_);}
	.st349{fill:url(#SVGID_342_);}
</style>
<linearGradient id="SVGID_1_" gradientUnits="userSpaceOnUse" x1="27.3466" y1="5.123944e-06" x2="27.3466" y2="18.3348">
	<stop  offset="0" style="stop-color:#FFFFFF"/>
	<stop  offset="0.3505" style="stop-color:#EDEDED"/>
	<stop  offset="1" style="stop-color:#C2C2C2"/>
</linearGradient>
<path class="st0" d="M5.6,2C5.3,1.9,5,1.9,4.7,1.9c-1.6,0-1.9,0.9-2.1,2.3L2.1,7.1H0l1-6.9h2.1L2.9,1.3h0C3.5,0.4,4.2,0,5.1,0
	c0.2,0,0.5,0,0.7,0.1L5.6,2z M11.7,3.6l-0.5,3.5h-2l0.1-0.9h0c-0.6,0.7-1.5,1-2.3,1c-1.3,0-2.4-0.7-2.2-2.1c0.3-2.4,3.2-2.4,5-2.4
	C10,1.9,9.4,1.4,8.7,1.4C8,1.4,7.4,1.8,6.8,2.3l-1-1.2C6.7,0.4,7.9,0,9.1,0C11.5,0,12,1.3,11.7,3.6z M9.7,4H9.2C8.5,4,7,4.1,6.9,5
	C6.8,5.6,7.4,5.8,7.8,5.8c0.8,0,1.7-0.4,1.8-1.3L9.7,4z M19.5,0.2h-2.1l-2.3,4.7h0L14,0.2h-2.3l1.9,6.9h2.3L19.5,0.2z M22.8,0
	c2,0,3,1.4,2.7,3.6l-0.1,0.7h-4.9c0.1,0.8,0.6,1.3,1.4,1.3c0.7,0,1.2-0.4,1.6-0.8l1.3,1.1c-0.8,0.9-2,1.4-3.1,1.4
	c-2.1,0-3.6-1.4-3.3-3.6C18.8,1.4,20.7,0,22.8,0z M20.7,2.8h2.8c0.1-0.7-0.4-1.3-1.1-1.3C21.4,1.5,20.8,2.2,20.7,2.8z M27.6,7.1
	L28,4.2c0.2-1.4,0.5-2.3,2.1-2.3c0.3,0,0.6,0.1,0.9,0.1l0.3-1.9C31.1,0,30.9,0,30.6,0c-0.9,0-1.6,0.4-2.2,1.3h0l0.2-1.1h-2.1l-1,6.9
	H27.6z M20.9,7.9c-0.2-0.1-0.5-0.1-0.7-0.1c-0.9,0-1.6,0.4-2.2,1.3h0L18.1,8H16l-1,6.9h2.1l0.4-2.9c0.2-1.4,0.5-2.3,2.1-2.3
	c0.3,0,0.6,0.1,0.9,0.1L20.9,7.9z M26.7,11.4l-0.5,3.5h-2l0.1-0.9h0c-0.6,0.7-1.5,1-2.3,1c-1.3,0-2.4-0.7-2.2-2.1
	c0.3-2.4,3.2-2.4,5-2.4c0.1-0.8-0.5-1.2-1.2-1.2c-0.7,0-1.3,0.3-1.8,0.8l-1-1.2c0.9-0.7,2.1-1.1,3.2-1.1
	C26.6,7.9,27.1,9.1,26.7,11.4z M24.7,11.9h-0.5c-0.7,0-2.1,0.1-2.2,1c-0.1,0.5,0.4,0.8,0.9,0.8c0.8,0,1.7-0.4,1.8-1.3L24.7,11.9z
	 M34.6,12L35,9.7h1.9L37.1,8h-1.9l0.3-2h-2.1l-0.3,2h-0.7h-0.7h-0.9L31,6.9c0.1-0.9,0.5-1.1,1.2-1.1c0.3,0,0.4,0.1,0.7,0.1l0.4-1.8
	C32.8,4,32.4,4,32,4c-2.3,0-2.9,1.3-3.1,2.8L28.7,8h-1.4l-0.2,1.7h1.4l-0.7,5.2h2.1l0.7-5.2h0.9h0.7h0.7L32.4,13
	c-0.2,1.5,0.8,2.1,2.2,2.1c0.5,0,1,0,1.5-0.2l0.2-1.8c-0.2,0.2-0.7,0.2-0.9,0.2C34.6,13.3,34.5,12.8,34.6,12z M38.8,7.1
	c0.7,0,1.3-0.6,1.4-1.2c0.1-0.7-0.4-1.2-1.1-1.2c-0.7,0-1.3,0.6-1.4,1.2C37.7,6.5,38.1,7.1,38.8,7.1z M37.6,8l-1,6.9h2.1l1-6.9H37.6
	z M44.3,7.9c-1,0-1.8,0.6-2.2,1.1h0L42.2,8h-2l-1,6.9h2.1l0.5-3.4c0.1-0.9,0.4-1.8,1.5-1.8c1.1,0,1,1,0.9,1.8l-0.5,3.4h2.1l0.5-3.8
	C46.6,9.3,46.4,7.9,44.3,7.9z M54.7,8l-0.9,6.3c-0.4,2.6-1.9,4-4.6,4c-1.2,0-2.4-0.2-3.3-1l1.4-1.8c0.6,0.6,1.3,0.9,2.1,0.9
	c1.3,0,2-0.7,2.1-1.7l0.1-0.7h0c-0.6,0.7-1.4,0.9-2.1,0.9c-2,0-3.2-1.5-2.9-3.6c0.3-1.8,1.7-3.6,3.7-3.6c1.2,0,1.9,0.6,2.2,1.1h0
	L52.7,8H54.7z M50.8,9.7c-1,0-1.8,0.8-1.9,1.7c-0.1,0.9,0.5,1.7,1.5,1.7c1,0,1.8-0.8,1.9-1.7C52.4,10.5,51.8,9.7,50.8,9.7z"/>
</svg>
