<svg id="Layer_1" data-name="Layer 1" xmlns="http://www.w3.org/2000/svg" xmlns:xlink="http://www.w3.org/1999/xlink" viewBox="0 0 28.75 29.39"><defs><style>.cls-1{fill:none;}.cls-2{clip-path:url(#clip-path);}.cls-3{fill:#fff;}.cls-4{fill:#fefefe;}.cls-5{fill:#fdfdfd;}.cls-6{fill:#fcfcfc;}.cls-7{fill:#fbfbfb;}.cls-8{fill:#fafafa;}.cls-9{fill:#f9f9f9;}.cls-10{fill:#f8f8f8;}.cls-11{fill:#f7f7f7;}.cls-12{fill:#f6f6f6;}.cls-13{fill:#f5f5f5;}.cls-14{fill:#f4f4f4;}.cls-15{fill:#f3f3f3;}.cls-16{fill:#f2f2f2;}.cls-17{fill:#f1f1f1;}.cls-18{fill:#f0f0f0;}.cls-19{fill:#efefef;}.cls-20{fill:#eee;}.cls-21{fill:#ededed;}.cls-22{fill:#ececec;}.cls-23{fill:#ebebeb;}.cls-24{fill:#eaeaea;}.cls-25{fill:#e9e9e9;}.cls-26{fill:#e8e8e8;}.cls-27{fill:#e7e7e7;}.cls-28{fill:#e6e6e6;}.cls-29{fill:#e5e5e5;}.cls-30{fill:#e4e4e4;}.cls-31{fill:#e3e3e3;}.cls-32{fill:#e2e2e2;}.cls-33{fill:#e1e1e1;}.cls-34{fill:#dfdfdf;}.cls-35{fill:#dedede;}.cls-36{fill:#ddd;}.cls-37{fill:#dcdcdc;}.cls-38{fill:#dbdbdb;}.cls-39{fill:#dadada;}.cls-40{fill:#d9d9d9;}.cls-41{fill:#d8d8d8;}.cls-42{fill:#d7d7d7;}.cls-43{fill:#d6d6d6;}.cls-44{fill:#d4d4d4;}.cls-45{fill:#d3d3d3;}.cls-46{fill:#d2d2d2;}.cls-47{fill:#d1d1d1;}.cls-48{fill:#d0d0d0;}.cls-49{fill:#cfcfcf;}.cls-50{fill:#cecece;}.cls-51{fill:#cdcdcd;}.cls-52{fill:#cbcbcb;}.cls-53{fill:#cacaca;}.cls-54{fill:#c9c9c9;}.cls-55{fill:#c8c8c8;}.cls-56{fill:#c7c7c7;}.cls-57{fill:#c6c6c6;}.cls-58{fill:#c4c4c4;}.cls-59{fill:#c3c3c3;}.cls-60{fill:#c2c2c2;}.cls-61{clip-path:url(#clip-path-2);}.cls-62{fill:#00e2cf;}.cls-63{fill:#01e1cf;}.cls-64{fill:#02e0cf;}.cls-65{fill:#03dfd0;}.cls-66{fill:#04ded0;}.cls-67{fill:#05ddd0;}.cls-68{fill:#06dcd0;}.cls-69{fill:#06dbd0;}.cls-70{fill:#07dbd0;}.cls-71{fill:#07dad0;}.cls-72{fill:#08d9d1;}.cls-73{fill:#09d9d1;}.cls-74{fill:#09d8d1;}.cls-75{fill:#0ad7d1;}.cls-76{fill:#0bd7d1;}.cls-77{fill:#0bd6d1;}.cls-78{fill:#0cd5d1;}.cls-79{fill:#0dd4d1;}.cls-80{fill:#0dd4d2;}.cls-81{fill:#0ed3d2;}.cls-82{fill:#0fd2d2;}.cls-83{fill:#10d1d2;}.cls-84{fill:#10d0d2;}.cls-85{fill:#11cfd2;}.cls-86{fill:#12ced3;}.cls-87{fill:#13ced3;}.cls-88{fill:#14cdd3;}.cls-89{fill:#15ccd3;}.cls-90{fill:#16cbd3;}.cls-91{fill:#16cad3;}.cls-92{fill:#17c9d4;}.cls-93{fill:#18c8d4;}.cls-94{fill:#19c7d4;}.cls-95{fill:#1ac6d4;}.cls-96{fill:#1bc5d4;}.cls-97{fill:#1cc4d4;}.cls-98{fill:#1dc3d5;}.cls-99{fill:#1ec2d5;}.cls-100{fill:#1fc1d5;}.cls-101{fill:#20bfd5;}.cls-102{fill:#21bed5;}.cls-103{fill:#22bdd6;}.cls-104{fill:#23bcd6;}.cls-105{fill:#24bbd6;}.cls-106{fill:#25bad6;}.cls-107{fill:#26b9d6;}.cls-108{fill:#27b7d7;}.cls-109{fill:#29b6d7;}.cls-110{fill:#2ab5d7;}.cls-111{fill:#2bb4d7;}.cls-112{fill:#2cb3d8;}.cls-113{fill:#2db1d8;}.cls-114{fill:#2eb0d8;}.cls-115{fill:#2fafd8;}.cls-116{fill:#31aed8;}.cls-117{fill:#32acd9;}.cls-118{fill:#33abd9;}.cls-119{fill:#34aad9;}.cls-120{fill:#35a8d9;}.cls-121{fill:#37a7da;}.cls-122{fill:#38a6da;}.cls-123{fill:#39a4da;}.cls-124{fill:#3aa3da;}.cls-125{fill:#3ca2db;}.cls-126{fill:#3da0db;}.cls-127{fill:#3e9fdb;}.cls-128{fill:#3f9ddb;}.cls-129{fill:#419cdc;}.cls-130{fill:#429bdc;}.cls-131{fill:#4399dc;}.cls-132{fill:#4598dc;}.cls-133{fill:#4696dd;}.cls-134{fill:#4795dd;}.cls-135{fill:#4993dd;}.cls-136{fill:#4a92de;}.cls-137{fill:#4c90de;}.cls-138{fill:#4d8fde;}.cls-139{fill:#4e8dde;}.cls-140{fill:#508cdf;}.cls-141{fill:#518adf;}.cls-142{fill:#5389df;}.cls-143{fill:#5487df;}.cls-144{fill:#5686e0;}.cls-145{fill:#5784e0;}</style><clipPath id="clip-path" transform="translate(-1106.1 0)"><path class="cls-1" d="M1118.64,16h2.46a1.39,1.39,0,0,1,1.52,1.37,1.42,1.42,0,0,1-1.49,1.43h-2.49V16Zm0-5.35h1.94a1.24,1.24,0,0,1,1.24,1.29,1.23,1.23,0,0,1-1.24,1.33h-1.94V10.6Zm-2.05-3.24a2,2,0,0,0-1.95,1.95V20.09a2,2,0,0,0,1.95,1.95H1122a4.35,4.35,0,0,0,3.18-1.22,4.13,4.13,0,0,0,1.28-3.12,3.48,3.48,0,0,0-2.95-3.64,3,3,0,0,0,1.87-2.95,3.49,3.49,0,0,0-1.14-2.67,3.92,3.92,0,0,0-2.8-1.07h-4.87Z"/></clipPath><clipPath id="clip-path-2" transform="translate(-1106.1 0)"><path class="cls-1" d="M1126.39,0h-13.28a7,7,0,0,0-7,7V22.38a7,7,0,0,0,7,7h4.26a1.57,1.57,0,0,0,1.58-1.58,1.6,1.6,0,0,0-1.58-1.58h-4.26a3.84,3.84,0,0,1-3.84-3.84V7a3.84,3.84,0,0,1,3.84-3.84h14.73A3.84,3.84,0,0,1,1131.68,7V22.38a3.84,3.84,0,0,1-3.84,3.84h-4.26a1.58,1.58,0,0,0,0,3.16h4.26a7,7,0,0,0,7-7V7a7,7,0,0,0-7-7h-1.45Z"/></clipPath></defs><title>DB_BeatsXtraPlayerMockup2</title><g class="cls-2"><polygon class="cls-3" points="10.49 7.36 8.55 7.36 8.55 7.36 10.49 7.36"/><polygon class="cls-3" points="20.38 7.6 8.55 7.6 8.55 7.36 10.49 7.36 20.38 7.36 20.38 7.6"/><rect class="cls-4" x="8.55" y="7.6" width="11.83" height="0.24"/><rect class="cls-4" x="8.55" y="7.84" width="11.83" height="0.24"/><rect class="cls-5" x="8.55" y="8.08" width="11.83" height="0.24"/><rect class="cls-6" x="8.55" y="8.32" width="11.83" height="0.24"/><rect class="cls-6" x="8.55" y="8.56" width="11.83" height="0.24"/><rect class="cls-7" x="8.55" y="8.8" width="11.83" height="0.24"/><rect class="cls-8" x="8.55" y="9.04" width="11.83" height="0.24"/><rect class="cls-9" x="8.55" y="9.28" width="11.83" height="0.24"/><rect class="cls-10" x="8.55" y="9.52" width="11.83" height="0.24"/><rect class="cls-11" x="8.55" y="9.76" width="11.83" height="0.24"/><rect class="cls-11" x="8.55" y="10.01" width="11.83" height="0.24"/><rect class="cls-12" x="8.55" y="10.25" width="11.83" height="0.24"/><rect class="cls-13" x="8.55" y="10.49" width="11.83" height="0.24"/><rect class="cls-14" x="8.55" y="10.73" width="11.83" height="0.24"/><rect class="cls-15" x="8.55" y="10.97" width="11.83" height="0.24"/><rect class="cls-16" x="8.55" y="11.21" width="11.83" height="0.24"/><rect class="cls-17" x="8.55" y="11.45" width="11.83" height="0.24"/><rect class="cls-18" x="8.55" y="11.69" width="11.83" height="0.24"/><rect class="cls-19" x="8.55" y="11.93" width="11.83" height="0.24"/><rect class="cls-20" x="8.55" y="12.17" width="11.83" height="0.24"/><rect class="cls-21" x="8.55" y="12.41" width="11.83" height="0.24"/><rect class="cls-22" x="8.55" y="12.65" width="11.83" height="0.24"/><rect class="cls-23" x="8.55" y="12.89" width="11.83" height="0.24"/><rect class="cls-24" x="8.55" y="13.13" width="11.83" height="0.24"/><rect class="cls-25" x="8.55" y="13.37" width="11.83" height="0.24"/><rect class="cls-26" x="8.55" y="13.61" width="11.83" height="0.24"/><rect class="cls-27" x="8.55" y="13.85" width="11.83" height="0.24"/><rect class="cls-28" x="8.55" y="14.1" width="11.83" height="0.24"/><rect class="cls-29" x="8.55" y="14.34" width="11.83" height="0.24"/><rect class="cls-30" x="8.55" y="14.58" width="11.83" height="0.24"/><rect class="cls-31" x="8.55" y="14.82" width="11.83" height="0.24"/><rect class="cls-32" x="8.55" y="15.06" width="11.83" height="0.24"/><rect class="cls-33" x="8.55" y="15.3" width="11.83" height="0.24"/><rect class="cls-34" x="8.55" y="15.54" width="11.83" height="0.24"/><rect class="cls-35" x="8.55" y="15.78" width="11.83" height="0.24"/><rect class="cls-36" x="8.55" y="16.02" width="11.83" height="0.24"/><rect class="cls-37" x="8.55" y="16.26" width="11.83" height="0.24"/><rect class="cls-38" x="8.55" y="16.5" width="11.83" height="0.24"/><rect class="cls-39" x="8.55" y="16.74" width="11.83" height="0.24"/><rect class="cls-40" x="8.55" y="16.98" width="11.83" height="0.24"/><rect class="cls-41" x="8.55" y="17.22" width="11.83" height="0.24"/><rect class="cls-42" x="8.55" y="17.46" width="11.83" height="0.24"/><rect class="cls-43" x="8.55" y="17.7" width="11.83" height="0.24"/><rect class="cls-44" x="8.55" y="17.94" width="11.83" height="0.24"/><rect class="cls-45" x="8.55" y="18.19" width="11.83" height="0.24"/><rect class="cls-46" x="8.55" y="18.43" width="11.83" height="0.24"/><rect class="cls-47" x="8.55" y="18.67" width="11.83" height="0.24"/><rect class="cls-48" x="8.55" y="18.91" width="11.83" height="0.24"/><rect class="cls-49" x="8.55" y="19.15" width="11.83" height="0.24"/><rect class="cls-50" x="8.55" y="19.39" width="11.83" height="0.24"/><rect class="cls-51" x="8.55" y="19.63" width="11.83" height="0.24"/><rect class="cls-52" x="8.55" y="19.87" width="11.83" height="0.24"/><rect class="cls-53" x="8.55" y="20.11" width="11.83" height="0.24"/><rect class="cls-54" x="8.55" y="20.35" width="11.83" height="0.24"/><rect class="cls-55" x="8.55" y="20.59" width="11.83" height="0.24"/><rect class="cls-56" x="8.55" y="20.83" width="11.83" height="0.24"/><rect class="cls-57" x="8.55" y="21.07" width="11.83" height="0.24"/><rect class="cls-58" x="8.55" y="21.31" width="11.83" height="0.24"/><rect class="cls-59" x="8.55" y="21.55" width="11.83" height="0.24"/><polygon class="cls-60" points="20.38 22.04 15.9 22.04 8.55 22.04 8.55 21.79 20.38 21.79 20.38 22.04"/><polygon class="cls-60" points="15.9 22.04 20.38 22.04 20.38 22.04 15.9 22.04"/><rect class="cls-13" x="12.55" y="10.6" width="3.18" height="0.13"/><rect class="cls-14" x="12.55" y="10.73" width="3.18" height="0.24"/><rect class="cls-15" x="12.55" y="10.97" width="3.18" height="0.24"/><rect class="cls-16" x="12.55" y="11.21" width="3.18" height="0.24"/><rect class="cls-17" x="12.55" y="11.45" width="3.18" height="0.24"/><rect class="cls-18" x="12.55" y="11.69" width="3.18" height="0.24"/><rect class="cls-19" x="12.55" y="11.93" width="3.18" height="0.24"/><rect class="cls-20" x="12.55" y="12.17" width="3.18" height="0.24"/><rect class="cls-21" x="12.55" y="12.41" width="3.18" height="0.24"/><rect class="cls-22" x="12.55" y="12.65" width="3.18" height="0.24"/><rect class="cls-23" x="12.55" y="12.89" width="3.18" height="0.24"/><rect class="cls-24" x="12.55" y="13.13" width="3.18" height="0.08"/><rect class="cls-35" x="12.55" y="15.95" width="3.98" height="0.07"/><rect class="cls-36" x="12.55" y="16.02" width="3.98" height="0.24"/><rect class="cls-37" x="12.55" y="16.26" width="3.98" height="0.24"/><rect class="cls-38" x="12.55" y="16.5" width="3.98" height="0.24"/><rect class="cls-39" x="12.55" y="16.74" width="3.98" height="0.24"/><rect class="cls-40" x="12.55" y="16.98" width="3.98" height="0.24"/><rect class="cls-41" x="12.55" y="17.22" width="3.98" height="0.24"/><rect class="cls-42" x="12.55" y="17.46" width="3.98" height="0.24"/><rect class="cls-43" x="12.55" y="17.7" width="3.98" height="0.24"/><rect class="cls-44" x="12.55" y="17.94" width="3.98" height="0.24"/><rect class="cls-45" x="12.55" y="18.19" width="3.98" height="0.24"/><rect class="cls-46" x="12.55" y="18.43" width="3.98" height="0.24"/><rect class="cls-47" x="12.55" y="18.67" width="3.98" height="0.08"/></g><g class="cls-61"><path class="cls-62" d="M1106.1,0V0Z" transform="translate(-1106.1 0)"/><rect class="cls-62" width="0.31" height="29.39"/><rect class="cls-62" x="0.31" width="0.31" height="29.39"/><rect class="cls-62" x="0.61" width="0.31" height="29.39"/><rect class="cls-62" x="0.92" width="0.31" height="29.39"/><rect class="cls-63" x="1.22" width="0.31" height="29.39"/><rect class="cls-63" x="1.53" width="0.31" height="29.39"/><rect class="cls-63" x="1.84" width="0.31" height="29.39"/><rect class="cls-64" x="2.14" width="0.31" height="29.39"/><rect class="cls-64" x="2.45" width="0.31" height="29.39"/><rect class="cls-64" x="2.75" width="0.31" height="29.39"/><rect class="cls-65" x="3.06" width="0.31" height="29.39"/><rect class="cls-65" x="3.36" width="0.31" height="29.39"/><rect class="cls-66" x="3.67" width="0.31" height="29.39"/><rect class="cls-66" x="3.98" width="0.31" height="29.39"/><rect class="cls-67" x="4.28" width="0.31" height="29.39"/><rect class="cls-67" x="4.59" width="0.31" height="29.39"/><rect class="cls-68" x="4.89" width="0.31" height="29.39"/><rect class="cls-69" x="5.2" width="0.31" height="29.39"/><rect class="cls-70" x="5.51" width="0.31" height="29.39"/><rect class="cls-71" x="5.81" width="0.31" height="29.39"/><rect class="cls-72" x="6.12" width="0.31" height="29.39"/><rect class="cls-73" x="6.42" width="0.31" height="29.39"/><rect class="cls-74" x="6.73" width="0.31" height="29.39"/><rect class="cls-75" x="7.03" width="0.31" height="29.39"/><rect class="cls-76" x="7.34" width="0.31" height="29.39"/><rect class="cls-77" x="7.65" width="0.31" height="29.39"/><rect class="cls-78" x="7.95" width="0.31" height="29.39"/><rect class="cls-79" x="8.26" width="0.31" height="29.39"/><rect class="cls-80" x="8.56" width="0.31" height="29.39"/><rect class="cls-81" x="8.87" width="0.31" height="29.39"/><rect class="cls-82" x="9.18" width="0.31" height="29.39"/><rect class="cls-83" x="9.48" width="0.31" height="29.39"/><rect class="cls-84" x="9.79" width="0.31" height="29.39"/><rect class="cls-85" x="10.09" width="0.31" height="29.39"/><rect class="cls-86" x="10.4" width="0.31" height="29.39"/><rect class="cls-87" x="10.7" width="0.31" height="29.39"/><rect class="cls-88" x="11.01" width="0.31" height="29.39"/><rect class="cls-89" x="11.32" width="0.31" height="29.39"/><rect class="cls-90" x="11.62" width="0.31" height="29.39"/><rect class="cls-91" x="11.93" width="0.31" height="29.39"/><rect class="cls-92" x="12.23" width="0.31" height="29.39"/><rect class="cls-93" x="12.54" width="0.31" height="29.39"/><rect class="cls-94" x="12.85" width="0.31" height="29.39"/><rect class="cls-95" x="13.15" width="0.31" height="29.39"/><rect class="cls-96" x="13.46" width="0.31" height="29.39"/><rect class="cls-97" x="13.76" width="0.31" height="29.39"/><rect class="cls-98" x="14.07" width="0.31" height="29.39"/><rect class="cls-99" x="14.38" width="0.31" height="29.39"/><rect class="cls-100" x="14.68" width="0.31" height="29.39"/><rect class="cls-101" x="14.99" width="0.31" height="29.39"/><rect class="cls-102" x="15.29" width="0.31" height="29.39"/><rect class="cls-103" x="15.6" width="0.31" height="29.39"/><rect class="cls-104" x="15.9" width="0.31" height="29.39"/><rect class="cls-105" x="16.21" width="0.31" height="29.39"/><rect class="cls-106" x="16.52" width="0.31" height="29.39"/><rect class="cls-107" x="16.82" width="0.31" height="29.39"/><rect class="cls-108" x="17.13" width="0.31" height="29.39"/><rect class="cls-109" x="17.43" width="0.31" height="29.39"/><rect class="cls-110" x="17.74" width="0.31" height="29.39"/><rect class="cls-111" x="18.05" width="0.31" height="29.39"/><rect class="cls-112" x="18.35" width="0.31" height="29.39"/><rect class="cls-113" x="18.66" width="0.31" height="29.39"/><rect class="cls-114" x="18.96" width="0.31" height="29.39"/><rect class="cls-115" x="19.27" width="0.31" height="29.39"/><rect class="cls-116" x="19.57" width="0.31" height="29.39"/><rect class="cls-117" x="19.88" width="0.31" height="29.39"/><rect class="cls-118" x="20.19" width="0.31" height="29.39"/><rect class="cls-119" x="20.49" width="0.31" height="29.39"/><rect class="cls-120" x="20.8" width="0.31" height="29.39"/><rect class="cls-121" x="21.1" width="0.31" height="29.39"/><rect class="cls-122" x="21.41" width="0.31" height="29.39"/><rect class="cls-123" x="21.72" width="0.31" height="29.39"/><rect class="cls-124" x="22.02" width="0.31" height="29.39"/><rect class="cls-125" x="22.33" width="0.31" height="29.39"/><rect class="cls-126" x="22.63" width="0.31" height="29.39"/><rect class="cls-127" x="22.94" width="0.31" height="29.39"/><rect class="cls-128" x="23.24" width="0.31" height="29.39"/><rect class="cls-129" x="23.55" width="0.31" height="29.39"/><rect class="cls-130" x="23.86" width="0.31" height="29.39"/><rect class="cls-131" x="24.16" width="0.31" height="29.39"/><rect class="cls-132" x="24.47" width="0.31" height="29.39"/><rect class="cls-133" x="24.77" width="0.31" height="29.39"/><rect class="cls-134" x="25.08" width="0.31" height="29.39"/><rect class="cls-135" x="25.39" width="0.31" height="29.39"/><rect class="cls-136" x="25.69" width="0.31" height="29.39"/><rect class="cls-137" x="26" width="0.31" height="29.39"/><rect class="cls-138" x="26.3" width="0.31" height="29.39"/><rect class="cls-139" x="26.61" width="0.31" height="29.39"/><rect class="cls-140" x="26.91" width="0.31" height="29.39"/><rect class="cls-141" x="27.22" width="0.31" height="29.39"/><rect class="cls-142" x="27.53" width="0.31" height="29.39"/><rect class="cls-143" x="27.83" width="0.31" height="29.39"/><rect class="cls-144" x="28.14" width="0.31" height="29.39"/><rect class="cls-145" x="28.44" width="0.31" height="29.39"/><path class="cls-145" d="M1134.85,29.39v0Z" transform="translate(-1106.1 0)"/></g></svg>