<?xml version="1.0" encoding="utf-8"?>
<!-- Generator: Adobe Illustrator 19.0.0, SVG Export Plug-In . SVG Version: 6.00 Build 0)  -->
<!DOCTYPE svg PUBLIC "-//W3C//DTD SVG 1.1//EN" "http://www.w3.org/Graphics/SVG/1.1/DTD/svg11.dtd">
<svg version="1.1" id="Layer_1" xmlns="http://www.w3.org/2000/svg" xmlns:xlink="http://www.w3.org/1999/xlink" x="0px" y="0px"
	 viewBox="-623 731.9 252.9 39.1" enable-background="new -623 731.9 252.9 39.1" xml:space="preserve">
<g id="XMLID_1_">
	<polygon id="XMLID_15_" fill="#00E2CF" points="-532.7,770.3 -545.6,738.8 -545.6,738.8 -548.2,732.7 -563.3,770.3 -558.3,770.3 
		-548.1,745 -537.7,770.3 	"/>
	<polygon id="XMLID_14_" fill="#00E2CF" points="-591.7,732.7 -568.1,732.6 -568.1,737.3 -587.1,737.3 -587.1,749.2 -575.2,749.2 
		-575.2,753.8 -587.1,753.8 -587.1,765.6 -568.1,765.6 -568.1,770.3 -591.7,770.3 	"/>
	<path fill="#00E2CF" d="M-598.7,759.7c0,5.8-4.7,10.5-10.6,10.5h-13.1v-21h6.2l-6.8-16.5h11.9c5.9,0,10.6,4.7,10.6,10.6
		c0,3.3-1.8,6.3-4.7,7.2C-601.3,751.5-598.7,755.7-598.7,759.7 M-605.2,743.1c0-3.3-2.6-5.9-5.9-5.9h-5l4.9,12
		C-607.9,749.2-605.2,746.4-605.2,743.1 M-603.5,759.8c0-3.3-2.6-6-5.9-6h-8.1v12h8.2C-606.1,765.7-603.5,763-603.5,759.8"/>
	<polygon id="XMLID_10_" fill="#00E2CF" points="-523,764.8 -518.3,755.7 -518.3,737.4 -509,737.4 -506.6,732.7 -535.7,732.7 
		-535.7,737.4 -523,737.4 	"/>
	<path id="XMLID_9_" fill="#FFFFFF" d="M-454.6,737.4"/>
	<rect id="XMLID_8_" x="-414.7" y="732.7" fill="#FFFFFF" width="4.7" height="37.6"/>
	<polygon id="XMLID_7_" fill="#FFFFFF" points="-391.8,732.7 -397.1,752.2 -402.4,732.7 -407.3,732.7 -399.6,761.3 -399.6,761.3 
		-397.1,770.3 -397.1,770.3 -397.1,770.3 -394.7,761.3 -394.7,761.3 -386.9,732.7 	"/>
	<path id="XMLID_6_" fill="#FFFFFF" d="M-426.5,748.1c-2.4-0.6-4.3-2.8-4.3-5.3c0-3,2.5-5.5,5.5-5.5c1.9,0,3.6,1,4.6,2.6v-6.2
		c-1.5-0.7-3-1.1-4.6-1.1c-5.6,0-10.2,4.6-10.2,10.2c0,4.9,3.4,8.9,8,10c3,0.7,5.3,3.4,5.3,6.7c0,3.8-3.1,6.9-6.9,6.9
		c-2.6,0-4.9-1.4-6.1-3.7v6.7c1.8,1.1,3.9,1.7,6.1,1.7c6.4,0,11.5-5.2,11.5-11.6c0-3.1-1.2-6-3.4-8.2
		C-422.5,749.6-424.4,748.6-426.5,748.1"/>
	<polygon id="XMLID_5_" fill="#FFFFFF" points="-474,759.9 -488.2,731.9 -495.8,746.9 -503.4,731.9 -523,770.3 -517.7,770.3 
		-503.4,742.3 -498.5,752.1 -507.7,770.3 -502.4,770.3 -495.8,757.4 -489.3,770.3 -484,770.3 -493.2,752.1 -488.2,742.3 -474,770.3 
		-468.8,770.3 -459.4,770.3 -459.4,765.6 -469.4,765.6 -469.4,753.9 -462.8,753.9 -462.8,749.1 -469.4,749.1 -469.4,737.3 
		-459.4,737.3 -459.4,732.7 -474,732.7 	"/>
	<polygon id="XMLID_4_" fill="#FFFFFF" points="-370.1,737.3 -370.1,732.7 -384.8,732.7 -384.8,770.3 -370.1,770.3 -370.1,765.6 
		-380.1,765.6 -380.1,753.9 -373.6,753.9 -373.6,749.1 -380.1,749.1 -380.1,737.3 	"/>
	<path fill="#FFFFFF" d="M-437.4,747c0-3.8-1.5-7.5-4.2-10.1c-2.7-2.7-6.3-4.2-10.2-4.2h-4.5v37.7h4.7v-8.9h0.8l7,8.9h6l-8.1-10.2
		c1.6-0.7,3-1.7,4.2-2.9C-438.9,754.5-437.4,750.9-437.4,747 M-451.6,756.7v-19.3c5.3,0.1,9.4,4.4,9.4,9.7S-446.3,756.6-451.6,756.7
		"/>
</g>
</svg>
