<svg id="Layer_1" data-name="Layer 1" xmlns="http://www.w3.org/2000/svg" xmlns:xlink="http://www.w3.org/1999/xlink" viewBox="0 0 260 255.45"><defs><style>.cls-1{fill:url(#linear-gradient);}.cls-2{fill:url(#linear-gradient-2);}</style><linearGradient id="linear-gradient" x1="134.99" y1="-619.77" x2="134.99" y2="-747.29" gradientTransform="matrix(1, 0, 0, -1, 0, -555.83)" gradientUnits="userSpaceOnUse"><stop offset="0" stop-color="#2b2b2b"/><stop offset="0.53" stop-color="#121212"/><stop offset="1"/></linearGradient><linearGradient id="linear-gradient-2" x1="130" y1="-555.83" x2="130" y2="-811.29" xlink:href="#linear-gradient"/></defs><title>Active</title><path class="cls-1" d="M160.19,122.51c10.43-4.34,16.51-13,16.51-25.2a32.09,32.09,0,0,0-9.56-23.46c-7-6.08-14.77-9.56-24.33-9.56H100.23A16.5,16.5,0,0,0,83.72,80.81v93.84a16.5,16.5,0,0,0,16.51,16.51h46.92c11.3,0,20-3.48,27.8-10.43s11.3-16.51,11.3-26.94C186.25,137.28,176.7,126,160.19,122.51ZM117.61,92.1h16.51c6.08,0,10.43,4.34,10.43,11.3s-4.34,11.3-10.43,11.3H117.61V92.1Zm21.72,70.38H117.61V138.15h21.72c7.82,0,13,5.21,13,12.16S147.15,162.48,139.33,162.48Z"/><path class="cls-2" d="M260,60.82V194.63a60.45,60.45,0,0,1-60.82,60.82H162.35a13.9,13.9,0,0,1,0-27.8H200a33,33,0,0,0,33-33V60.82a33,33,0,0,0-33-33H60.82a33,33,0,0,0-33,33V194.63a33,33,0,0,0,33,33h37.7a13.9,13.9,0,1,1,0,27.8H60.82c-33,0-60.82-27.8-60.82-60.82V60.82C0,27.8,27.8,0,60.82,0H200C233.06,0,260,27.8,260,60.82Z"/></svg>