<?xml version="1.0" encoding="utf-8"?>
<!-- Generator: Adobe Illustrator 19.0.0, SVG Export Plug-In . SVG Version: 6.00 Build 0)  -->
<!DOCTYPE svg PUBLIC "-//W3C//DTD SVG 1.1//EN" "http://www.w3.org/Graphics/SVG/1.1/DTD/svg11.dtd">
<svg version="1.1" id="Layer_1" xmlns="http://www.w3.org/2000/svg" xmlns:xlink="http://www.w3.org/1999/xlink" x="0px" y="0px"
	 viewBox="0 0 181.6 24.9" enable-background="new 0 0 181.6 24.9" xml:space="preserve">
<g>
	<path fill="#00E2CF" d="M0,24.8V0.9h8.8c0,0,0.2,0,0.5,0c0.3,0,0.8,0.1,1.3,0.2s1.1,0.2,1.8,0.4s1.3,0.5,2,0.9
		c1.5,0.8,2.8,2,3.8,3.6c0.5,0.9,0.9,2,1.2,3.1c0.3,1.2,0.5,2.4,0.5,3.7c0,2.7-0.6,5-1.8,6.8v0c-0.5,0.8-1.1,1.5-1.7,2.1
		c-0.6,0.6-1.4,1.2-2.2,1.6c-0.7,0.4-1.4,0.6-2,0.8c-0.6,0.2-1.2,0.3-1.8,0.4c-0.5,0.1-0.9,0.2-1.3,0.2c-0.3,0-0.5,0-0.5,0H0z
		 M2.8,22h5.8c0,0,0.2,0,0.4,0c0.3,0,0.6-0.1,1-0.1c0.4-0.1,0.9-0.2,1.4-0.3c0.5-0.2,1-0.4,1.6-0.7c2.8-1.5,4.2-4.2,4.2-8
		c0-3.8-1.4-6.4-4.1-8c-0.4-0.3-0.9-0.5-1.3-0.6c-0.4-0.1-0.8-0.3-1.2-0.3c-0.4-0.1-0.7-0.1-1-0.2c-0.3,0-0.5,0-0.6,0H2.8V22z"/>
	<path fill="#00E2CF" d="M37.8,24.8L30.2,7.1l-7.6,17.8h-3L30.2,0l10.6,24.8H37.8z"/>
	<path fill="#00E2CF" d="M46.9,24.8h-2.8v-24h2.8V24.8z"/>
	<path fill="#00E2CF" d="M66.9,24.8H52.5V0.9h2.8V22h11.5V24.8z"/>
	<path fill="#00E2CF" d="M75.3,24.9h-2.8V15c-1.4-2.1-2.9-4.2-4.4-6.4c-1.5-2.2-3.8-5.7-5.2-7.8h3.3l7.7,11.3l7.7-11.3H85l-9.7,14.2
		V24.9z"/>
	<path fill="#00E2CF" d="M106.4,24.8V11.4h6.2l-6.7-10.5H117c0.3,0,0.7,0.1,0.9,0.1c0.3,0,0.6,0.1,0.9,0.2c0.3,0.1,0.7,0.3,1,0.5
		l0,0c0.3,0.2,0.7,0.4,1,0.7s0.7,0.7,0.9,1.1c0.3,0.4,0.5,1,0.7,1.6c0.2,0.6,0.3,1.3,0.3,2.1c0,1.3-0.2,2.4-0.7,3.2
		c-0.5,0.8-1,1.5-1.7,2c0.3,0.2,0.7,0.5,1,0.8c0.3,0.3,0.7,0.7,0.9,1.2c0.3,0.5,0.5,1,0.7,1.6c0.2,0.6,0.2,1.3,0.2,2.1
		c0,0.9-0.1,1.6-0.3,2.3c-0.2,0.6-0.5,1.2-0.8,1.7c-0.3,0.5-0.7,0.8-1,1.2c-0.4,0.3-0.8,0.6-1.1,0.8c-0.4,0.2-0.8,0.4-1.1,0.5
		c-0.4,0.1-0.7,0.2-1,0.3c-0.3,0.1-0.5,0.1-0.7,0.1c-0.2,0-0.3,0-0.3,0H106.4z M109.2,22h7.6c0,0,0.1,0,0.1,0c0,0,0.1,0,0.1,0
		c0.2,0,0.4-0.1,0.8-0.1s0.7-0.2,1-0.4c1.2-0.6,1.7-1.7,1.7-3.4c0-1.7-0.6-2.8-1.7-3.4c-0.2-0.1-0.5-0.2-0.7-0.3
		c-0.2-0.1-0.4-0.2-0.6-0.2c-0.2,0-0.3-0.1-0.5-0.1h-7.8V22z M115.8,11.3c0.2,0,0.5-0.1,0.9-0.1c0.4-0.1,0.8-0.2,1.2-0.4
		c1.4-0.7,2.1-1.8,2.1-3.5c0-1.5-0.5-2.6-1.5-3.1v0C118.4,4,118.2,4,118,3.9c-0.2-0.1-0.3-0.1-0.5-0.1l-0.2,0c-0.1,0-0.2,0-0.2,0
		s-0.1,0-0.1,0h-6L115.8,11.3z"/>
	<path fill="#00E2CF" d="M141.9,14.6h-12.1V22h12.9v2.8h-15.7V0.9h15.7v2.8h-12.9v8.1h12.1V14.6z"/>
	<path fill="#00E2CF" d="M163.6,24.8l-7.6-17.8l-7.6,17.8h-3L156.1,0l10.6,24.8H163.6z"/>
	<path fill="#00E2CF" d="M170.6,24.8V3.7h-8.1V0.9h19.1v2.8h-8.3v21.1H170.6z"/>
</g>
</svg>
