<?xml version="1.0" encoding="utf-8"?>
<!-- Generator: Adobe Illustrator 19.0.0, SVG Export Plug-In . SVG Version: 6.00 Build 0)  -->
<!DOCTYPE svg PUBLIC "-//W3C//DTD SVG 1.1//EN" "http://www.w3.org/Graphics/SVG/1.1/DTD/svg11.dtd">
<svg version="1.1" id="Layer_1" xmlns="http://www.w3.org/2000/svg" xmlns:xlink="http://www.w3.org/1999/xlink" x="0px" y="0px"
	 viewBox="0 0 1228.9 219.5" enable-background="new 0 0 1228.9 219.5" xml:space="preserve">
<g>
	<g>
		<path fill="#FFFFFF" d="M324,58.8c-11,0-21.2-0.1-31.5,0.1c-0.9,0-2.2,1.4-2.7,2.4c-8.3,16.8-16.5,33.7-24.8,50.6
			c-2.8,5.8-5.7,11.7-8.6,17.5c-0.4-0.1-0.4-0.1-0.9-0.1c-5.4-23.5-10.9-47-16.2-70.3H204c1.6,5.9,3,11.4,4.6,16.9
			c7.2,26.4,14.5,52.8,21.7,79.2c2.5,9.3,2.4,9.3,12.1,9.3H262c3.3,0,6.3-1.8,7.8-4.7C278.9,143.1,309.7,85.5,324,58.8z"/>
		<path fill="#FFFFFF" d="M353.9,122.1c1.2,8.7,4.5,15.5,12.5,18.4c13.8,5,24.6-0.8,34-11.1c6.8,5.6,13.6,11.1,20.6,16.9
			c-6.7,7.4-14.5,12.6-23.5,16.2c-14.9,5.9-29.9,6.6-45.1,1.3c-21.6-7.4-33.1-27.3-29.9-50.9c4-28.9,23.7-49.3,52-55.1
			c11.5-2.3,22.9-2.5,33.9,2.3c12.9,5.6,19.5,16,22.1,29.3c2,10.1,0.6,20.2-0.8,30.2c-0.4,2.7-2.1,2.6-4.1,2.6
			c-22.5,0-44.9,0-67.4,0C357.1,122.1,355.7,122.1,353.9,122.1z M399.4,99.4c1.1-7-1.2-13-6.2-16.4c-3.8-2.6-8-3.2-12.5-3
			c-11.1,0.5-22.1,9.6-23.2,19.4C371.5,99.4,385.3,99.4,399.4,99.4z"/>
		<path fill="#FFFFFF" d="M152.2,164.6c0.6-4.4,1-8.1,1.6-12.7c-1.2,1.1-1.9,1.6-2.4,2.2c-10.9,12.6-34.4,16.6-50.1,10
			c-13-5.5-18.7-17.4-16-31.6c3-15.8,13.5-24.3,27.5-29.4c9.2-3.4,18.8-4.9,28.7-5.1c6.5-0.1,13-0.6,19.5-0.9
			c1.8-5.6-0.9-12-6.7-15.4c-7.6-4.5-15.6-3.7-23.2-0.5c-5.7,2.4-10.7,6.2-16.5,9.6c-4.4-5.3-9.3-11.2-14.3-17.2
			c7.6-6.3,15.8-10.6,24.9-13.4c12.9-4,26.1-4.8,39.4-2.3c16.8,3.2,26.2,14.1,26.4,31.5c0.1,9.5-1.1,19-2.2,28.4
			c-1.7,14.3-4,28.5-5.8,42.8c-0.4,3.3-1.6,4.4-4.9,4.3C169.5,164.4,161,164.6,152.2,164.6z M157.8,117.9
			c-7.3,0.5-14.8,0.3-21.9,1.6c-5.2,1-10.4,3.4-15,6.2c-3.8,2.2-4.9,6.7-4.1,11c0.8,4.2,4,6.9,8.2,7.3c4.7,0.4,9.5,0.5,14-0.4
			C151.8,140.9,158.9,131.2,157.8,117.9z"/>
		<path fill="#FFFFFF" d="M0,164.4C5,129,9.8,94,14.8,59c11.1,0,21.6,0,32.7,0c-0.7,5.4-1.4,10.7-2.2,17.1
			C56,59.4,70.4,53.4,89.3,57.5c-1.4,9.9-2.7,19.7-4,29.3c-4.9-0.6-9.5-1.6-14.2-1.6c-17.5-0.2-27.6,8.2-30.5,25.7
			c-2.5,15.4-4.6,30.9-6.8,46.4c-1,7.3-0.9,7.3-8.4,7.3c-7,0-14.1,0-21.1,0C2.9,164.6,1.6,164.4,0,164.4z"/>
		<path fill="#FFFFFF" d="M455.6,59c11.1,0,21.6,0,32.6,0c-0.7,5.2-1.3,10.1-1.9,15c0.2,0.3,0.4,0.6,0.5,0.9
			c10.5-15.9,24.9-21.4,43.3-17.4c-1.4,10.1-2.8,19.8-4,28.7c-7-0.2-13.8-1-20.4-0.4c-15.9,1.3-21.8,12.1-23.8,23.1
			c-2.7,14.7-4.6,29.6-6.9,44.5c-0.2,1.2-0.4,2.5-0.6,3.7c-1.1,7.5-1.1,7.5-8.9,7.5c-8,0-16,0-24.8,0
			C445.8,129.1,450.7,94.2,455.6,59z"/>
	</g>
	<g>
		<path fill="#FFFFFF" d="M892.6,106.7c0.8-6.2,1.8-12.3,2.7-18.7c9.6,0,18.9,0,28.5,0c1.3-8.8,2.5-17.3,3.7-26.2
			c-9.7,0-19,0-28.5,0c1.4-10.7,2.8-20.9,4.2-31.1c-11.2,0-21.9,0-32.7,0c-1.5,10.5-2.9,20.7-4.4,31c-15,0-29.6,0-44.5,0
			c1-6.9,1.7-13.6,3-20.2c1.8-9.1,6.6-13,16-13.2c3.8,0,7.6,0.9,11.6,1.4c1.7-8.7,3.5-17.6,5.4-27.1c-13.1-2.9-26.5-4.1-39.5,0.6
			c-6.9,2.5-14.3,8.3-16.8,11.7c-10.5,14.1-9.6,31-12.6,47.1c-7.2,0-14.3,0-21.3,0c-1.2,8.9-2.4,17.2-3.6,26.2c7.6,0,14.4,0,21.4,0
			c-3.7,26.6-7.3,52.7-11,79.1c11,0,21.8,0,32.7,0c0.8-5.6,1.7-11,2.5-16.4c2.8-19.8,5.6-39.7,8.2-59.5c0.4-3,1.6-3.3,4.1-3.3
			c12.4,0.1,24.9,0,37.3,0.1c1.1,0,2.2,0.2,3.6,0.3c-0.8,5.7-1.5,11-2.2,16.3c-1.7,12.5-3.7,25-5,37.6c-1.3,12.3,5.5,21.9,17.2,25.4
			c12.7,3.8,25.5,3.1,38.2-0.2c1.1-0.3,2.3-2,2.6-3.3c0.7-2.9,1-5.9,1.4-8.9c0.6-5,1.2-10,1.8-14.3c-5.3,0.5-10.2,1.6-15.1,1.4
			c-8.6-0.3-11.9-4.1-11.3-12.8C890.4,121.9,891.6,114.3,892.6,106.7z"/>
		<path fill="#FFFFFF" d="M1196.8,74.6c0.6-4.2,1.3-8.3,1.9-12.5c10.2,0,20,0,30.2,0c-2.7,18.8-5.4,37.4-8.1,56
			c-2.1,14.9-3.8,29.8-6.3,44.6c-3.9,22.8-13.9,41.6-36.4,51.1c-13.5,5.7-27.7,6.4-42.1,5.3c-10.6-0.8-21.2-2.4-30.7-7.7
			c-3.6-2-6.9-4.5-10.7-7c7.5-9.3,14.6-18.1,22-27.3c1.6,1.3,3.1,2.5,4.6,3.7c11.8,9.4,25.1,12.1,39.6,8.4
			c11.7-3,17.9-11.3,20.5-22.7c0.8-3.4,1.1-6.9,1.7-11.2c-1.6,1.4-2.7,2.3-3.7,3.2c-20.2,17.7-55.1,12.1-67.6-10.8
			c-5.7-10.5-6.8-21.9-4.8-33.6c3.5-20.7,12.9-37.7,31.5-48.3c16.3-9.3,33-9.3,49.2,0.5C1190.9,68.2,1193.4,71.5,1196.8,74.6z
			 M1161.8,139.7c12.2,0,24.7-9.1,28.5-20.9c5.6-17.3-6.5-32.3-24.6-30.5c-11.7,1.2-22.9,11.5-25.7,23.7
			C1136.5,126.8,1146.7,139.7,1161.8,139.7z"/>
		<path fill="#FFFFFF" d="M1082.6,167.2c-10.8,0-21.5,0-32.6,0c1-7.2,1.9-14.1,2.8-21c1.8-13.6,3.6-27.3,5.3-40.9
			c0.3-2.4,0-5-0.4-7.5c-1-5.6-4.9-9-10.6-9.6c-12.2-1.3-21.3,4.6-23.9,16.7c-2.3,10.9-3.7,21.9-5.3,32.9
			c-1.4,9.6-2.7,19.3-4.1,29.3c-10.8,0-21.7,0-32.7,0c1.3-9.4,2.5-18.7,3.8-27.9c2.5-17.6,4.9-35.2,7.4-52.8c1-7.3,2-14.6,3.1-21.9
			c0.2-1,1.5-2.5,2.3-2.5c9.6-0.2,19.3-0.1,29.4-0.1c-0.5,4.6-1,8.8-1.6,13.8c5.8-7.2,12.3-12,20.4-14.6c10.2-3.2,20.3-2.9,30.2,0.9
			c10.2,4,15.1,12.5,15.5,22.9c0.3,10.1-0.6,20.2-1.7,30.3c-1.8,15.9-4.2,31.7-6.4,47.6C1083.2,164.3,1082.9,165.7,1082.6,167.2z"/>
		<path fill="#FFFFFF" d="M716.1,155.8c-9.4,9.8-21,13.6-33.8,14.1c-14.4,0.6-28.8-4.6-33.7-18.5c-4.2-11.8,0.7-28.4,10.6-36.5
			c11.1-9.1,24.3-12.6,38.3-13.7c8.7-0.7,17.5-0.9,26.2-1.3c2.2-9.2-5.2-17.7-15.5-18.3c-10.5-0.6-19.3,3.3-27.2,9.8
			c-1,0.8-1.9,1.6-3.2,2.7c-5-6-9.8-11.8-14.8-17.9c7.6-6.4,16-10.8,25.2-13.5c13.8-4.1,27.8-5,41.9-1.5c16,4.1,23.2,15.2,23.5,30.4
			c0.2,10-1.1,20-2.2,29.9c-1.7,14.2-3.9,28.3-5.8,42.4c-0.3,2.7-1.1,3.6-3.9,3.6c-8.8-0.2-17.5-0.1-26.7-0.1
			C715.2,163.3,715.7,159.6,716.1,155.8z M720.5,121.6c-6.3,0-12.5-0.3-18.5,0.1c-6.6,0.5-13.1,2.1-18.5,6.5
			c-3.6,2.9-5.1,6.9-4.2,11.4c0.9,4.3,4.3,6.8,8.5,7.4c3.6,0.5,7.5,0.6,11.1,0C710.7,144.9,721.2,137.9,720.5,121.6z"/>
		<path fill="#FFFFFF" d="M651.9,60.3c-1.4,9.9-2.7,19.6-4.1,29.6c-2.2-0.4-4.2-1.1-6.2-1.1c-6.5,0-13.1-0.6-19.4,0.8
			c-9.8,2.1-15.5,9.5-17.7,19c-2.3,10.1-3.7,20.4-5.3,30.6c-1.4,9.2-2.6,18.5-3.9,28c-10.9,0-21.7,0-32.7,0
			c4.9-35.1,9.8-70,14.7-105.1c10.9,0,21.6,0,32.7,0c-0.7,5.3-1.3,10.3-2.1,16.7C618.8,62.2,633.1,56.2,651.9,60.3z"/>
		<path fill="#FFFFFF" d="M960.1,167.3c-11,0-21.5,0-32.8,0c4.9-35.1,9.8-70,14.7-105.2c11,0,21.8,0,32.8,0
			C969.9,97.2,965,132.1,960.1,167.3z"/>
		<path fill="#FFFFFF" d="M960.6,47.7c-11,0.1-18.6-9.4-16.3-20.3c2-9.8,11.6-17.7,21.6-17.8c12.2-0.1,19.7,11.9,15,24.2
			C977.7,41.6,969,47.6,960.6,47.7z"/>
	</g>
</g>
</svg>
