<?xml version="1.0" encoding="utf-8"?>
<!-- Generator: Adobe Illustrator 19.0.0, SVG Export Plug-In . SVG Version: 6.00 Build 0)  -->
<!DOCTYPE svg PUBLIC "-//W3C//DTD SVG 1.1//EN" "http://www.w3.org/Graphics/SVG/1.1/DTD/svg11.dtd">
<svg version="1.1" id="Layer_1" xmlns="http://www.w3.org/2000/svg" xmlns:xlink="http://www.w3.org/1999/xlink" x="0px" y="0px"
	 viewBox="0 0 822 153" enable-background="new 0 0 822 153" xml:space="preserve">
<polygon id="XMLID_187_" fill="#FFFFFF" points="255,0 146.5,0 108.5,0 0,0 0,41 108.5,41 108.5,153 146.5,153 146.5,41 255,41 "/>
<path id="XMLID_184_" fill="#FFFFFF" d="M497,0H321h-38v41v20v41v51h38v-51h127l41,51h41l-41-51h8c22.6,0,41-18.4,41-41l0,0V41
	C538,18.4,519.6,0,497,0z M321,61V41h174v20H321z"/>
<path id="XMLID_183_" fill="#FFFFFF" d="M635.5,41H821V0H607c-22.6,0-41,18.4-41,41v71l0,0c0,22.6,18.4,41,41,41h214v-41H635.5
	c-19.6,0-28.5-15.9-28.5-35.5C607,56.9,615.9,41,635.5,41z"/>
</svg>
