<svg id="Layer_1" data-name="Layer 1" xmlns="http://www.w3.org/2000/svg" xmlns:xlink="http://www.w3.org/1999/xlink" viewBox="0 0 16.07 16.07"><defs><style>.cls-1{fill:url(#linear-gradient);}</style><linearGradient id="linear-gradient" x1="8.03" x2="8.03" y2="16.07" gradientUnits="userSpaceOnUse"><stop offset="0" stop-color="#00a79d"/><stop offset="1" stop-color="#007a73"/></linearGradient></defs><title>FNTLogoHover</title><path class="cls-1" d="M16.07,8A8,8,0,1,1,8,0,8,8,0,0,1,16.07,8ZM13.91,8a5.88,5.88,0,1,0-11,2.89h0a1,1,0,0,1,0,.43A1.7,1.7,0,0,0,4.64,13.1c0,0.49.65,0.84,1.45,0.84a0.25,0.25,0,0,0,.25-0.25V8.88H5.62a0.89,0.89,0,0,0-.94.66c0,0.06,0,.12,0,0.18a1.7,1.7,0,0,0-1.15.46,5,5,0,1,1,9.08,0,1.7,1.7,0,0,0-1.15-.46c0-.06,0-0.12,0-0.18a0.89,0.89,0,0,0-.94-0.66H9.72v4.81a0.25,0.25,0,0,0,.25.25c0.81,0,1.45-.34,1.45-0.84a1.7,1.7,0,0,0,1.68-1.77,1,1,0,0,1,0-.43h0A5.83,5.83,0,0,0,13.91,8Z"/></svg>