<svg id="Layer_1" data-name="Layer 1" xmlns="http://www.w3.org/2000/svg" xmlns:xlink="http://www.w3.org/1999/xlink" viewBox="0 0 66.13 15.85"><defs><style>.cls-1{fill:url(#linear-gradient);}.cls-2{fill:url(#linear-gradient-2);}</style><linearGradient id="linear-gradient" x1="50.02" y1="14.2" x2="50.02" y2="2.17" gradientTransform="matrix(1, 0, 0, -1, 0, 14.56)" gradientUnits="userSpaceOnUse"><stop offset="0" stop-color="#fff"/><stop offset="0.35" stop-color="#ededed"/><stop offset="1" stop-color="#c2c2c2"/></linearGradient><linearGradient id="linear-gradient-2" x1="16.82" y1="14.52" x2="16.82" y2="-1.29" xlink:href="#linear-gradient"/></defs><title>DailyBeat_Logotype_Grey</title><path class="cls-1" d="M66.13,3.61V5.87H64.25v6.25H61.77V5.93H60.64V3.61h1.13V.38a2.47,2.47,0,0,1,2.48,2.48v.75ZM60.37,7.28A3,3,0,0,1,58.59,8c1.51-.54,1.78-1.35,1.78-2.1h0C60.2,4.31,58.86,3.4,56.7,3.4A4.23,4.23,0,0,0,53,5.23l1.51,1.29a2.94,2.94,0,0,1,2.26-1.08c.75,0,1.13.22,1.13.7s-.49.65-1.72.75c-2.64.27-3.77,1.13-3.77,2.91,0,1.56,1.29,2.59,3.18,2.59a3.42,3.42,0,0,0,2.86-1v.81h1.94V7.28Zm-4.42,3c-.75,0-1.13-.27-1.13-.75s.49-.81,1.4-1c.22-.05.7-.11.86-.16l.32-.05a.81.81,0,0,0,.49-.22v.65C57.89,9.81,57.19,10.29,55.95,10.29ZM51,4.69a4.35,4.35,0,0,0-3.18-1.24,4.74,4.74,0,0,0-3.34,1.24,4.22,4.22,0,0,0-1.29,3.23V8a4.22,4.22,0,0,0,1.29,3.23,4.75,4.75,0,0,0,3.4,1.19,4.89,4.89,0,0,0,3.67-1.56l-1.46-1.4a3,3,0,0,1-2.1.81c-1.35,0-2.21-.65-2.26-1.67h6.47V7.76A3.94,3.94,0,0,0,51,4.69Zm-3.18.81a1.67,1.67,0,0,1,1.83,1.4H45.71A2,2,0,0,1,47.81,5.5Zm-7.33.27A2.33,2.33,0,0,0,42,3.4a2.71,2.71,0,0,0-1-2.16A3.43,3.43,0,0,0,38.59.38H33.9v11.8h5.34a3.45,3.45,0,0,0,2.53-1,3.29,3.29,0,0,0,1-2.53A2.69,2.69,0,0,0,40.48,5.77Zm-4,4.15V7.06h2.26a1.44,1.44,0,0,1,1.56,1.4,1.46,1.46,0,0,1-1.51,1.46Zm1.67-4.85H36.44V2.59h1.72A1.19,1.19,0,0,1,39.4,3.83,1.16,1.16,0,0,1,38.16,5.07Z"/><path class="cls-2" d="M33.63,3.61l-3.77,9.92a3.54,3.54,0,0,1-1,1.56,3.37,3.37,0,0,1-2.26.75,8,8,0,0,1-1.13-.11V13.53a2.72,2.72,0,0,0,1,.16,1.57,1.57,0,0,0,.75-.16,1.07,1.07,0,0,0,.38-.54l.16-.38L25.12,6a1.72,1.72,0,0,1,1.62-2.37l2.32,5.93,2-6ZM23.82,1.08A2.57,2.57,0,0,0,22,.32v11.8h2.53V2.91A2.57,2.57,0,0,0,23.82,1.08ZM19,6.14v6h2.53V3.61A2.5,2.5,0,0,0,19,6.14Zm-.22-4.69a1.4,1.4,0,0,0,1.46,1.4,1.44,1.44,0,0,0,1.46-1.4A1.45,1.45,0,0,0,20.27,0,1.48,1.48,0,0,0,18.81,1.46Zm-.27,5.82A3,3,0,0,1,16.76,8c1.4-.49,1.72-1.24,1.78-1.94-.05-1.72-1.46-2.69-3.67-2.69a4.23,4.23,0,0,0-3.72,1.83l1.51,1.29a2.94,2.94,0,0,1,2.26-1.08c.75,0,1.13.22,1.13.7s-.49.65-1.72.75C11.7,7.17,10.56,8,10.56,9.81c0,1.56,1.29,2.59,3.18,2.59a3.42,3.42,0,0,0,2.86-1v.81h1.94V7.28Zm-4.42,3c-.75,0-1.13-.27-1.13-.75s.49-.81,1.4-1c.22-.05.7-.11.86-.16l.32-.05a.81.81,0,0,0,.49-.22v.65C16.06,9.81,15.31,10.29,14.12,10.29ZM9.11,2A6.32,6.32,0,0,0,4.47.32H0V12.18H4.53a6.22,6.22,0,0,0,4.64-1.62,5.86,5.86,0,0,0,1.62-4.31A6,6,0,0,0,9.11,2ZM4.31,9.81H2.59V2.69H4.31a3.84,3.84,0,0,1,3,1,3.72,3.72,0,0,1,.86,2.64C8.14,8.46,7.11,9.81,4.31,9.81Z"/></svg>