<svg id="Layer_1" data-name="Layer 1" xmlns="http://www.w3.org/2000/svg" xmlns:xlink="http://www.w3.org/1999/xlink" viewBox="0 0 15.83 15.64"><defs><style>.cls-1{fill:url(#linear-gradient);}</style><linearGradient id="linear-gradient" x1="8.03" y1="2260.32" x2="8.03" y2="2244.72" gradientTransform="matrix(1, 0, 0, -1, 0, 2260.37)" gradientUnits="userSpaceOnUse"><stop offset="0" stop-color="#454545"/><stop offset="1" stop-color="#262626"/></linearGradient></defs><title>AttackLogoHover-22</title><path class="cls-1" d="M2.77,10.89L2.69,11,3,10.23,4.09,7.92V7.85L4.44,8.13,3.86,9ZM6,5.54l2.16,3H8.7L6.07,3.59,4.33,7.39,4.69,7.7ZM2.63,11.1h0ZM3.13,7l-1.4,4.87h0l2-4.34Zm10.61,3.55-6.3.21L4.81,8.45,2.13,12.91a7.79,7.79,0,0,0,12.62-1.06ZM2.68,6.78l0.19-.66L3.94,7V7L5.3,4,6,2.5H6L6.79,3.91l2.4,4.48,0.07,0.1H14.5V8.57l0.9,1.79A7.8,7.8,0,1,0,1.26,11.68Zm8.58,3.35h0L9.48,10,9,9H7.9L6,6.42,5.06,8l2.55,2.23ZM14.31,10l0.78,1.14L15.15,11l-0.8-1.69L14.19,9H9.51L9.79,9.5l4.47,0.37Z"/></svg>